SplineFontDB: 3.0
FontName: AbhayaLibre-Regular
FullName: AbhayaLibre
FamilyName: AbhayaLibre
Weight: Regular
Copyright: Copyright (c) 1997-2015 Pushpananda Ekanayake (http://isiwara.lk), Copyright (c) 2015 mooniak (http://mooniak.com)\n
Version: 1.0
ItalicAngle: 0
UnderlinePosition: -102
UnderlineWidth: 51
Ascent: 819
Descent: 205
sfntRevision: 0x00010000
LayerCount: 2
Layer: 0 0 "Back"  1
Layer: 1 0 "Fore"  0
XUID: [1021 839 2092278351 89494]
FSType: 0
OS2Version: 3
OS2_WeightWidthSlopeOnly: 0
OS2_UseTypoMetrics: 1
CreationTime: 1429518268
ModificationTime: 1438274906
PfmFamily: 17
TTFWeight: 400
TTFWidth: 5
LineGap: 94
VLineGap: 0
Panose: 2 0 5 3 0 0 0 0 0 0
OS2TypoAscent: 819
OS2TypoAOffset: 0
OS2TypoDescent: -205
OS2TypoDOffset: 0
OS2TypoLinegap: 94
OS2WinAscent: 918
OS2WinAOffset: 0
OS2WinDescent: 205
OS2WinDOffset: 0
HheadAscent: 918
HheadAOffset: 0
HheadDescent: -205
HheadDOffset: 0
OS2SubXSize: 665
OS2SubYSize: 716
OS2SubXOff: 0
OS2SubYOff: 143
OS2SupXSize: 665
OS2SupYSize: 716
OS2SupXOff: 0
OS2SupYOff: 491
OS2StrikeYSize: 51
OS2StrikeYPos: 265
OS2Vendor: 'PfEd'
OS2CodePages: 00000001.00000000
OS2UnicodeRanges: 00000002.00000000.00000000.00000000
Lookup: 4 0 0 "'abvs' Above Base Substitutions in Sinhala lookup 0"  {"'abvs' Above Base Substitutions in Sinhala lookup 0 subtable"  } ['abvs' ('sinh' <'dflt' > ) ]
Lookup: 4 0 0 "'akhn' Akhand in Sinhala lookup 1"  {"'akhn' Akhand in Sinhala lookup 1 subtable"  } ['akhn' ('sinh' <'dflt' > ) ]
Lookup: 4 0 0 "'rphf' Reph Form in Sinhala lookup 2"  {"'rphf' Reph Form in Sinhala lookup 2 subtable"  } ['rphf' ('sinh' <'dflt' > ) ]
Lookup: 4 0 0 "'haln' Halant Forms in Sinhala lookup 3"  {"'haln' Halant Forms in Sinhala lookup 3 subtable"  } ['haln' ('sinh' <'dflt' > ) ]
Lookup: 4 0 0 "'abvs' Above Base Substitutions in Sinhala lookup 4"  {"'abvs' Above Base Substitutions in Sinhala lookup 4 subtable"  } ['abvs' ('sinh' <'dflt' > ) ]

StartChar: .notdef
Encoding: 65536 -1 0
Width: 512
Flags: MW
HStem: 0 51<102 410 102 461> 495 51<102 410 102 102>
VStem: 51 51<51 51 51 495> 410 51<51 495 495 495>
LayerCount: 2
Fore
SplineSet
51 0 m 1
 51 546 l 1
 461 546 l 1
 461 0 l 1
 51 0 l 1
102 51 m 1
 410 51 l 1
 410 495 l 1
 102 495 l 1
 102 51 l 1
EndSplineSet
EndChar

StartChar: anusvara
Encoding: 3458 3458 1
Width: 364
GlyphClass: 2
Flags: MW
HStem: 24.6992 49.4189 277.882 27.4189
VStem: 29.8936 37.1104 278.996 37.1104
LayerCount: 2
Fore
SplineSet
67.0039 176 m 0
 67.0039 119.723 114.449 74.1182 173 74.1182 c 0
 231.551 74.1182 278.996 119.723 278.996 176 c 0
 278.996 232.277 231.551 277.882 173 277.882 c 0
 114.449 277.882 67.0039 232.277 67.0039 176 c 0
29.8936 165 m 0
 29.8936 242.111 94.3467 305.301 173 305.301 c 0
 251.653 305.301 316.106 242.111 316.106 165 c 0
 316.106 87.8887 251.653 24.6992 173 24.6992 c 0
 94.3467 24.6992 29.8936 87.8887 29.8936 165 c 0
EndSplineSet
EndChar

StartChar: visarga
Encoding: 3459 3459 2
Width: 248
GlyphClass: 2
Flags: MW
HStem: 26 30.46 165.54 28.46 228 30.46 367.54 28.46
VStem: 31 29.46 169.54 29.46
LayerCount: 2
Fore
SplineSet
60.46 111 m 0
 60.46 80.7002 84.7002 56.46 115 56.46 c 0
 145.3 56.46 169.54 80.7002 169.54 111 c 0
 169.54 141.3 145.3 165.54 115 165.54 c 0
 84.7002 165.54 60.46 141.3 60.46 111 c 0
31 110 m 0
 31 156 69 194 115 194 c 0
 161 194 199 156 199 110 c 0
 199 64 161 26 115 26 c 0
 69 26 31 64 31 110 c 0
60.46 313 m 0
 60.46 282.7 84.7002 258.46 115 258.46 c 0
 145.3 258.46 169.54 282.7 169.54 313 c 0
 169.54 343.3 145.3 367.54 115 367.54 c 0
 84.7002 367.54 60.46 343.3 60.46 313 c 0
31 312 m 0
 31 358 69 396 115 396 c 0
 161 396 199 358 199 312 c 0
 199 266 161 228 115 228 c 0
 69 228 31 266 31 312 c 0
EndSplineSet
EndChar

StartChar: si_A
Encoding: 3461 3461 3
Width: 573
GlyphClass: 2
Flags: MW
HStem: -4 27 200 29<421.333 425.585 407.333 453.66> 287 22 393 40
VStem: 33 80 316 31.023 359 29<-215 313 -215 315> 384 4<207 235 207 207> 421.451 23.549 464 62<268 299>
LayerCount: 2
Fore
SplineSet
428 200 m 0xfdc0
 479.32 200 526 228.797 526 281 c 0
 526 354 445 369 445 403 c 0
 445 414 450 418 457 422 c 1
 438 418 l 1
 422 404 l 1
 421.682 401.932 421.451 399.935 421.451 398 c 0
 421.451 371 437.326 361.9 448 345 c 0
 460 326 464 311 464 287 c 0
 464 249 440.17 229 411 229 c 0
 403.667 229 393 230 384 235 c 1
 384 207 l 1
 400 202 414.667 200 428 200 c 0xfdc0
462 424 m 1
 439 434.999 l 1
 419 429.666 401.333 418.333 386 401 c 0
 368 379.667 359 350 359 313 c 2
 359 -215 l 1xfec0
 388 -215 l 1xfdc0
 388 315 l 2xfec0
 388 352 392 393 462 424 c 1
523 50.999 m 1
 523.001 82.999 l 1
 480.001 49.999 410.001 22.999 297.001 22.999 c 0
 161.001 22.999 113.001 87.999 113.001 163.999 c 0
 113.001 199.999 130.001 286.999 252.001 286.999 c 2
 347.001 286.999 l 1
 347.016 288.002 347.023 289.002 347.023 289.999 c 0
 347.023 381.999 295 432.999 211 432.999 c 0
 154 432.999 106 409.999 106 368.999 c 0
 106 344.659 125 330.999 147 330.999 c 0
 172 330.999 183 346.999 188 357.999 c 0
 196.043 375.693 205 392.999 241 392.999 c 0
 287 392.999 314.513 352.872 316 308.999 c 1
 202 308.999 l 2
 94 308.999 33 247.999 33 159.999 c 0
 33 61.999 118 -4.00098 282 -4.00098 c 0
 386 -4.00098 472 16.999 523 50.999 c 1
EndSplineSet
EndChar

StartChar: si_Aa
Encoding: 3462 3462 4
Width: 850
GlyphClass: 2
Flags: MW
HStem: -4 27 -1 37.4004 200 29<421.333 425.585 407.333 453.66> 287 22 365.6 37.4004 393 40
VStem: 33 80 316 31.023 359 29<-215 313 -215 315> 384 4<207 235 207 207> 421.451 23.549 464 62<268 299> 557 27<92.9302 113.803 288.197 309.07> 739 66<145.77 256.23>
LayerCount: 2
Fore
SplineSet
739 201 m 0x7b3c
 739 90.54 712 36.4004 653 36.4004 c 0
 611.871 36.4004 584 68.6904 584 117.17 c 0
 584 122.557 584.333 127.606 585 132.32 c 1
 558 132.32 l 1
 557.333 124.914 557 117.507 557 110.1 c 0
 557 41.2715 600.588 -1 668 -1 c 0
 759 -1 805 72.7305 805 201 c 0
 805 329.27 759 403 668 403 c 0
 600.588 403 557 360.729 557 291.9 c 0
 557 284.494 557.333 277.086 558 269.68 c 1
 585 269.68 l 1
 584.333 274.394 584 279.443 584 284.83 c 0
 584 333.31 611.871 365.6 653 365.6 c 0
 712 365.6 739 311.46 739 201 c 0x7b3c
428 200 m 0
 479.32 200 526 228.797 526 281 c 0
 526 354 445 369 445 403 c 0
 445 414 450 418 457 422 c 1
 438 418 l 1
 422 404 l 1
 421.682 401.932 421.451 399.935 421.451 398 c 0
 421.451 371 437.326 361.9 448 345 c 0
 460 326 464 311 464 287 c 0
 464 249 440.17 229 411 229 c 0
 403.667 229 393 230 384 235 c 1
 384 207 l 1x3b7c
 400 202 414.667 200 428 200 c 0
462 424 m 1
 439 434.999 l 1
 419 429.666 401.333 418.333 386 401 c 0
 368 379.667 359 350 359 313 c 2
 359 -215 l 1x33bc
 388 -215 l 1x337c
 388 315 l 2x33bc
 388 352 392 393 462 424 c 1
523 50.999 m 1
 523.001 82.999 l 1
 480.001 49.999 410.001 22.999 297.001 22.999 c 0
 161.001 22.999 113.001 87.999 113.001 163.999 c 0
 113.001 199.999 130.001 286.999 252.001 286.999 c 2
 347.001 286.999 l 1
 347.016 288.002 347.023 289.002 347.023 289.999 c 0
 347.023 381.999 295 432.999 211 432.999 c 0
 154 432.999 106 409.999 106 368.999 c 0
 106 344.659 125 330.999 147 330.999 c 0
 172 330.999 183 346.999 188 357.999 c 0
 196.043 375.693 205 392.999 241 392.999 c 0
 287 392.999 314.513 352.872 316 308.999 c 1
 202 308.999 l 2
 94 308.999 33 247.999 33 159.999 c 0
 33 61.999 118 -4.00098 282 -4.00098 c 0xb73c
 386 -4.00098 472 16.999 523 50.999 c 1
EndSplineSet
EndChar

StartChar: si_Ae
Encoding: 3463 3463 5
Width: 878
GlyphClass: 2
Flags: MW
HStem: -147 54<708.5 814.333> -4 27 200 29<421.333 425.585 407.333 453.66> 287 22 313 26<547 755 547 793> 393 40
VStem: 33 80 316 31.023 359 29<-215 313 -215 315> 384 4<207 235 207 207> 421.451 23.549 464 62<268 299> 628 69<-2 73.5>
LayerCount: 2
Fore
SplineSet
547 339 m 1xff38
 793 339 l 1
 792.333 337 791.333 331.667 790 323 c 1
 722 223 697 129 697 50 c 0
 697 -54 750 -93 808 -93 c 0
 820.667 -93 833.333 -91.333 846 -88 c 1
 850 -106 l 1
 822.667 -136.667 792 -147 751 -147 c 0
 666 -147 628 -73 628 14 c 0
 628 133 702 254 755 313 c 1
 547 313 l 1
 547 339 l 1xff38
428 200 m 0
 479.32 200 526 228.797 526 281 c 0
 526 354 445 369 445 403 c 0
 445 414 450 418 457 422 c 1
 438 418 l 1
 422 404 l 1
 421.682 401.932 421.451 399.935 421.451 398 c 0
 421.451 371 437.326 361.9 448 345 c 0
 460 326 464 311 464 287 c 0
 464 249 440.17 229 411 229 c 0
 403.667 229 393 230 384 235 c 1
 384 207 l 1xff78
 400 202 414.667 200 428 200 c 0
462 424 m 1
 439 434.999 l 1
 419 429.666 401.333 418.333 386 401 c 0
 368 379.667 359 350 359 313 c 2
 359 -215 l 1xffb8
 388 -215 l 1xff78
 388 315 l 2xffb8
 388 352 392 393 462 424 c 1
523 50.999 m 1
 523.001 82.999 l 1
 480.001 49.999 410.001 22.999 297.001 22.999 c 0
 161.001 22.999 113.001 87.999 113.001 163.999 c 0
 113.001 199.999 130.001 286.999 252.001 286.999 c 2
 347.001 286.999 l 1
 347.016 288.002 347.023 289.002 347.023 289.999 c 0
 347.023 381.999 295 432.999 211 432.999 c 0
 154 432.999 106 409.999 106 368.999 c 0
 106 344.659 125 330.999 147 330.999 c 0
 172 330.999 183 346.999 188 357.999 c 0
 196.043 375.693 205 392.999 241 392.999 c 0
 287 392.999 314.513 352.872 316 308.999 c 1
 202 308.999 l 2
 94 308.999 33 247.999 33 159.999 c 0
 33 61.999 118 -4.00098 282 -4.00098 c 0
 386 -4.00098 472 16.999 523 50.999 c 1
EndSplineSet
EndChar

StartChar: si_Aae
Encoding: 3464 3464 6
Width: 878
GlyphClass: 2
Flags: MW
HStem: -148 42<724.704 847> -4 27 200 29<421.333 425.585 407.333 453.66> 287 22 315 24<545 746 545 790> 393 40
VStem: 33 80 316 31.023 359 29<-215 313 -215 315> 384 4<207 235 207 207> 421.451 23.549 464 62<268 299> 631 69<-30.5 33>
LayerCount: 2
Fore
SplineSet
545 339 m 1xff38
 790 339 l 1
 790 317 l 1
 663 223 l 1
 813 223 l 1
 813 201 l 1
 767 168 700 96 700 13 c 0
 700 -74 758.188 -106 847 -106 c 1
 847 -131 l 1
 821.667 -142.333 795.333 -148 770 -148 c 0
 679.408 -148 631 -91.2393 631 -12 c 0
 631 78 710.631 155.42 776 199 c 1
 613 199 l 1
 613 218 l 1
 746 315 l 1
 545 315 l 1
 545 339 l 1xff38
428 200 m 0
 479.32 200 526 228.797 526 281 c 0
 526 354 445 369 445 403 c 0
 445 414 450 418 457 422 c 1
 438 418 l 1
 422 404 l 1
 421.682 401.932 421.451 399.935 421.451 398 c 0
 421.451 371 437.326 361.9 448 345 c 0
 460 326 464 311 464 287 c 0
 464 249 440.17 229 411 229 c 0
 403.667 229 393 230 384 235 c 1
 384 207 l 1xff78
 400 202 414.667 200 428 200 c 0
462 424 m 1
 439 434.999 l 1
 419 429.666 401.333 418.333 386 401 c 0
 368 379.667 359 350 359 313 c 2
 359 -215 l 1xffb8
 388 -215 l 1xff78
 388 315 l 2xffb8
 388 352 392 393 462 424 c 1
523 50.999 m 1
 523.001 82.999 l 1
 480.001 49.999 410.001 22.999 297.001 22.999 c 0
 161.001 22.999 113.001 87.999 113.001 163.999 c 0
 113.001 199.999 130.001 286.999 252.001 286.999 c 2
 347.001 286.999 l 1
 347.016 288.002 347.023 289.002 347.023 289.999 c 0
 347.023 381.999 295 432.999 211 432.999 c 0
 154 432.999 106 409.999 106 368.999 c 0
 106 344.659 125 330.999 147 330.999 c 0
 172 330.999 183 346.999 188 357.999 c 0
 196.043 375.693 205 392.999 241 392.999 c 0
 287 392.999 314.513 352.872 316 308.999 c 1
 202 308.999 l 2
 94 308.999 33 247.999 33 159.999 c 0
 33 61.999 118 -4.00098 282 -4.00098 c 0
 386 -4.00098 472 16.999 523 50.999 c 1
EndSplineSet
EndChar

StartChar: si_I
Encoding: 3465 3465 7
Width: 593
GlyphClass: 2
Flags: MW
HStem: -160.272 22.8648 -14.6465 28.0713 54 26.9805 104.979 27.0361 231.985 27.6982 357.365 74.8647
VStem: 32.7693 40.651 172.568 62.4322 208 28.9951 339.005 36.9951 375.053 63.9665 506 38.0727
LayerCount: 2
Fore
SplineSet
273.107 13.4248 m 0xff30
 289.882 13.4248 306.877 11.3086 324.405 11.3086 c 0
 423.442 11.3086 505.997 72.2432 505.997 179 c 0
 505.997 292.451 404.846 357.365 285.136 357.365 c 0
 174.759 357.365 73.418 308.982 73.418 204.135 c 0
 73.418 133.53 136.392 80.9805 222.571 80.9805 c 0
 275.998 80.9805 316.998 96 332.998 120 c 1
 317.998 108 299.452 104.979 285.062 104.979 c 0
 243.998 104.979 207.998 138.57 207.998 179 c 0
 207.998 225.264 241.998 259.684 286.354 259.684 c 0
 343.783 259.684 375.998 221.615 375.998 170 c 0xfed0
 375.998 90 309.998 54 219.998 54 c 0
 112.998 54 32.7676 116.843 32.7676 220.979 c 0
 32.7676 356.9 147.998 432.23 284.185 432.23 c 0
 435.998 432.23 544.07 353.23 544.07 198.29 c 0
 544.07 92.3994 472.803 9.90527 383.998 -6 c 1
 417.358 -12.0654 439.018 -35.5645 439.018 -74.6172 c 0
 439.018 -134.438 364.214 -160.272 298.361 -160.272 c 0
 236.04 -160.272 172.566 -139.056 172.566 -75.6592 c 0
 172.566 -50.1904 190.396 -38.457 206.999 -38.457 c 0
 221.999 -38.457 234.999 -47.7725 234.999 -65 c 0
 234.999 -70.5479 231.33 -81.8984 231.33 -94 c 0
 231.33 -114 242.21 -137.407 300.488 -137.407 c 0
 339.383 -137.407 375.053 -120.937 375.053 -83.3779 c 0
 375.053 -40.6172 334.405 -14.6465 267.469 -14.6465 c 0
 258.714 -14.6465 258.544 -15.0908 249 -16 c 1
 249 12 l 1
 260.679 12.9736 262.404 13.4248 273.107 13.4248 c 0xff30
287.997 231.986 m 0
 259.852 231.986 236.992 209.191 236.992 182.001 c 0
 236.992 153.791 260.794 132.016 287.997 132.016 c 0
 316.143 132.016 339.002 154.811 339.002 182.001 c 0
 339.002 210.211 315.2 231.986 287.997 231.986 c 0
EndSplineSet
EndChar

StartChar: si_Ii
Encoding: 3466 3466 8
Width: 528
GlyphClass: 2
Flags: MW
HStem: 0 73 403.653 26.6934 414 23 473.653 26.6934 506.341 26.0059 576.341 26.0059
VStem: 31 35 118.307 26.3496 220.65 26.3496 383.307 26.3496 430 52 485.65 26.3496
LayerCount: 2
Fore
SplineSet
409.656 468.344 m 0xdff0
 409.656 447.361 426.671 430.347 447.653 430.347 c 0
 468.636 430.347 485.65 447.361 485.65 468.344 c 0
 485.65 489.326 468.636 506.341 447.653 506.341 c 0
 426.671 506.341 409.656 489.326 409.656 468.344 c 0xdff0
383.307 468 m 0
 383.307 503.534 412.119 532.347 447.653 532.347 c 0
 483.188 532.347 512 503.534 512 468 c 0
 512 432.466 483.188 403.653 447.653 403.653 c 0
 412.119 403.653 383.307 432.466 383.307 468 c 0
144.656 538.344 m 0
 144.656 517.361 161.671 500.347 182.653 500.347 c 0
 203.636 500.347 220.65 517.361 220.65 538.344 c 0
 220.65 559.326 203.636 576.341 182.653 576.341 c 0
 161.671 576.341 144.656 559.326 144.656 538.344 c 0
118.307 538 m 0
 118.307 573.534 147.119 602.347 182.653 602.347 c 0
 218.188 602.347 247 573.534 247 538 c 0
 247 502.466 218.188 473.653 182.653 473.653 c 0
 147.119 473.653 118.307 502.466 118.307 538 c 0
170 422 m 1
 223.263 449.697 250.106 465.264 308.001 516.999 c 0
 355.001 558.999 374.001 622.999 409.001 622.999 c 0
 425.001 622.999 432.001 616.332 432.001 604.999 c 0
 432.001 584.999 408.668 555.666 360.001 514.999 c 0
 327.334 487.666 289.667 461.333 247 436 c 1
 252 437 253.263 437 262 437 c 0xbff0
 333 437 388 413 429.5 366.5 c 0
 465.351 326.33 482 281.004 482 225 c 0
 482 102 383.523 0 248 0 c 0
 123.954 0 31 89.1826 31 213 c 0
 31 322.522 95.4629 380.154 170 422 c 1
66.001 236.998 m 0
 66.001 143.669 131.982 72.998 240.001 72.998 c 0
 345.001 72.998 430.001 148.998 430.001 253.998 c 0
 430.001 355.998 355.596 413.998 264.001 413.998 c 0
 166.782 413.998 66.001 339.357 66.001 236.998 c 0
EndSplineSet
EndChar

StartChar: si_U
Encoding: 3467 3467 9
Width: 651
GlyphClass: 2
Flags: MW
HStem: -161 33<278.5 404> 271 25<298 507> 390 41.5<394.151 422.436 344.5 434.376>
VStem: 32 77<40 154.5> 574 29<14.5 69>
LayerCount: 2
Fore
SplineSet
539 271 m 1
 539.049 272.675 539.075 274.342 539.075 276 c 0
 539.075 370 468.872 431.5 376 431.5 c 0
 313 431.5 267 410 267 365 c 0
 267 345.183 283 328 305 328 c 0
 330 328 339.454 342.05 347 354.5 c 0
 360.699 377.104 380.302 390 408 390 c 0
 460.753 390 504 346 507 296 c 1
 264 296 l 2
 121 296 32 210 32 99 c 0
 32 -62 177 -161 328 -161 c 0
 480 -161 603 -64 603 69 c 1
 574 69 l 1
 574 -40 468 -128 341 -128 c 0
 216 -128 109 -30 109 110 c 0
 109 203.639 174 271 298 271 c 2
 539 271 l 1
EndSplineSet
EndChar

StartChar: si_Uu
Encoding: 3468 3468 10
Width: 991
GlyphClass: 2
Flags: MW
HStem: -161 33<278.5 404> -1 28<764.692 820.5 764.692 847.5> 213 26<661.19 701 661.19 710.247> 271 25<298 507> 390 41.5<394.151 422.436 344.5 434.376> 408 25<781 822>
VStem: 32 77<40 154.5> 574 29<14.5 69> 583 29<300.145 346.333> 684 27<99.0088 127> 715.139 27.7227 736 43 873 70
LayerCount: 2
Fore
SplineSet
655 429 m 1xf6d8
 620 429 l 1
 599 405 583 370.667 583 322 c 0
 583 262.448 622 213 685 213 c 0
 735.493 213 779 238.916 779 289 c 0xf6d8
 779 313 767 331.333 743 344 c 1
 742.863 346.385 742.861 348.719 742.861 351 c 0
 742.861 390 764 408 798 408 c 0
 846 408 873 351.018 873 239 c 0
 873 101 850 27 791 27 c 0
 738.384 27 711 72.0176 711 126 c 0
 711 136.667 712 147.333 714 158 c 1
 688 158 l 1
 685.333 145.333 684 133 684 121 c 0
 684 54.9697 721 -1 795 -1 c 0
 900 -1 943 102 943 221 c 0
 943 316.587 912 433 809 433 c 0
 743.308 433 715.139 399 715.139 350 c 0xf668
 715.139 345.207 715.434 343.207 716 338 c 1
 729.333 324 736 308.333 736 291 c 0
 736 262.458 718 239 684 239 c 0
 638.38 239 612 277.29 612 323 c 0
 612 375.667 633 411 655 429 c 1xf6d8
539 271 m 1
 539.049 272.675 539.075 274.342 539.075 276 c 0
 539.075 370 468.872 431.5 376 431.5 c 0
 313 431.5 267 410 267 365 c 0
 267 345.183 283 328 305 328 c 0
 330 328 339.454 342.05 347 354.5 c 0
 360.699 377.104 380.302 390 408 390 c 0
 460.753 390 504 346 507 296 c 1
 264 296 l 2
 121 296 32 210 32 99 c 0
 32 -62 177 -161 328 -161 c 0
 480 -161 603 -64 603 69 c 1
 574 69 l 1xfb48
 574 -40 468 -128 341 -128 c 0
 216 -128 109 -30 109 110 c 0
 109 203.639 174 271 298 271 c 2
 539 271 l 1
EndSplineSet
EndChar

StartChar: si_vocalicR
Encoding: 3469 3469 11
Width: 894
GlyphClass: 2
Flags: MW
HStem: -1 29<696.41 730 696.41 732> -1 72<157 217> 17 26<780.923 781.667 775.13 790.667> 195 27<779.5 787> 291 25<177.5 215.5 163 226.5 416 442> 358 35<691.143 738.5> 395 36.5<173.5 211 139.5 212.5>
VStem: 31 38<145.588 207.5> 62 74.5 263 30.1465<310 313 313 332.5 294.361 335.5> 301 27<152 182> 520 39<340 362.5> 571 37<145 193.541 112 215> 617 30<85.8252 128.772 85.8252 129.667> 786 45 787.158 60.8425
LayerCount: 2
Fore
SplineSet
440 0 m 0x5f7c
 375.333 0 332 31 313 82 c 1
 292 30 251 -1 183 -1 c 0
 88 -1 31 76 31 154 c 0x5f7c
 31 261 117 316 209 316 c 0
 222 316 250 314 263 310 c 1
 263 313 l 2
 263 358 231 395 194 395 c 0
 153 395 142 371 136.5 355 c 0
 129.951 335.948 119.871 323 98 323 c 0
 82 323 62 333.368 62 359 c 0x5efc
 62 406 112 431.5 167 431.5 c 0
 255 431.5 293.146 369 293.146 296 c 0
 293.146 292.722 293 288 293 282 c 1
 278 285 241 291 212 291 c 0
 143 291 69 255 69 175 c 0
 69 116.177 122 71 192 71 c 0
 247.765 71 301 101.782 301 152 c 2
 301 182 l 1
 328 182 l 1
 328 152 l 2
 328 96.3262 389.229 71 451 71 c 0
 520 71 571 115 571 175 c 0
 571 255 508 291 432 291 c 0
 400 291 371 289 333 282 c 1
 332.814 285.706 332.717 287.374 332.717 291 c 0
 332.717 375 380.574 432 456 432 c 0
 510 432 559 408 559 350 c 0
 559 328.667 545 306 530 297 c 1
 577.333 273.667 608 221.082 608 166 c 0
 608 58 538 0 440 0 c 0x5f7c
362 310 m 1
 373 313 401 316 425 316 c 0
 459 316 483 313 505 306 c 1
 517 319 520 334 520 346 c 0
 520 379 486.478 393 450 393 c 0
 398 393 366.667 364.667 362 310 c 1
642 242 m 1
 617 242 l 1
 616.918 244.678 616.882 246.345 616.882 249 c 0
 616.882 329 653.009 393 727 393 c 0
 813.896 393 848 298 848 203 c 0x9e7d
 848 144 831 52.4365 831 23 c 0
 831 15.667 831.333 9 832 3 c 1
 802 3 l 1
 799.333 12.333 794.333 17 787 17 c 0x3e7e
 774.847 17 749 -1 715 -1 c 0x9e7e
 656 -1 617 49.2598 617 106 c 0
 617 153.333 639 186.333 683 205 c 0
 709 216.333 750 222 787 222 c 1
 787 312 760 358 717 358 c 0
 665.285 358 641.953 308 641.953 246 c 0
 641.953 244.333 641.964 243.666 642 242 c 1
787 195 m 1
 772 195 736 194 707 185 c 0
 671.315 173.926 647 150.545 647 107 c 0
 647 64.6504 675.819 28 717 28 c 0x9e7d
 743 28 770.26 43 780 43 c 0
 783.333 43 786.333 42 789 40 c 1
 787 53.333 786 78.833 786 116.5 c 0x3e7e
 786 147.879 787.157 168 787.157 186 c 0
 787.157 188.996 787.111 192.663 787 195 c 1
EndSplineSet
EndChar

StartChar: si_vocalicRr
Encoding: 3470 3470 12
Width: 1140
GlyphClass: 2
Flags: MW
HStem: -1 29<696.41 730 696.41 732 942.41 976> -1 72<157 217> 17 26<780.923 781.667 775.13 790.667 1026.92 1027.67> 195 27<779.5 787 1025.5 1033> 291 25<177.5 215.5 163 226.5 416 442> 358 35<691.143 738.5 937.143 984.5> 395 36.5<173.5 211 139.5 212.5>
VStem: 31 38<145.588 207.5> 62 74.5 263 30.1465<310 313 313 332.5 294.361 335.5> 301 27<152 182> 520 39<340 362.5> 571 37<145 193.541 112 215> 617 30<85.8252 128.772 85.8252 129.667> 786 45 787.158 60.8425 863 30<85.8252 128.772 85.8252 129.667> 1032 45 1033.16 60.8428
LayerCount: 2
Fore
SplineSet
888 242 m 1x9e7cc0
 863 242 l 1
 862.918 244.678 862.882 246.345 862.882 249 c 0
 862.882 329 899.009 393 973 393 c 0
 1059.9 393 1094 298 1094 203 c 0x9e7ca0
 1094 144 1077 52.4365 1077 23 c 0
 1077 15.667 1077.33 9 1078 3 c 1
 1048 3 l 1
 1045.33 12.333 1040.33 17 1033 17 c 0x3e7cc0
 1020.85 17 995 -1 961 -1 c 0
 902 -1 863 49.2598 863 106 c 0
 863 153.333 885 186.333 929 205 c 0
 955 216.333 996 222 1033 222 c 1
 1033 312 1006 358 963 358 c 0
 911.285 358 887.953 308 887.953 246 c 0
 887.953 244.333 887.964 243.666 888 242 c 1x9e7cc0
1033 195 m 1
 1018 195 982 194 953 185 c 0
 917.315 173.926 893 150.545 893 107 c 0
 893 64.6504 921.819 28 963 28 c 0x9e7ca0
 989 28 1016.26 43 1026 43 c 0
 1029.33 43 1032.33 42 1035 40 c 1
 1033 53.333 1032 78.833 1032 116.5 c 0x3e7cc0
 1032 147.879 1033.16 168 1033.16 186 c 0
 1033.16 188.996 1033.11 192.663 1033 195 c 1
440 0 m 0
 375.333 0 332 31 313 82 c 1
 292 30 251 -1 183 -1 c 0
 88 -1 31 76 31 154 c 0x5f7c80
 31 261 117 316 209 316 c 0
 222 316 250 314 263 310 c 1
 263 313 l 2
 263 358 231 395 194 395 c 0
 153 395 142 371 136.5 355 c 0
 129.951 335.948 119.871 323 98 323 c 0
 82 323 62 333.368 62 359 c 0x5efc80
 62 406 112 431.5 167 431.5 c 0
 255 431.5 293.146 369 293.146 296 c 0
 293.146 292.722 293 288 293 282 c 1
 278 285 241 291 212 291 c 0
 143 291 69 255 69 175 c 0
 69 116.177 122 71 192 71 c 0
 247.765 71 301 101.782 301 152 c 2
 301 182 l 1
 328 182 l 1
 328 152 l 2
 328 96.3262 389.229 71 451 71 c 0x5f7c80
 520 71 571 115 571 175 c 0
 571 255 508 291 432 291 c 0
 400 291 371 289 333 282 c 1
 332.814 285.706 332.717 287.374 332.717 291 c 0
 332.717 375 380.574 432 456 432 c 0
 510 432 559 408 559 350 c 0
 559 328.667 545 306 530 297 c 1
 577.333 273.667 608 221.082 608 166 c 0
 608 58 538 0 440 0 c 0
362 310 m 1
 373 313 401 316 425 316 c 0
 459 316 483 313 505 306 c 1
 517 319 520 334 520 346 c 0
 520 379 486.478 393 450 393 c 0
 398 393 366.667 364.667 362 310 c 1
642 242 m 1
 617 242 l 1
 616.918 244.678 616.882 246.345 616.882 249 c 0
 616.882 329 653.009 393 727 393 c 0
 813.896 393 848 298 848 203 c 0x9e7d80
 848 144 831 52.4365 831 23 c 0
 831 15.667 831.333 9 832 3 c 1
 802 3 l 1
 799.333 12.333 794.333 17 787 17 c 0x3e7e80
 774.847 17 749 -1 715 -1 c 0x9e7e80
 656 -1 617 49.2598 617 106 c 0
 617 153.333 639 186.333 683 205 c 0
 709 216.333 750 222 787 222 c 1
 787 312 760 358 717 358 c 0
 665.285 358 641.953 308 641.953 246 c 0
 641.953 244.333 641.964 243.666 642 242 c 1
787 195 m 1
 772 195 736 194 707 185 c 0
 671.315 173.926 647 150.545 647 107 c 0
 647 64.6504 675.819 28 717 28 c 0x9e7d80
 743 28 770.26 43 780 43 c 0
 783.333 43 786.333 42 789 40 c 1
 787 53.333 786 78.833 786 116.5 c 0x3e7e80
 786 147.879 787.157 168 787.157 186 c 0
 787.157 188.996 787.111 192.663 787 195 c 1
EndSplineSet
EndChar

StartChar: si_E
Encoding: 3473 3473 15
Width: 595
GlyphClass: 2
Flags: MW
HStem: 0 71<234 355.5 234 367.5> 277 25<129 129 129 261 261 263 16 291 208.78 231 231 261 261 263 16 295> 359 36<361.5 402> 395 36.5<171.5 209 136 209.5>
VStem: 45 37<137 180.36> 64 74.5 263.086 32.0605 283 30<459.333 501.333 459.333 505> 513 32<207.5 280 181 295.333>
LayerCount: 2
Fore
SplineSet
513 267 m 0xda80
 513 323.667 496 376 471 412 c 1
 456.333 379.333 426 359 383 359 c 0
 319.845 359 283 414 283 480 c 0
 283 530 298 566 325 597 c 1
 386 564 456.965 492.242 493 430 c 0
 531.783 363.012 545 315 545 245 c 0
 545 117 459 0 276 0 c 0
 155 0 45 46 45 165 c 0xe980
 45 195.721 54.7754 227.831 78 248 c 0
 94.127 262.005 113 273 139 278 c 1
 172.761 290.199 213.875 302 251 302 c 2
 263 302 l 1
 263.082 304.041 263.086 306.041 263.086 308 c 0
 263.086 356 228 395 191 395 c 0
 152 395 143 374 138.5 356 c 0
 133.614 336.456 122.871 323 101 323 c 0
 85 323 64 333 64 360 c 0xd680
 64 403 107 431.5 165 431.5 c 0
 253 431.5 295.146 363 295.146 290 c 0
 295.146 286.722 295.101 280.388 295 277 c 1
 231 277 l 2
 186.56 277 147.117 264.814 122 249 c 0
 95 232 82 206.051 82 180 c 0
 82 94 189 71 279 71 c 0
 432 71 513 148 513 267 c 0xda80
129 277 m 1
 58 276 32 272.667 16 270 c 1
 16 302 l 1
 261 302 l 1
 291 277 l 1
 129 277 l 1
452 440 m 1
 422 486 372 532 334 560 c 1
 322 542 313 518.667 313 484 c 0
 313 434.667 333 395 390 395 c 0
 414 395 441.764 406.141 452 440 c 1
EndSplineSet
EndChar

StartChar: si_Ee
Encoding: 3474 3474 16
Width: 595
GlyphClass: 2
Flags: MW
HStem: 0 71<234 355.5 234 367.5> 277 25<129 129 129 255 255 257 16 285 208.78 231 231 255 255 257 16 289> 341 36<361.5 402 361.5 404.5> 389 36.5<174.5 212.5> 484 25<507.147 517 496.615 542.5>
VStem: 45 37<137 180.36> 257.086 32.0605 283 30<441.333 483.333 441.333 487> 441 28<447 492 515 648> 513 32<206.5 274 179 289.333> 555 41<540 586>
LayerCount: 2
Fore
SplineSet
469 648 m 1xfce0
 469 515 l 1
 475 512 491.229 509 502 509 c 0
 532 509 555 522 555 558 c 0
 555 614 490 631 469 648 c 1xfce0
441 447 m 1
 441 693 l 1
 497 646 596 650 596 557 c 0
 596 517 566 484 519 484 c 0
 495.294 484 478 489 469 492 c 1
 469 417 l 1
 441 447 l 1
513 261 m 0
 513 317.667 496 358 471 394 c 1
 456.333 361.333 426 341 383 341 c 0
 319.845 341 283 396 283 462 c 0xfde0
 283 512 298 548 325 579 c 1
 386 546 454.108 472.498 493 412 c 0
 529 356 545 309 545 239 c 0
 545 119 459 0 276 0 c 0
 155 0 45 46 45 165 c 0
 45 195.721 54.7754 227.831 78 248 c 0
 94.127 262.005 113 273 139 278 c 1
 172.761 290.199 207.875 302 245 302 c 2
 257 302 l 1
 257.082 304.041 257.086 306.041 257.086 308 c 0
 257.086 347 231 389 194 389 c 0
 155 389 144 365 138.5 349 c 0
 131.951 329.948 121.871 317 100 317 c 0
 84 317 64 327.368 64 353 c 0
 64 400 114 425.5 169 425.5 c 0
 257 425.5 289.146 352 289.146 290 c 0xfee0
 289.146 286.722 289.101 280.388 289 277 c 1
 231 277 l 2
 186.56 277 147.117 264.814 122 249 c 0
 95 232 82 206.051 82 180 c 0
 82 94 189 71 279 71 c 0
 432 71 513 152 513 261 c 0
129 277 m 1
 58 276 32 272.667 16 270 c 1
 16 302 l 1
 255 302 l 1
 285 277 l 1
 129 277 l 1
452 422 m 1
 422 468 372 514 334 542 c 1
 322 524 313 500.667 313 466 c 0
 313 416.667 333 377 390 377 c 0
 414 377 441.764 388.141 452 422 c 1
EndSplineSet
EndChar

StartChar: si_Ai
Encoding: 3475 3475 17
Width: 1178
GlyphClass: 2
Flags: MW
HStem: 0 71<216.143 313.5 216.143 340.5 819 940.5> 166 32.0752<276 306 276 313.5> 277 25<714 714 714 846 846 848 601 876 793.78 816 816 846 846 848 601 880> 291.925 30.0752 359 36<946.5 987> 395 36.5<759.5 797.5> 404 28<244.088 365.5>
VStem: 33 43<190 279.428> 203 33<232.249 257.751 232.249 265.794> 346 33<232.249 248 216 257.751> 455 36<146.958 216.456> 555 29<206 206> 630 37<137 180.36> 848.086 32.0605 868 30<459.333 501.333 459.333 505> 1098 32<207.5 280 181 295.333>
LayerCount: 2
Fore
SplineSet
1098 267 m 0xe5fd
 1098 323.667 1081 376 1056 412 c 1
 1041.33 379.333 1011 359 968 359 c 0
 904.845 359 868 414 868 480 c 0xe9fb
 868 530 883 566 910 597 c 1
 971 564 1041.96 492.242 1078 430 c 0
 1116.78 363.012 1130 315 1130 245 c 0
 1130 117 1044 0 861 0 c 0
 740 0 630 46 630 165 c 0
 630 195.721 639.775 227.831 663 248 c 0
 679.127 262.005 698 273 724 278 c 1
 757.761 290.199 798.875 302 836 302 c 2
 848 302 l 1
 848.082 304.041 848.086 306.041 848.086 308 c 0
 848.086 356 816 395 779 395 c 0xe5fd
 740 395 729 371 723.5 355 c 0
 716.951 335.948 706.871 323 685 323 c 0
 669 323 649 333.368 649 359 c 0xc9fd
 649 406 699 431.5 754 431.5 c 0
 842 431.5 880.146 363 880.146 290 c 0
 880.146 286.722 880.101 280.388 880 277 c 1
 816 277 l 2
 771.56 277 732.117 264.814 707 249 c 0
 680 232 667 206.051 667 180 c 0
 667 94 774 71 864 71 c 0
 1017 71 1098 148 1098 267 c 0xe5fd
714 277 m 1
 643 276 617 272.667 601 270 c 1
 601 302 l 1
 846 302 l 1
 876 277 l 1
 714 277 l 1
1037 440 m 1
 1007 486 957 532 919 560 c 1
 907 542 898 518.667 898 484 c 0
 898 434.667 918 395 975 395 c 0
 999 395 1026.76 406.141 1037 440 c 1
236 245 m 0
 236 219.497 261 198.075 291 198.075 c 0
 321 198.075 346 219.497 346 245 c 0
 346 270.503 321 291.925 291 291.925 c 0xd1f9
 261 291.925 236 270.503 236 245 c 0
584 206 m 1
 555 206 l 1
 537 324 430 404 301 404 c 0
 187.176 404 76 340 76 238 c 0
 76 142 163.286 71 269 71 c 0
 358 71 455 104.917 455 189 c 0
 455 243.911 408.952 277.676 360 287 c 1
 372.667 273 379 256 379 240 c 0
 379 192 335 166 292 166 c 0
 246 166 203 198 203 242 c 0
 203 289.588 248 322 304 322 c 0
 406 322 491 268 491 168 c 0
 491 68 412 0 269 0 c 0
 134 0 33 83.6289 33 212 c 0
 33 346.856 160.55 432 301 432 c 0xd3f9
 448.707 432 571.822 339.956 584 206 c 1
EndSplineSet
EndChar

StartChar: si_Os
Encoding: 3476 3476 18
Width: 636
GlyphClass: 2
Flags: MW
HStem: 0 70<157.5 221> 224 29<267.5 321.5 267.5 331.5> 289 27<308 334 308 338.328> 410 24<308 334> 555 23<248.5 378>
VStem: 30 31<201.833 278> 172 27<310.5 338.507 310.5 341.61> 245 29<350 376 350 381> 293 24<141 167> 389 29<303.5 326.5> 554 36<233.937 342.557 190.25 359.74>
LayerCount: 2
Fore
SplineSet
274 363 m 0
 274 337 295 316 321 316 c 0
 347 316 368 337 368 363 c 0
 368 389 347 410 321 410 c 0
 295 410 274 389 274 363 c 0
388 331 m 1
 382 318 358.656 289 318 289 c 0
 271.278 289 245 324.079 245 360 c 0
 245 402 277 434 322 434 c 0
 381 434 418 389 418 330 c 0
 418 268 367 224 296 224 c 0
 225.255 224 172 267 172 339 c 0
 172 344.22 172.275 362.935 172.275 372 c 0
 172.275 392 168.198 406 145 406 c 0
 94 406 61 327 61 254 c 0
 61 149.666 116 70 199 70 c 0
 273 70 293 107.667 293 141 c 2
 293 167 l 1
 317 167 l 1
 317 140 l 2
 317 95.748 356 71 410 71 c 0
 505.559 71 554 181.873 554 286 c 0
 554 433.479 458 555 298 555 c 0
 199 555 139 525 92 466 c 1
 62 466 l 1
 107 531 175 578 302 578 c 0
 486 578 590 431.114 590 254 c 0
 590 126.501 543 0 406 0 c 0
 365 0 321 16 305 55 c 1
 283 15 246 0 196 0 c 0
 78 0 30 127 30 224 c 0
 30 332 74 431.5 148 431.5 c 0
 167.007 431.5 173 428 180 423 c 0
 190.609 415.422 198.873 401 198.873 371 c 0
 198.873 357 199 340.015 199 337 c 0
 199 284 240 253 295 253 c 0
 348 253 389 281 389 326 c 0
 389 327 389 329 388 331 c 1
EndSplineSet
EndChar

StartChar: si_Oo
Encoding: 3477 3477 19
Width: 636
GlyphClass: 2
Flags: MW
HStem: 0 70<157.5 221> 224 29<267.5 321.5 267.5 331.5> 289 27<308 334 308 338.328> 410 24<308 334> 493.75 25.25<255.837 333 255.837 362.5> 590 39<248 342>
VStem: 30 31<201.833 278> 98 41<537 555 537 564.5> 126 37<503.5 520.5> 172 27<310.5 338.507 310.5 341.61> 245 29<350 376 350 381> 293 24<141 167> 389 29<303.5 326.5> 552.826 37.1739
LayerCount: 2
Fore
SplineSet
160 508 m 1xfefc
 193 514 232.675 519 279 519 c 0
 387 519 472 490 530 422 c 1
 497 537 400 590 284 590 c 0
 212 590 139 567 139 543 c 0xff7c
 139 531 163 526 163 515 c 0
 163 513 162 510 160 508 c 1xfefc
42 442 m 1
 42 473 l 1
 74 485 126 499 126 508 c 0xfefc
 126 520 98 524 98 546 c 0
 98 583 163 629 278 629 c 0
 486 629 560 490 572 356 c 1
 583 329 590 292 590 245 c 1
 552 250 l 1
 552.614 257.469 552.826 264.804 552.826 272 c 0
 552.826 410 443 493.75 282 493.75 c 0
 206 493.75 123 480 42 442 c 1
274 363 m 0
 274 337 295 316 321 316 c 0
 347 316 368 337 368 363 c 0
 368 389 347 410 321 410 c 0
 295 410 274 389 274 363 c 0
388 331 m 1
 382 318 358.656 289 318 289 c 0
 271.278 289 245 324.079 245 360 c 0
 245 402 277 434 322 434 c 0
 381 434 418 389 418 330 c 0
 418 268 367 224 296 224 c 0
 225.255 224 172 267 172 339 c 0
 172 344.22 172.275 362.935 172.275 372 c 0
 172.275 392 168.198 406 145 406 c 0
 94 406 61 327 61 254 c 0
 61 149.666 116 70 199 70 c 0
 273 70 293 107.667 293 141 c 2
 293 167 l 1
 317 167 l 1
 317 140 l 2
 317 95.748 356 71 410 71 c 0
 505.559 71 554 181.873 554 286 c 1
 570 274 576 264 590 254 c 1
 590 126.501 543 0 406 0 c 0
 365 0 321 16 305 55 c 1
 283 15 246 0 196 0 c 0
 78 0 30 127 30 224 c 0
 30 332 74 431.5 148 431.5 c 0
 167.007 431.5 173 428 180 423 c 0
 190.609 415.422 198.873 401 198.873 371 c 0
 198.873 357 199 340.015 199 337 c 0
 199 284 240 253 295 253 c 0
 348 253 389 281 389 326 c 0
 389 327 389 329 388 331 c 1
EndSplineSet
EndChar

StartChar: si_Au
Encoding: 3478 3478 20
Width: 1034
GlyphClass: 2
Flags: MW
HStem: -2 28<806.692 862.5 806.692 889.5> 0 70<157.5 221> 212 26<703.19 743 703.19 752.247> 224 29<267.5 321.5 267.5 331.5> 289 27<308 334 308 338.328> 406 25.5<119.5 156.599> 556 23<248.5 378>
VStem: 30 31<201.833 278> 172 27<310.5 338.507 310.5 341.61> 245 29<350 376 350 381> 293 24<141 167> 389 29<303.5 326.5> 554 36<233.937 342.557 190.25 359.74> 625 29<299.145 345.333> 726 27<98.0088 126> 757.139 27.7227 778 43 915 70
LayerCount: 2
Fore
SplineSet
697 428 m 1xaffec0
 662 428 l 1
 641 404 625 369.667 625 321 c 0
 625 261.448 664 212 727 212 c 0
 777.493 212 821 237.916 821 288 c 0xaffec0
 821 312 809 330.333 785 343 c 1
 784.863 345.385 784.861 347.719 784.861 350 c 0
 784.861 389 806 407 840 407 c 0
 888 407 915 350.018 915 238 c 0
 915 100 892 26 833 26 c 0
 780.384 26 753 71.0176 753 125 c 0
 753 135.667 754 146.333 756 157 c 1
 730 157 l 1
 727.333 144.333 726 132 726 120 c 0
 726 53.9697 763 -2 837 -2 c 0
 942 -2 985 101 985 220 c 0
 985 315.587 954 432 851 432 c 0
 785.308 432 757.139 398 757.139 349 c 0xafff40
 757.139 344.207 757.434 342.207 758 337 c 1
 771.333 323 778 307.333 778 290 c 0
 778 261.458 760 238 726 238 c 0
 680.38 238 654 276.29 654 322 c 0
 654 374.667 675 410 697 428 c 1xaffec0
274 363 m 0
 274 337 295 316 321 316 c 0
 347 316 368 337 368 363 c 0
 368 389 347 410 321 410 c 0
 295 410 274 389 274 363 c 0
388 331 m 1
 382 318 358.656 289 318 289 c 0
 271.278 289 245 324.079 245 360 c 0
 245 402 277 434 322 434 c 0
 381 434 418 389 418 330 c 0
 418 268 367 224 296 224 c 0
 225.255 224 172 267 172 339 c 0
 172 344.22 172.275 362.935 172.275 372 c 0
 172.275 392 168.198 406 145 406 c 0
 94 406 61 327 61 254 c 0
 61 149.666 116 70 199 70 c 0
 273 70 293 107.667 293 141 c 2
 293 167 l 1
 317 167 l 1
 317 140 l 2
 317 95.748 356 71 410 71 c 0
 505.559 71 554 181.873 554 286 c 0
 554 433.479 458 556 298 556 c 0
 199 556 140 525 93 466 c 1
 62 466 l 1
 107 531 173 579 300 579 c 0
 488 579 590 431.114 590 254 c 0
 590 126.501 543 0 406 0 c 0
 365 0 321 16 305 55 c 1
 283 15 246 0 196 0 c 0
 78 0 30 127 30 224 c 0
 30 332 74 431.5 148 431.5 c 0
 167.007 431.5 173 428 180 423 c 0
 190.609 415.422 198.873 401 198.873 371 c 0
 198.873 357 199 340.015 199 337 c 0
 199 284 240 253 295 253 c 0x5ffe40
 348 253 389 281 389 326 c 0
 389 327 389 329 388 331 c 1
EndSplineSet
EndChar

StartChar: si_Ka
Encoding: 3482 3482 21
Width: 746
GlyphClass: 2
Flags: MW
HStem: -1 27<548 582 545 607.5> -1 72<170.5 224.591 170.5 225.011 374 423.044> 73 27<85.6665 103.5 85.6665 103.5> 291 25<288.333 349.439> 368 66<409.5 467.171> 392 41<151 160.856 107.682 170.704>
VStem: 21 26<11 22> 29 77 193 27.0791<353.734 363> 281 26<162 163 129.463 163> 474 41<141 188.5 96.9238 200.5> 649 52<151 219>
LayerCount: 2
Fore
SplineSet
106 323 m 0x75f0
 99 305 84 297 69 297 c 0
 35 297 29 328 29 340 c 0
 29 394.099 79.3633 433 136 433 c 0x75f0
 185.712 433 220.079 402 220.079 356 c 0
 220.079 351.468 219.724 345.795 219 341 c 1
 281 401 366 434 453 434 c 0
 603 434 701 328 701 192 c 0
 701 110 659 -1 556 -1 c 0
 540 -1 518 2 506 11 c 1
 506 38 l 1
 516 31 533 26 557 26 c 0xb9f0
 607 26 649 80 649 153 c 0
 649 285 534.342 368 400 368 c 0
 326.667 368 266 348 219 308 c 1
 243 314 274.667 316 302 316 c 0
 422 316 515 251 515 126 c 0
 515 67.8477 482 -1 397 -1 c 0
 351 -1 317.333 20.333 296 63 c 1
 278.667 21.667 246.021 -1 204 -1 c 0
 117 -1 120 73 87 73 c 0
 64.6748 73 50 51 47 11 c 1
 21 22 l 1x7af0
 28.6963 91.2695 74.4521 184.165 109 232 c 0
 135 268 150 282 168 301 c 0
 180 314 193 330 193 352 c 0
 193 374 183.408 392 158 392 c 0
 144 392 122.479 384.287 116 363 c 0
 109 340 112.653 340.109 106 323 c 0x75f0
182 273 m 1
 164.667 258.333 145 234.667 129 212 c 0
 100.333 171.333 80.667 131.667 70 95 c 1
 76 98.333 82.333 100 89 100 c 0
 118 100 142 71 199 71 c 0
 250.183 71 281 101.864 281 162 c 2
 281 163 l 1
 307 163 l 1
 307 162 l 2
 307 96.9268 334 71 392 71 c 0
 454.089 71 474 123 474 159 c 0
 474 242 400.879 291 298 291 c 0
 241.333 291 203 282 182 273 c 1
EndSplineSet
EndChar

StartChar: si_Kha
Encoding: 3483 3483 22
Width: 630
GlyphClass: 2
Flags: MW
HStem: -1 29.7402 0 67<412 467 412 470> 54 62<314.5 369.5> 115.26 29.7402 320 76<195.934 282> 576 25<249.5 369.5>
VStem: 32 31<150 214 150 252.5> 179.26 30.7402 367 46<229.5 259> 546 38<249.5 379.5 218 384>
LayerCount: 2
Fore
SplineSet
92.7402 72 m 0x9fc0
 92.7402 48.3096 112.31 28.7402 136 28.7402 c 0
 159.69 28.7402 179.26 48.3096 179.26 72 c 0
 179.26 95.6904 159.69 115.26 136 115.26 c 0
 112.31 115.26 92.7402 95.6904 92.7402 72 c 0x9fc0
72 101 m 1
 80 129 108 145 135 145 c 0x1fc0
 180.809 145 210 116 210 72 c 0
 210 37 180 -1 141 -1 c 0
 56 -1 32 108 32 183 c 0
 32 322 123.839 396 240 396 c 0
 333 396 413 343.145 413 258 c 0
 413 201 385 153 346 115 c 1
 349.333 115.667 352.333 116 355 116 c 0xafc0
 384 116 390 67 434 67 c 0
 500 67 546 198 546 301 c 0
 546 467 445 576 294 576 c 0
 205 576 139 542.667 97 470 c 1
 64 470 l 1
 108.667 553.333 186 601 298 601 c 0
 464 601 584 473 584 286 c 0
 584 150 524 0 416 0 c 0x4fc0
 352 0 348 54 321 54 c 0x2fc0
 308 54 282 34 240 -21 c 1
 204 -18 l 1
 217.333 -4.66699 246.086 34.0254 288 84 c 0
 340 146 367 194 367 232 c 0
 367 286 328 320 236 320 c 0
 155.868 320 63 272 63 156 c 0
 63 144 66 118 72 101 c 1
EndSplineSet
EndChar

StartChar: si_Ga
Encoding: 3484 3484 23
Width: 636
GlyphClass: 2
Flags: MW
HStem: -2 73<161.655 235.5 161.655 251.5> -1 25<364 415.5 358 434.526> 217 24<266.667 282.727> 371 60.5<354.675 438.5> 408.45 23.0498
VStem: 34 35<188.5 268.5> 216 25<192 193.667> 318 34<128.321 169 96 177> 543 43<156 250.5>
LayerCount: 2
Fore
SplineSet
233 408 m 1xaf80
 233 431 l 1
 228.954 431.25 223.953 431.5 220 431.5 c 0
 109 431.5 34 330 34 207 c 0
 34 96 97 -2 208 -2 c 0xaf80
 295 -2 352 56 352 136 c 0
 352 202 318 241 270 241 c 0
 263.333 241 255 240 247 236 c 1
 263 313 316.35 371 393 371 c 0
 484 371 543 301 543 200 c 0
 543 100 469 24 362 24 c 0
 354 24 346 25 338 26 c 1
 338 1 l 1
 348.667 -0.333008 359 -1 369 -1 c 0
 500.053 -1 586 95 586 217 c 0
 586 332 522 431.5 410 431.5 c 0x7780
 288 431.5 226.196 316.901 216 192 c 1
 241 192 l 1
 241 195.333 242 204 243 210 c 1
 250 215 259.667 217 267 217 c 0
 298.453 217 318 196 318 158 c 0
 318 98.6416 265 71 206 71 c 0
 117.31 71 69 147 69 230 c 0
 69 332 136 408.45 222 408.45 c 0
 225.311 408.45 229.645 408.284 233 408 c 1xaf80
EndSplineSet
EndChar

StartChar: si_Gha
Encoding: 3485 3485 24
Width: 677
GlyphClass: 2
Flags: MW
HStem: -1 72<177 208.333> 171 29<319 348.5 313.5 349.72> 283 25<147 147 147 279 279 281 5 309 189.5 216 216 279 279 281 5 313> 291 25<432 462 432 494.5> 393 39<444 488.239>
VStem: 51 38<145.588 190> 242 30<102 129.5 88.5 143> 281.086 32.0605 391 29<104.5 125> 540 39<340 362.5> 593 35<145.5 193.541 112 213>
LayerCount: 2
Fore
SplineSet
216 283 m 2xefe0
 163 283 89 248 89 175 c 0
 89 116.177 142 71 212 71 c 0
 228 71 241.667 72.667 245 76 c 1
 243 86 242 98 242 106 c 0
 242 180 295 200 332 200 c 0
 365 200 420 180 420 108 c 0
 420 101 419 87 417 79 c 1
 421.424 75.668 439.705 71 471 71 c 0
 540 71 593 113 593 178 c 0
 593 248 541 291 448 291 c 0xdfe0
 412 291 386 289 353 282 c 1
 352.814 285.706 352.717 287.374 352.717 291 c 0
 352.717 375 400.574 432 476 432 c 0
 530 432 579 408 579 350 c 0
 579 328.667 565 306 550 297 c 1
 597.333 273.667 628 221.082 628 166 c 0
 628 58 555.929 0 464 0 c 0
 440 0 412.667 4 382 12 c 1
 379.333 17.333 378 23.333 378 30 c 0
 378 64 391 78 391 108 c 0
 391 142 367.44 171 332 171 c 0
 306 171 272 153 272 106 c 0
 272 71 281 69 281 35 c 0
 281 27.667 280 17 277 11 c 1
 246 2 217.667 -1 199 -1 c 0
 108.174 -1 51 76 51 154 c 0
 51 226 92 269 144 285 c 1
 177.761 297.199 231.875 308 269 308 c 2
 281 308 l 1
 281.082 310.041 281.086 310.041 281.086 312 c 0
 281.086 360 249 395 212 395 c 0
 173 395 162 371 156.5 355 c 0
 149.951 335.948 139.871 323 118 323 c 0
 102 323 82 333.368 82 359 c 0
 82 406 132 431.5 187 431.5 c 0
 275 431.5 313.146 369 313.146 296 c 0
 313.146 292.722 313.101 286.388 313 283 c 1
 216 283 l 2xefe0
147 283 m 1xefe0
 76 282 21 278.667 5 276 c 1
 5 308 l 1
 279 308 l 1
 309 283 l 1
 147 283 l 1xefe0
382 310 m 1
 395 314 419 316 445 316 c 0xdfe0
 479 316 510 312 525 306 c 1
 537 319 540 334 540 346 c 0
 540 379 506.478 393 470 393 c 0
 418 393 386.667 364.667 382 310 c 1
EndSplineSet
EndChar

StartChar: si_Nga
Encoding: 3486 3486 25
Width: 617
GlyphClass: 2
Flags: MW
HStem: 0 71<157.808 210.5> 230.5 27<156.396 197 143.892 202.5> 271.75 25.75<126.706 156.294 126.706 165.25> 411.212 22.7881 558 24<238.333 351.324>
VStem: 51 38<130.25 176.25> 60.5 27.4902 195.01 27.4902 284 27<144 177> 343.25 28.75<291.75 342.478 285.75 345.554> 535 35<221 352.5 187 360.5>
LayerCount: 2
Fore
SplineSet
87.9902 346.603 m 0xfbe0
 87.9902 319.533 111.912 297.5 141.5 297.5 c 0
 171.088 297.5 195.01 319.533 195.01 346.603 c 0
 195.01 373.672 171.088 395.705 141.5 395.705 c 0
 111.912 395.705 87.9902 373.672 87.9902 346.603 c 0xfbe0
51 140.25 m 0xfde0
 51 212.25 108.784 257.5 179 257.5 c 0
 215 257.5 244.5 250.75 279.5 250.75 c 0
 325.5 250.75 343.25 273.75 343.25 309.75 c 0
 343.25 381.358 266.83 411.212 213.75 411.212 c 0
 199.419 411.212 189.791 410.172 181.75 409 c 1
 200.75 399 222.5 379.755 222.5 345.25 c 0
 222.5 309.181 189.25 271.75 141.25 271.75 c 0
 100.253 271.75 60.5 302.728 60.5 345.75 c 0xfbe0
 60.5 401.989 119.234 434 207.5 434 c 0
 310.5 434 372 378.706 372 306.25 c 0
 372 265.25 347.614 223.5 280.25 223.5 c 0
 238.934 223.5 224 230.5 181 230.5 c 0
 131.792 230.5 89 204.25 89 156.25 c 0
 89 104.25 129.615 71 186 71 c 0
 235.067 71 284 96.1621 284 144 c 2
 284 177 l 1
 311 177 l 1
 311 144 l 2
 311 97.7842 361.836 70 412 70 c 0
 492 70 535 160 535 282 c 0
 535 439 424.647 558 278 558 c 0
 198.667 558 132 528 78 468 c 1
 46 468 l 1
 105.333 544 183.667 582 281 582 c 0
 440.949 582 570 445 570 260 c 0
 570 114 516 0 416 0 c 0
 354.286 0 329.343 21.3887 298 59 c 1
 267.333 20.333 233 0 188 0 c 0
 106.568 0 51 60.3535 51 140.25 c 0xfde0
EndSplineSet
EndChar

StartChar: si_Nnga
Encoding: 3487 3487 26
Width: 749
GlyphClass: 2
Flags: MW
HStem: -2 73<278.655 352.5 278.655 368.5> -1 25<481 532.5 475 551.526> 217 24<383.667 399.727> 371 60.5<471.675 555.5> 408.45 23.0498
VStem: 27 29<177.667 280 177.667 286.85> 151 35<188.5 268.5> 333 25<192 193.667> 435 34<128.321 169 96 177> 660 43<156 250.5>
LayerCount: 2
Fore
SplineSet
350 408 m 1xafc0
 346.645 408.284 342.311 408.45 339 408.45 c 0
 253 408.45 186 332 186 230 c 0
 186 147 234.31 71 323 71 c 0xafc0
 382 71 435 98.6416 435 158 c 0
 435 196 415.453 217 384 217 c 0
 376.667 217 367 215 360 210 c 1
 359 204 358 195.333 358 192 c 1
 333 192 l 1
 343.196 316.901 405 431.5 527 431.5 c 0
 639 431.5 703 332 703 217 c 0
 703 95 617.053 -1 486 -1 c 0
 476 -1 465.667 -0.333008 455 1 c 1
 455 26 l 1
 463 25 471 24 479 24 c 0
 586 24 660 100 660 200 c 0
 660 301 601 371 510 371 c 0x77c0
 433.35 371 380 313 364 236 c 1
 372 240 380.333 241 387 241 c 0
 435 241 469 202 469 136 c 0
 469 56 412 -2 325 -2 c 0
 214 -2 151 96 151 207 c 0
 151 330 226 431.5 337 431.5 c 0
 340.953 431.5 345.954 431.25 350 431 c 1
 350 408 l 1xafc0
337 431.5 m 1
 316 420.5 273 415 256 409 c 1
 120 409 56 342 56 218 c 0
 56 137.333 83 75.333 135 30 c 1
 135 0 l 1
 68.583 33.209 27 120.07 27 221 c 0
 27 352.7 99.7559 433 239 433 c 0
 248 433 311 433 337 431.5 c 1
EndSplineSet
EndChar

StartChar: si_Ca
Encoding: 3488 3488 27
Width: 597
GlyphClass: 2
Flags: MW
HStem: 0 71<253 374.5 253 386.5> 277 25<148 148 148 285 285 287 14 315 227.78 250 250 285 285 287 14 319> 395 36.5<193.5 232 160.5 234.5> 553 24<263.333 370.249>
VStem: 64 37<137 180.36> 83 74.5 287.086 32.0605 541 34<229 358.5 194 371>
LayerCount: 2
Fore
SplineSet
319 277 m 1xf7
 250 277 l 2
 205.56 277 166.117 264.814 141 249 c 0
 114 232 101 206.051 101 180 c 0
 101 94 208 71 298 71 c 0
 451 71 541 158 541 300 c 0
 541 442 437.498 553 303 553 c 0
 223.667 553 160.667 524.667 116 470 c 1
 84 470 l 1
 132.667 540 205 577 303 577 c 0
 463.151 577 575 443 575 274 c 0
 575 114 478 0 295 0 c 0
 174 0 64 46 64 165 c 0xfb
 64 195.721 73.7754 227.831 97 248 c 0
 113.127 262.005 132 273 158 278 c 1
 191.761 290.199 232.875 302 270 302 c 2
 287 302 l 1
 287.082 304.041 287.086 306.041 287.086 308 c 0
 287.086 362 253 395 216 395 c 0
 171 395 163 371 157.5 355 c 0
 150.951 335.948 140.871 323 119 323 c 0
 103 323 83 333.368 83 359 c 0
 83 406 133 431.5 188 431.5 c 0
 276 431.5 319.146 376 319.146 290 c 0
 319.146 286.722 319.101 280.388 319 277 c 1xf7
148 277 m 1
 77 276 30 272.667 14 270 c 1
 14 302 l 1
 285 302 l 1
 315 277 l 1
 148 277 l 1
EndSplineSet
EndChar

StartChar: si_Cha
Encoding: 3489 3489 28
Width: 598
GlyphClass: 2
Flags: MW
HStem: 0 71<240.615 345 240.615 360.843> 160 27<411.5 456.5 411.5 469.5> 290 22<169.5 217.055 152 233.5> 391 41<165.995 181.446 124.449 195.5> 410 25<380 433>
VStem: 33 37<141.5 209.5 141.5 209.601> 229 29<327.667 346.5> 279 27<321.5 356.5 321.5 360> 348.515 28.0029 504 28<269.5 336.5> 514 35<141.5 198 106.5 212.5>
LayerCount: 2
Fore
SplineSet
473 291 m 0xefc0
 516.536 270.96 549 228 549 168 c 0
 549 45 423.686 0 298 0 c 0
 160.148 0 33 44 33 170 c 0
 33 249.202 96 312 208 312 c 0
 226.11 312 219 312 227 311 c 1
 228.333 317.667 229 324.333 229 331 c 0
 229 362 214 391 177 391 c 0
 154.99 391 143.896 378.048 137 363 c 0
 126 339 118.029 322 91 322 c 0
 72 322 53 334.667 53 360 c 0
 53 408.774 100.898 432 148 432 c 0
 214.893 432 258 393.393 258 326 c 0
 258 314 256.667 301.333 254 288 c 1
 242 289 238 290 229 290 c 0
 110 290 70 233 70 186 c 0
 70 97 189.23 71 292 71 c 0
 398 71 514 97 514 186 c 0xf7a0
 514 239 470 289 355 289 c 0
 333 289 298 286 284 285 c 1
 282 292 279 308 279 319 c 0
 279 401 336 435 406 435 c 0
 478 435 532 392 532 297 c 0
 532 240 506 160 433 160 c 0
 373 160 348.515 223 348.515 293 c 0
 348.515 396.658 389.831 495.584 430 545.5 c 0
 462.835 586.302 505.045 617 541.75 617 c 0
 557.75 617 568 606 568 596 c 0
 568 555.894 519.951 589.361 451.75 516 c 0
 411.393 472.589 376.518 391 376.518 292 c 0
 376.518 245 388 187 435 187 c 0
 478 187 504 244 504 295 c 0
 504 378 464 410 402 410 c 0
 358 410 306 389 306 324 c 0
 306 319 306 314 307 310 c 1
 314 311 334 312.319 350 312.319 c 0
 388 312.319 433.868 309.014 473 291 c 0xefc0
EndSplineSet
EndChar

StartChar: si_Ja
Encoding: 3490 3490 29
Width: 598
GlyphClass: 2
Flags: MW
HStem: 0 71 289 22<344 454.5> 391 41<171.995 187.446 130.449 201.5> 407 27<384.5 437>
VStem: 33 37<141.5 209.5 141.5 209.6> 237 29<327.667 346.5> 293 30<330.332 353.998 330.332 370> 363 28<356.5 409 356.5 418.5> 489 31<341.758 371.496> 514 35<141.5 211.5>
LayerCount: 2
Fore
SplineSet
415 407 m 0xdf80
 344 407 323 373.998 323 333.998 c 0
 323 326.665 324 318.332 326 308.999 c 1
 334 309.999 343 310.999 356 310.999 c 0
 447 310.999 549 282.999 549 167.999 c 0
 549 44.999 423.686 -0.000976562 298 -0.000976562 c 0
 160.148 -0.000976562 33 43.999 33 169.999 c 0
 33 249.201 96 311.999 208 311.999 c 0
 226.11 311.999 227 311.999 235 310.999 c 1
 236.333 317.666 237 324.333 237 331 c 0
 237 362 220 391 183 391 c 0
 160.99 391 144.896 378.048 138 363 c 0
 127 339 118.029 322 91 322 c 0
 72 322 55 335.667 55 361 c 0
 55 409.774 106.898 432 154 432 c 0
 220.893 432 266 393.393 266 326 c 0
 266 314 264.667 301.333 262 288 c 1
 250 289 238 290 229 290 c 0
 110 290 70 233 70 186 c 0
 70 97 189.23 71 292 71 c 0
 398 71 514 97 514 186 c 0xef40
 514 237 470 289 355 289 c 0
 333 289 314 286 300 285 c 1
 295.333 301 293 316.333 293 331 c 0
 293 409 350 434 419 434 c 0
 460 434 520 412 520 353 c 0
 520 324.446 503 285 438 285 c 0
 384 285 363 332 363 375 c 0
 363 462 412.066 530.629 456 571 c 0
 493 605 524 617 544 617 c 0
 560 617 568 606 568 596 c 0
 568 569 498 561 449 511 c 0
 426.343 487.881 391 444 391 374 c 0
 391 339 407 311 440 311 c 0
 469 311 489 328.516 489 355 c 0
 489 387.991 459 407 415 407 c 0xdf80
EndSplineSet
EndChar

StartChar: si_Jha
Encoding: 3491 3491 30
Width: 1087
GlyphClass: 2
Flags: MW
HStem: -1 72<170.5 224.591 170.5 225.011 374 423.044> 73 27<85.6665 103.5 85.6665 103.5> 291 25<288.333 349.439> 392 41<151 160.856 107.682 170.704> 406 28<423 496> 556 24<703.667 817.454>
VStem: 21 26<11 22> 29 77 193 27.0791<353.734 363> 281 26<162 163 129.463 163> 474 43<173.779 200.5> 483 32<145.5 188.5 96.9238 241.5> 740 28<156 196> 1005 34<232.5 353.5 200 363>
LayerCount: 2
Fore
SplineSet
182 273 m 1xe4ec
 164.667 258.333 145 234.667 129 212 c 0
 100.333 171.333 80.667 131.667 70 95 c 1
 76 98.333 82.333 100 89 100 c 0
 118 100 142 71 199 71 c 0
 250.183 71 281 101.864 281 162 c 2
 281 163 l 1
 307 163 l 1
 307 162 l 2
 307 96.9268 334 71 392 71 c 0
 454.089 71 474 123 474 159 c 0
 474 242 400.879 291 298 291 c 0
 241.333 291 203 282 182 273 c 1xe4ec
671 398 m 1
 671 373 l 1
 667.651 373.289 664.316 373.437 661 373.437 c 0
 582 373.437 517 301 517 212 c 0xe4ec
 517 135.558 564.567 71 638 71 c 0
 688.911 71 740 92 740 156 c 2
 740 196 l 1
 768 196 l 1
 768 156 l 2
 768 92 817.83 71 867 71 c 0
 962.71 71 1005 181 1005 284 c 0
 1005 442 890.908 556 744 556 c 0
 663.333 556 599.667 527.333 547 468 c 1
 515 468 l 1
 571.667 542.667 649.667 580 749 580 c 0
 912 580 1039 446 1039 261 c 0
 1039 139 997.876 0 872 0 c 0
 822.667 0 783 19.667 753 59 c 1
 722.333 20.333 684.672 0 640 0 c 0
 538 0 483 96 483 195 c 0xe4dc
 483 288 536.248 363.669 602 387 c 0
 622.667 394.333 645.667 398 671 398 c 1
219 308 m 1
 243 314 274.667 316 302 316 c 0
 422 316 515 251 515 126 c 0
 515 67.8477 482 -1 397 -1 c 0
 351 -1 317.333 20.333 296 63 c 1
 278.667 21.667 246.021 -1 204 -1 c 0
 117 -1 120 73 87 73 c 0
 64.6748 73 50 51 47 11 c 1
 21 22 l 1xeedc
 28.6963 91.2695 74.4521 184.165 109 232 c 0
 135 268 150 282 168 301 c 0
 180 314 193 330 193 352 c 0
 193 374 183.408 392 158 392 c 0
 144 392 122.479 384.287 116 363 c 0
 109 340 112.653 340.109 106 323 c 0
 99 305 84 297 69 297 c 0
 35 297 29 328 29 340 c 0
 29 394.099 79.3633 433 136 433 c 0xf5cc
 185.712 433 220.079 402 220.079 356 c 0
 220.079 351.468 219.724 345.795 219 341 c 1
 279.982 397.272 371 434 475 434 c 0
 575 434 642 414 671 398 c 1
 614 390 l 1
 570 402 518 406 474 406 c 0xedec
 342 406 266.999 350.054 219 308 c 1
EndSplineSet
EndChar

StartChar: si_Nya
Encoding: 3492 3492 31
Width: 1024
GlyphClass: 2
Flags: MW
HStem: -238.5 28<981 981> -1.5 28<791.5 819.667> -1 72<295.5 349.591 295.5 350.011 499 548.044> 73 27<210.667 228.5 210.667 228.5> 291 25<413.333 474.439> 395.5 37<822.5 846.87 776.5 854> 407 26<548.5 634>
VStem: 27 29<177.667 268.634 177.667 286.85> 146 26<11 22> 154 77 318 27.0791<353.734 363> 406 26<162 163 129.463 163> 599 81<141 200.5> 603 37<118.5 188.5 96.9238 221> 821 57<-137.549 -123.167>
LayerCount: 2
Fore
SplineSet
307 273 m 1xb93a
 289.667 258.333 270 234.667 254 212 c 0
 225.333 171.333 205.667 131.667 195 95 c 1
 201 98.333 207.333 100 214 100 c 0
 243 100 267 71 324 71 c 0
 375.183 71 406 101.864 406 162 c 2
 406 163 l 1
 432 163 l 1
 432 162 l 2
 432 96.9268 459 71 517 71 c 0
 579.089 71 599 123 599 159 c 0
 599 242 525.879 291 423 291 c 0
 366.333 291 328 282 307 273 c 1xb93a
951 293.5 m 1
 814 293.5 l 2
 726 293.5 680 256.5 680 172.5 c 0xdd3a
 680 88.5 750 26.5 833 26.5 c 0
 879.077 26.5 916 45.5 956 91.5 c 1
 979 74.5 l 1
 948.46 38.8701 878 -28.5 878 -104.5 c 0
 878 -170.599 917.218 -195.617 981 -210.5 c 1
 981 -238.5 l 1
 967 -241.167 949 -242.5 927 -242.5 c 0
 856.434 -240.54 821 -199.519 821 -142.5 c 0
 821 -103.833 844.333 -53.167 891 9.5 c 1
 856 -0.5 833.333 -1.5 806 -1.5 c 0
 675 -1.5 603 68.5 603 168.5 c 0
 603 273.5 676 316.5 795 316.5 c 2
 915 316.5 l 1
 905.276 362.686 876 395.5 832 395.5 c 0
 813 395.5 797.049 383.411 788.5 365.5 c 0
 778 343.5 761.802 335.5 747 335.5 c 0
 722 335.5 709 350.5 709 371.5 c 0
 709 407.783 749 432.5 804 432.5 c 0xdd36
 889.739 432.5 932.904 388.503 951 293.5 c 1
344 308 m 1
 368 314 399.667 316 427 316 c 0
 547 316 640 251 640 126 c 0
 640 67.8477 607 -1 522 -1 c 0
 476 -1 442.333 20.333 421 63 c 1
 403.667 21.667 371.021 -1 329 -1 c 0
 242 -1 245 73 212 73 c 0
 189.675 73 175 51 172 11 c 1
 146 22 l 1xbbb6
 153.696 91.2695 199.452 184.165 234 232 c 0
 260 268 275 282 293 301 c 0
 305 314 318 330 318 352 c 0
 318 374 308.408 392 283 392 c 0
 269 392 247.479 384.287 241 363 c 0
 234 340 237.653 340.109 231 323 c 0
 224 305 209 297 194 297 c 0
 160 297 154 328 154 340 c 0
 154 394.099 204.363 431.75 261 431.75 c 0
 310.712 431.75 345.079 402 345.079 356 c 0
 345.079 351.468 344.724 345.795 344 341 c 1
 418.87 405.217 505 433 592 433 c 0
 682 433 711 419 734 412 c 1
 715 390 l 1
 705 392 673 407 595 407 c 0xbb72
 479 407 402.041 354.974 344 308 c 1
293 427 m 1
 272 416 194 406 177 400 c 1
 102 382 56 319.268 56 218 c 0
 56 137.333 83 75.333 135 30 c 1
 135 0 l 1
 68.583 33.209 27 120.07 27 221 c 0
 27 352.7 99.7559 433 239 433 c 0
 248 433 271 433 293 427 c 1
EndSplineSet
EndChar

StartChar: si_Jnya
Encoding: 3493 3493 32
Width: 842
GlyphClass: 2
Flags: MW
HStem: -238 28<799 799> -2 73<261.655 335.5 261.655 351.5> -1 28<609.5 637.667> 217 24<366.667 382.727> 294 23<613 632 632 733 613 769> 408.45 23.0498
VStem: 27 29<177.667 265.2 177.667 286.85> 134 35<188.5 268.5> 315 27<192 193.667> 418 80<131 177> 421 31<119 169 96 221.5> 639 57<-137.049 -122.667>
LayerCount: 2
Fore
SplineSet
769 294 m 1xbfb0
 632 294 l 2
 544 294 498 257 498 173 c 0xbfd0
 498 89 568 27 651 27 c 0
 697.077 27 734 46 774 92 c 1
 797 75 l 1
 766.46 39.3701 696 -28 696 -104 c 0
 696 -170.099 735.218 -195.117 799 -210 c 1
 799 -238 l 1
 785 -240.667 767 -242 745 -242 c 0
 674.434 -240.04 639 -199.019 639 -142 c 0
 639 -103.333 662.333 -52.667 709 10 c 1
 674 0 651.333 -1 624 -1 c 0
 493 -1 421 69 421 169 c 0
 421 274 494 317 613 317 c 2
 733 317 l 1
 723.276 363.186 694 396 650 396 c 0
 631 396 615.049 383.911 606.5 366 c 0
 596 344 579.802 336 565 336 c 0
 540 336 527 351 527 372 c 0
 527 408.283 567 433 622 433 c 0
 707.739 433 750.904 389.003 769 294 c 1xbfb0
569 422 m 1
 538 400 l 1
 529 402 518 403 506 403 c 0
 414 403 363 313 347 236 c 1
 355 240 363.333 241 370 241 c 0
 418 241 452 202 452 136 c 0
 452 56 395 -2 308 -2 c 0
 197 -2 134 96 134 207 c 0
 134 330 209 431.5 320 431.5 c 0
 323.953 431.5 328.954 431.25 333 431 c 1
 333 408 l 1
 329.645 408.284 325.311 408.45 322 408.45 c 0
 236 408.45 169 332 169 230 c 0
 169 147 217.31 71 306 71 c 0xdfb0
 365 71 418 98.6416 418 158 c 0
 418 196 398.453 217 367 217 c 0
 359.667 217 349 214 344 210 c 1
 343 204 342 195.333 342 192 c 1
 315 192 l 1
 322 314 388 431.5 510 431.5 c 0
 541 431.5 555 426 569 422 c 1
324 431.5 m 1
 320 431.5 231 406 231 406 c 1
 97 406 56 312.399 56 218 c 0
 56 137.333 83 75.333 135 30 c 1
 135 0 l 1
 68.583 33.209 27 120.07 27 221 c 0
 27 352.7 99.7559 433 239 433 c 0
 248 433 301 433 324 431.5 c 1
EndSplineSet
EndChar

StartChar: si_Ndja
Encoding: 3494 3494 33
Width: 699
GlyphClass: 2
Flags: MW
HStem: 0 71<341.615 446 341.615 461.843> 289 22<450.5 502.5 450.5 513.5> 391 41<272.995 288.446 231.449 302.5> 407 27<485.5 538>
VStem: 27 29<177.667 268.634 177.667 286.85> 134 37<141.5 209.5 141.5 209.601> 338 29<327.667 346.5> 394 30<330.333 354 330.333 370> 464 28<356.5 409 356.5 418.5> 590 31<341.758 371.496> 615 35<141.5 211.5>
LayerCount: 2
Fore
SplineSet
516 407 m 0xdfc0
 445 407 424 374 424 334 c 0
 424 326.667 425 318.333 427 309 c 1
 435 310 444 311 457 311 c 0
 548 311 650 283 650 168 c 0
 650 45 524.686 0 399 0 c 0
 261.148 0 134 44 134 170 c 0
 134 249.202 197 312 309 312 c 0
 327.11 312 328 312 336 311 c 1
 337.333 317.667 338 324.333 338 331 c 0
 338 362 321 391 284 391 c 0
 261.99 391 245.896 378.048 239 363 c 0
 228 339 219.029 322 192 322 c 0
 173 322 156 335.667 156 361 c 0
 156 409.774 207.898 432 255 432 c 0
 321.893 432 367 393.393 367 326 c 0
 367 314 365.667 301.333 363 288 c 1
 351 289 339 290 330 290 c 0
 211 290 171 233 171 186 c 0
 171 97 290.23 71 393 71 c 0
 499 71 615 97 615 186 c 0xefa0
 615 237 571 289 456 289 c 0
 434 289 415 286 401 285 c 1
 396.333 301 394 316.333 394 331 c 0
 394 409 451 434 520 434 c 0
 561 434 621 412 621 353 c 0
 621 324.446 604 285 539 285 c 0
 485 285 464 332 464 375 c 0
 464 462 513.066 530.629 557 571 c 0
 594 605 625 617 645 617 c 0
 661 617 669 606 669 596 c 0
 669 569 599 561 550 511 c 0
 527.343 487.881 492 444 492 374 c 0
 492 339 508 311 541 311 c 0
 570 311 590 328.516 590 355 c 0
 590 387.991 560 407 516 407 c 0xdfc0
293 427 m 1
 272 416 194 406 177 400 c 1
 102 382 56 319.268 56 218 c 0
 56 137.333 83 75.333 135 30 c 1
 135 0 l 1
 68.583 33.209 27 120.07 27 221 c 0
 27 352.7 99.7559 433 239 433 c 0
 248 433 271 433 293 427 c 1
EndSplineSet
EndChar

StartChar: si_Tta
Encoding: 3495 3495 34
Width: 603
GlyphClass: 2
Flags: MW
HStem: -1.15399 71.9065 365.352 26.0267 553.085 23.9947
VStem: 31.596 34.308 523.085 33.9212
LayerCount: 2
Fore
SplineSet
65.9043 217.757 m 0
 65.9043 314.123 148.49 365.353 233.999 365.353 c 0
 265.999 365.353 293.886 358.912 320.999 346.001 c 1
 320.999 375.001 l 1
 291.654 386.087 258.999 391.38 231.999 391.38 c 0
 126.169 391.38 31.5947 322.619 31.5947 207.87 c 0
 31.5947 80.6396 132.917 -1.15332 285.241 -1.15332 c 0
 447.243 -1.15332 557.006 115.251 557.006 271.184 c 0
 557.006 433.237 446.242 577.08 273.086 577.08 c 0
 176.648 577.08 103.927 539.372 56.999 470 c 1
 89.999 470 l 1
 132.781 525.005 194.707 553.085 275.439 553.085 c 0
 415.576 553.085 523.085 431.78 523.085 295.66 c 0
 523.085 148.526 418.412 70.7529 276.18 70.7529 c 0
 175.908 70.7529 65.9043 115.897 65.9043 217.757 c 0
EndSplineSet
EndChar

StartChar: si_Ttha
Encoding: 3496 3496 35
Width: 614
GlyphClass: 2
Flags: MW
HStem: 0 71<151.284 212.336 397.334 464.855> 367 36<394.501 435.001 394.501 437.5>
VStem: 33 34<173.779 241.5> 290 28<156 196> 316 30 555 34<202.5 269.5 181 282.5>
LayerCount: 2
Fore
SplineSet
589 232 m 0xec
 589 130 547.877 0 422.001 0 c 0
 372.668 0 333.001 19.667 303.001 59 c 1
 272.334 20.333 234.672 0 190 0 c 0
 88 0 33 96 33 195 c 0
 33 288 86.248 363.669 152 387 c 0
 172.667 394.333 195.667 398 221 398 c 1
 221 373 l 1
 217.651 373.289 214.316 373.437 211 373.437 c 0
 132 373.437 67 301 67 212 c 0
 67 135.558 114.567 71 188 71 c 0
 238.911 71 290 92 290 156 c 2
 290 196 l 1
 318 196 l 1
 318 156 l 2xf4
 318 92 367.83 71 417 71 c 0
 512.71 71 555 158 555 247 c 0
 555 318 525 388 504 420 c 1
 489.333 387.333 459 367 416 367 c 0
 352.845 367 316 422 316 488 c 0
 316 538 331 574 358 605 c 1
 419 572 489.965 500.242 526 438 c 0
 564.783 371.012 589 307 589 232 c 0xec
485.001 448 m 1
 455.001 494 405.001 540 367.001 568 c 1
 355.001 550 346.001 526.667 346.001 492 c 0xec
 346.001 442.667 366.001 403 423.001 403 c 0
 447.001 403 474.765 414.141 485.001 448 c 1
EndSplineSet
EndChar

StartChar: si_Dda
Encoding: 3497 3497 36
Width: 647
GlyphClass: 2
Flags: MW
HStem: 0 71 288 27 391.268 40.8998 556.09 25.9301
VStem: 45.8805 37.511 299 27<119.082 177.999 142.999 177.999> 562.143 35.8443
LayerCount: 2
Fore
SplineSet
76.2109 374.122 m 0
 76.2109 353 92.9971 339.263 112.997 339.263 c 0
 126.644 339.263 139.997 343.999 150.997 362.999 c 0
 165.115 387.385 180.361 391.267 197.997 391.267 c 0
 227.997 391.267 258.161 357.532 260.997 314.999 c 1
 14.9971 314.999 l 1
 14.9971 287.999 l 1
 124.997 287.999 l 1
 71.0459 264.197 45.8779 211.999 45.8779 161.999 c 0
 45.8779 81.1895 97.9814 -0.000976562 198.998 -0.000976562 c 0
 249.998 -0.000976562 283.404 21.6855 312.998 58.999 c 1
 334.629 28.5195 363.026 -0.0263672 427.654 -0.0263672 c 0
 547.006 -0.0263672 597.986 126.284 597.986 258.221 c 0
 597.986 443.999 478.635 582.02 304.118 582.02 c 0
 209.736 582.02 127.257 545.933 72.999 467.999 c 1
 105.999 467.999 l 1
 153.202 524.901 217.966 556.09 298.465 556.09 c 0
 456 556.09 562.144 428 562.144 273.218 c 0
 562.144 167.484 520.489 70.999 424 70.999 c 0
 373.775 70.999 326 97.085 326 142.999 c 2
 326 177.999 l 1
 299 177.999 l 1
 299 142.999 l 2
 299 95.1641 247.046 70.999 198 70.999 c 0
 123.263 70.999 83.3916 121.641 83.3916 173.999 c 0
 83.3916 229.999 126.957 287.999 220 287.999 c 2
 295 287.999 l 1
 293.627 373.979 249.407 432.167 165.278 432.167 c 0
 123.101 432.167 76.2109 414 76.2109 374.122 c 0
EndSplineSet
EndChar

StartChar: si_Ddha
Encoding: 3498 3498 37
Width: 647
GlyphClass: 2
Flags: MW
HStem: 0 71<160.631 222.523 160.631 224.5 398.888 472.245> 288 27<14.999 124.999 14.999 257.999 173.478 219.999 219.999 257.999 14.999 291.999> 363 30 391.268 40.8994
VStem: 45.8805 37.511 299 27<143 178> 318 29<451.749 498.116 451.749 509> 561.144 36.8438
LayerCount: 2
Fore
SplineSet
359 603 m 1xeb
 473 558 597.987 407 597.987 249.222 c 0
 597.987 123 553.345 0 426 0 c 0
 364 -0 334.631 28.5205 313 59 c 1
 283.406 21.6865 250 0 199 0 c 0
 97.9834 0 45.8799 81.1904 45.8799 162 c 0
 45.8799 212 71.0479 264.198 124.999 288 c 1
 14.999 288 l 1
 14.999 315 l 1
 257.999 315 l 1
 255.163 357.533 224.999 391.268 194.999 391.268 c 0xdb
 177.363 391.268 162.117 387.386 147.999 363 c 0xeb
 136.999 344 123.646 339.264 109.999 339.264 c 0
 89.999 339.264 73.21 353 73.21 374.122 c 0
 73.21 414 120.1 432.167 162.278 432.167 c 0
 246.406 432.167 290.626 373.979 291.999 288 c 1
 219.999 288 l 2
 126.956 288 83.3906 230 83.3906 174 c 0
 83.3906 121.642 123.262 71 198 71 c 0
 247.046 71 299 95.165 299 143 c 2
 299 178 l 1
 326 178 l 1
 326 143 l 2xdd
 326 97.0859 373.775 71 424 71 c 0
 520.489 71 561.144 159 561.144 263.218 c 0
 561.144 323.444 541.894 378.102 514.781 424.173 c 1
 498.322 395.421 470.676 363 422 363 c 0
 356 363 318 411 318 477 c 0
 318 541 348 586 359 603 c 1xeb
497.292 451.286 m 1
 456.522 509.255 405.42 550.055 373 565.999 c 1
 361 551.999 347 515.233 347 480.999 c 0
 347 422.499 376 392.999 424 392.999 c 0xeb
 460.039 392.999 484.714 424.252 497.292 451.286 c 1
EndSplineSet
EndChar

StartChar: si_Nna
Encoding: 3499 3499 38
Width: 963
GlyphClass: 2
Flags: MW
HStem: -0.787109 34.7871 0 73<272 403.438 272 442.5> 36.4297 31.0986 156 37.2305 163.396 18.6035 181 27<115 139.5> 256.472 29.0986 309 38.7871 408 25<313.024 399.5 308.571 419.276> 470 57<828 828>
VStem: 170 29<250.5 324 250.5 332.5> 267.396 28.834 417.77 28.834 548.841 28.5488 710.61 23.3896 852 63.3633<131.999 206.999>
LayerCount: 2
Fore
SplineSet
350 73 m 0x47ff
 456.877 73 549 133 549 237 c 0
 549 330 481.553 408 357 408 c 0
 269.048 408 199 360 199 288 c 0
 199 213 264 182 322 182 c 1x4bff
 405 178 l 1
 384 164 362 156 321 156 c 0x13ff
 232 156 170 207.993 170 283 c 0
 170 382 258.143 433 359 433 c 0
 440 433 584 390 584 213 c 0
 584 114 520 0 365 0 c 0
 167 0 180 181 99 181 c 0
 71 181 54 168 33 154 c 1
 22 178 l 1
 213 306 426.095 401.813 653 483 c 0
 725.667 509 796 527 828 527 c 0
 851.333 527 863 518 863 500 c 0
 863 484.667 851.333 474.667 828 470 c 0
 798.667 465.333 750.517 455.372 683 443 c 0
 492 408 278 301 115 208 c 1
 176 208 194 73 350 73 c 0x47ff
267.396 253 m 0
 267.396 302.173 307.827 342.604 357 342.604 c 0
 406.173 342.604 446.604 302.173 446.604 253 c 0
 446.604 203.827 406.173 163.396 357 163.396 c 0
 307.827 163.396 267.396 203.827 267.396 253 c 0
296.23 254 m 0
 296.23 220.01 323.01 193.23 357 193.23 c 0x13ff
 390.99 193.23 417.77 220.01 417.77 254 c 0
 417.77 287.99 390.99 314.77 357 314.77 c 0
 323.01 314.77 296.23 287.99 296.23 254 c 0
548.841 161 m 0
 548.841 229.841 591.457 285.569 645 285.569 c 0
 678.265 285.569 702.666 273.634 718.564 251.391 c 1
 723.035 300.341 754.135 347.786 815 347.786 c 0
 881 347.786 915.363 264.757 915.363 167.999 c 0
 915.363 72.999 883 -0.788086 800 -0.788086 c 0
 748.105 -0.788086 718.596 33.0137 713.722 67.7432 c 1
 697.391 47.7451 674.145 36.4297 645 36.4297 c 0xa3ff
 591.457 36.4297 548.841 92.1592 548.841 161 c 0
577.39 161.999 m 0
 577.39 109.791 606.911 67.5273 644 67.5273 c 0
 686.256 67.5273 710.61 105.121 710.61 161.999 c 0
 710.61 221.909 689.026 256.471 644 256.471 c 0
 606.911 256.471 577.39 214.207 577.39 161.999 c 0
737.828 201.984 m 1
 740.055 189.562 741.159 175.873 741.159 160.999 c 0
 741.159 141.247 738.721 123.259 734.014 107.476 c 0
 734.005 106.653 734 105.828 734 104.999 c 0
 734 43.999 769 33.999 792 33.999 c 0
 843 33.999 852 94.999 852 168.999 c 0
 852 244.999 836 308.999 799 308.999 c 0
 755.596 308.999 741.164 262.643 737.828 201.984 c 1
EndSplineSet
EndChar

StartChar: si_Nndda
Encoding: 3500 3500 39
Width: 731
GlyphClass: 2
Flags: MW
HStem: 0 71<247.631 309.523 247.631 311.5> 288 27<102 212 102 348 260.479 307 307 348 102 382> 391.268 41.7324 427 6 556.09 25.9307
VStem: 27 29<177.667 268.634 177.667 286.85> 132.881 37.5107 386 27<143 178> 649.144 35.8438
LayerCount: 2
Fore
SplineSet
163.211 374.122 m 0xef80
 163.211 414 210.101 432.167 252.279 432.167 c 0
 336.407 432.167 380.627 373.979 382 288 c 1
 307 288 l 2
 213.957 288 170.392 230 170.392 174 c 0
 170.392 121.642 210.262 71 285 71 c 0
 334.046 71 386 95.165 386 143 c 2
 386 178 l 1
 413 178 l 1
 413 143 l 2
 413 97.0859 460.775 71 511 71 c 0
 607.489 71 649.144 167.485 649.144 273.218 c 0
 649.144 428 543 556.09 385.465 556.09 c 0
 304.966 556.09 240.203 524.902 193 468 c 1
 160 468 l 1
 214.258 545.934 296.737 582.021 391.119 582.021 c 0
 565.636 582.021 684.987 444 684.987 258.222 c 0
 684.987 126.286 634.008 -0.0253906 514.655 -0.0253906 c 0
 450.027 -0.0253906 421.631 28.5205 400 59 c 1
 370.406 21.6865 337 0 286 0 c 0
 184.983 0 132.881 81.1904 132.881 162 c 0
 132.881 212 158.049 264.198 212 288 c 1
 102 288 l 1
 102 315 l 1
 348 315 l 1
 345.164 357.533 315 391.268 285 391.268 c 0
 267.364 391.268 252.118 387.386 238 363 c 0
 227 344 213.646 339.264 200 339.264 c 0
 180 339.264 163.211 353 163.211 374.122 c 0xef80
293 427 m 1xdf80
 272 416 194 406 177 400 c 1
 102 382 56 319.268 56 218 c 0
 56 137.333 83 75.333 135 30 c 1
 135 0 l 1
 68.583 33.209 27 120.07 27 221 c 0
 27 352.7 99.7559 433 239 433 c 0xef80
 248 433 271 433 293 427 c 1xdf80
EndSplineSet
EndChar

StartChar: si_Ta
Encoding: 3501 3501 40
Width: 704
GlyphClass: 2
Flags: MW
HStem: -2 75<215 297.429 215 337> -1 28<507.5 544.5 500.5 567> 79 30<97.3335 114.5> 296 24<265 316.5> 379 56<391 437.718> 388 45<142.66 152.172 102.5 160.351>
VStem: 22 22<9 25> 37 82 178.96 27.1393 417 42<145.646 215 116 223.784> 610 54<135.001 211.276>
LayerCount: 2
Fore
SplineSet
159 306 m 0xbae0
 167 315 178.96 330 178.96 349 c 0
 178.96 371 169.701 388 151 388 c 0
 134.319 388 119.702 376.212 119 355.5 c 0
 118 326 111 295 76 295 c 0
 50.4971 295 37 316.582 37 342 c 0
 37 392 78 433 127 433 c 0xb5e0
 177.344 433 206.1 399 206.1 356 c 0
 206.1 351 206 352 205 347 c 1
 271 420 359 435 423 435 c 0
 562 435 664 334 664 185 c 0
 664 85.002 613 -1 521 -1 c 0
 494 -1 472 5 455 14 c 1
 455 44 l 1
 468 36 490 27 511 27 c 0x79e0
 578 27 610 85.4248 610 151 c 0
 610 271.553 508.437 379 367 379 c 0
 296.333 379 241 354.667 201 306 c 1
 222.333 315.333 249 320 281 320 c 0
 382 320 459 268 459 162 c 0
 459 70 392 -2 282 -2 c 0
 134 -2 140 79 89 79 c 0
 65 79 52.667 53 44 9 c 1
 22 25 l 1
 35 130 103 242 159 306 c 0xbae0
157 260 m 1
 125.501 221.501 92 165 71 100 c 1
 80 107 91.667 109 103 109 c 0
 140 109 176 73 254 73 c 0
 340.858 73 417 103.291 417 188 c 0
 417 259.568 350 296 283 296 c 0
 233.649 296 188 284 157 260 c 1
EndSplineSet
EndChar

StartChar: si_Tha
Encoding: 3502 3502 41
Width: 614
GlyphClass: 2
Flags: MW
HStem: -1 72<238.93 369 238.93 372.5> 367 36<383.5 424 383.5 426.5> 405 25<196.5 245>
VStem: 33 34<182 288.922 182 289.915> 305 30<467.333 509.333 467.333 513> 531 35<217.681 287 177.315 309.333>
LayerCount: 2
Fore
SplineSet
531 281 m 0
 531 337.667 514 388 493 420 c 1
 478.333 387.333 448 367 405 367 c 0
 341.845 367 305 422 305 488 c 0
 305 538 320 574 347 605 c 1
 408 572 478.965 500.242 515 438 c 0
 553.783 371.012 566 322 566 252 c 0
 566 102.631 450 -1 295 -1 c 0
 150.697 -1 33 92.0605 33 235 c 0
 33 344.829 134 430 245 430 c 1
 245 405 l 1
 148 405 67 335.845 67 242 c 0
 67 122 172.859 71 305 71 c 0
 433 71 531 154.362 531 281 c 0
474 448 m 1
 444 494 394 540 356 568 c 1
 344 550 335 526.667 335 492 c 0
 335 442.667 355 403 412 403 c 0
 436 403 463.764 414.141 474 448 c 1
EndSplineSet
EndChar

StartChar: si_Da
Encoding: 3503 3503 42
Width: 456
GlyphClass: 2
Flags: MW
HStem: -238 28 -1 28<219.5 247.667> 294 23<223 242 242 343 223 379> 396 37<250.5 274.87 204.5 282>
VStem: 31 77<131 215 131 221.5> 249 57<-137.049 -122.667>
LayerCount: 2
Fore
SplineSet
379 294 m 1
 242 294 l 2
 154 294 108 257 108 173 c 0
 108 89 178 27 261 27 c 0
 307.077 27 344 46 384 92 c 1
 407 75 l 1
 376.46 39.3701 306 -28 306 -104 c 0
 306 -170.099 345.218 -195.118 409 -210.001 c 1
 409 -238.001 l 1
 395 -240.668 377 -242.001 355 -242.001 c 0
 284.434 -240.041 249 -199.02 249 -142.001 c 0
 249 -103.334 272.333 -52.667 319 10 c 1
 284 0 261.333 -1 234 -1 c 0
 103 -1 31 69 31 169 c 0
 31 274 104 317 223 317 c 2
 343 317 l 1
 333.276 363.186 304 396 260 396 c 0
 241 396 225.049 383.911 216.5 366 c 0
 206 344 189.802 336 175 336 c 0
 150 336 137 351 137 372 c 0
 137 408.283 177 433 232 433 c 0
 317.739 433 360.904 389.003 379 294 c 1
EndSplineSet
EndChar

StartChar: si_Dha
Encoding: 3504 3504 43
Width: 638
GlyphClass: 2
Flags: MW
HStem: 0 71<151.285 212.336 397.334 464.856> 373.436 24.5638 556 24<253.667 367.455>
VStem: 33 34 290 28 555 34
LayerCount: 2
Fore
SplineSet
221 398 m 1
 221.001 373 l 1
 217.652 373.289 214.317 373.437 211.001 373.437 c 0
 132.001 373.437 67.001 301 67.001 212 c 0
 67.001 135.558 114.568 71 188.001 71 c 0
 238.912 71 290.001 92 290.001 156 c 2
 290.001 196 l 1
 318.001 196 l 1
 318.001 156 l 2
 318.001 92 367.831 71 417.001 71 c 0
 512.711 71 555.001 181 555.001 284 c 0
 555.001 442 440.909 556 294.001 556 c 0
 213.334 556 149.668 527.333 97.001 468 c 1
 65.001 468 l 1
 121.668 542.667 199.668 580 299.001 580 c 0
 462.001 580 589.001 446 589.001 261 c 0
 589.001 139 547.877 0 422.001 0 c 0
 372.668 0 333.001 19.667 303.001 59 c 1
 272.334 20.333 234.672 0 190 0 c 0
 88 0 33 96 33 195 c 0
 33 288 86.248 363.669 152 387 c 0
 172.667 394.333 195.667 398 221 398 c 1
EndSplineSet
EndChar

StartChar: si_Na
Encoding: 3505 3505 44
Width: 806
GlyphClass: 2
Flags: MW
HStem: -1.22122 27.5682 -1.12219 73.5756 284 24.102 370.322 62.4564 388.552 42.4482
VStem: 55.1416 78.6055 225.818 27.2031 453.645 44.5226 704 56<122.806 221.001>
LayerCount: 2
Fore
SplineSet
266 295 m 1xb780
 291.869 304.342 317.104 308.103 345.044 308.103 c 0
 428.955 308.103 498.168 248.944 498.168 168.854 c 0
 498.168 52.8262 398.035 -1.12109 276.065 -1.12109 c 0
 150.103 -1.12109 67.0811 40.5859 27 124.001 c 1
 40.793 117.804 52.6279 115.129 63 115.129 c 0
 124 115.129 130 201.001 207 278.001 c 0
 222 293.001 225.818 314.124 225.818 327.001 c 0
 225.818 365.001 210 388.553 176.462 388.553 c 0
 147 388.553 135 367.001 133.747 345.001 c 0
 132.666 326.017 124.894 297.001 93 297.001 c 0
 69 297.001 55.1416 315.001 55.1416 341.001 c 0
 55.1416 383.001 89.0176 431.001 154 431.001 c 0x6f80
 224 431.001 253.021 380.001 253.021 333.001 c 0
 253.021 331.985 253 322.001 251 315.001 c 1
 302 375.001 400.637 432.779 506 432.779 c 0
 646 432.779 760 335.014 760 183.001 c 0
 760 62.6104 687 -1.2207 613 -1.2207 c 0
 581 -1.2207 555 10.001 542 21.001 c 1
 542 52.001 l 1
 566 30.001 592.007 26.3477 610 26.3477 c 0
 661 26.3477 704 70.1064 704 149.001 c 0
 704 293.001 570 370.322 448 370.322 c 0
 375 370.322 309.729 344.888 266 295 c 1xb780
338 284 m 0
 160 284 180.001 144 107.001 102 c 1
 153.258 81.9873 205.413 72.4531 263.509 72.4531 c 0
 374 72.4531 453.646 110 453.646 190 c 0
 453.646 246 399.033 284 338 284 c 0
EndSplineSet
EndChar

StartChar: si_Nda
Encoding: 3507 3507 45
Width: 526
GlyphClass: 2
Flags: MW
HStem: -238 28<493 493> -1 28<303.5 331.667> 294 23<307 326 326 427 307 463> 336 99<232.5 252.401> 394 37<320.5 336.87 266.5 349>
VStem: 27 29<177.667 268.634 177.667 286.85> 115 77<131 215 131 221.5> 333 57<-137.049 -122.667>
LayerCount: 2
Fore
SplineSet
329 428.5 m 1xf7
 313.325 418.377 265.656 410.732 225 405.248 c 1
 208 404 191.802 402.375 172 397 c 0
 102 378 56 319.268 56 218 c 0
 56 137.333 83 75.333 135 30 c 1
 135 0 l 1
 68.583 33.209 27 120.07 27 221 c 0
 27 352.7 98 435 255 435 c 0
 260 435 301 434 329 428.5 c 1xf7
463 294 m 1
 326 294 l 2
 238 294 192 257 192 173 c 0
 192 89 262 27 345 27 c 0
 391.077 27 428 46 468 92 c 1
 491 75 l 1
 460.46 39.3701 390 -28 390 -104 c 0
 390 -170.099 429.218 -195.117 493 -210 c 1
 493 -238 l 1
 479 -240.667 461 -242 439 -242 c 0
 368.434 -240.04 333 -199.019 333 -142 c 0
 333 -103.333 356.333 -52.667 403 10 c 1
 368 0 345.333 -1 318 -1 c 0
 187 -1 115 69 115 169 c 0
 115 274 188 317 307 317 c 2
 427 317 l 1
 417.276 363.186 368 394 330 394 c 0xef
 311 394 295.049 383.911 286.5 366 c 0
 276 344 259.802 336 245 336 c 0xf7
 220 336 207 351 207 372 c 0
 207 408.283 239 431 294 431 c 0xef
 379.739 431 444.904 389.003 463 294 c 1
EndSplineSet
EndChar

StartChar: si_Pa
Encoding: 3508 3508 46
Width: 616
GlyphClass: 2
Flags: MW
HStem: 0 71 301.718 25.2104 395.274 38.3514 404.638 28.4804
VStem: 31.3314 37.6686 55.3252 83.3285 244.682 30.1876 321.143 32.0411 505.479 35.54 540 34.0059
LayerCount: 2
Fore
SplineSet
438.845 433.118 m 0xdb40
 505 433.118 541.017 392.965 541.017 353.999 c 0xd380
 541.017 333.999 532.546 316.666 513.998 302.999 c 1
 554.33 279.472 574.004 240.741 574.004 186.45 c 0
 574.004 55.5605 447.643 -0.000976562 306.998 -0.000976562 c 0
 158.588 -0.000976562 31.3301 45.9189 31.3301 183.553 c 0xdb40
 31.3301 274.622 99.2285 326.927 206.999 326.927 c 0
 219.999 326.927 231.207 326.288 243.999 324.999 c 1
 244.46 328.823 244.682 332.49 244.682 336 c 0
 244.682 375 219.122 395.274 187.999 395.274 c 0
 155.969 395.274 143.56 378.803 138.652 360 c 0
 134.999 346 122.345 328.073 93.999 328.073 c 0
 74.999 328.073 55.3242 340 55.3242 365 c 0
 55.3242 409 102.999 433.626 158.188 433.626 c 0xe7
 230.547 433.626 274.869 401 274.869 334 c 0
 274.869 322.637 273.632 311.304 271 298 c 1
 253.181 300.376 218.23 301.718 217 301.718 c 0
 139.721 301.718 69 275.738 69 201 c 0
 69 106.584 193 71 307 71 c 0
 413.551 71 540 110 540 205 c 0
 540 277.999 472 303.612 394 303.612 c 0
 370.819 303.612 346.927 301.169 324 297 c 1
 322.072 307.924 321.144 318.267 321.144 328 c 0
 321.144 397 365.957 433.118 438.845 433.118 c 0xdb40
488.998 314.999 m 1
 500.33 325.702 505.476 338.485 505.476 351 c 0
 505.476 380 478.997 404.638 431.997 404.638 c 0
 388.774 404.638 353.181 381 353.181 336 c 0
 353.181 332.228 353.46 328.864 353.997 325 c 1
 370.952 327.055 387.343 328.097 402.998 328.097 c 0
 435.998 328.097 464.458 323.764 488.998 314.999 c 1
EndSplineSet
EndChar

StartChar: si_Pha
Encoding: 3509 3509 47
Width: 579
GlyphClass: 2
Flags: MW
HStem: 0 71<222 343.5 222 355.5> 284 25<174.5 249 229 249 229 281> 359 36<349.5 390> 395 36.5<162.5 200.5>
VStem: 33 37<137 212.832 137 216.977> 249.086 32.0605 271 30<459.333 501.333 459.333 505> 501 32<207.5 280 181 295.333>
LayerCount: 2
Fore
SplineSet
501 267 m 0xdd
 501 323.667 484 376 459 412 c 1
 444.333 379.333 414 359 371 359 c 0
 307.845 359 271 414 271 480 c 0xeb
 271 530 286 566 313 597 c 1
 374 564 444.965 492.242 481 430 c 0
 519.783 363.012 533 315 533 245 c 0
 533 117 447 0 264 0 c 0
 143 0 33 46 33 165 c 0
 33 268.953 116 309 229 309 c 2
 249 309 l 1
 249.082 311.041 249.086 313.041 249.086 315 c 0
 249.086 358 219 395 182 395 c 0xdd
 143 395 132 371 126.5 355 c 0
 119.951 335.948 109.871 323 88 323 c 0
 72 323 52 333.368 52 359 c 0xed
 52 406 102 431.5 157 431.5 c 0
 245 431.5 281.146 364 281.146 297 c 0
 281.146 293.722 281.101 287.388 281 284 c 1
 221 284 l 2
 128 284 70 245.664 70 180 c 0
 70 94 177 71 267 71 c 0
 420 71 501 148 501 267 c 0xdd
440 440 m 1
 410 486 360 532 322 560 c 1
 310 542 301 518.667 301 484 c 0
 301 434.667 321 395 378 395 c 0
 402 395 429.764 406.141 440 440 c 1
EndSplineSet
EndChar

StartChar: si_Ba
Encoding: 3510 3510 48
Width: 619
GlyphClass: 2
Flags: MW
HStem: -2 66<351.101 406.417 335.333 449.53> -1 28.4902 124.51 28.4902 320 76<191.5 272.955> 561 24<245 367>
VStem: 33 31<149 214.5 149 250.344> 198.51 30.4902 273 31<88.6665 134 88.6665 140> 388 35<196.5 266.5> 530 45<257.5 374.571 212.655 385.5>
LayerCount: 2
Fore
SplineSet
101.49 76 m 0x7fc0
 101.49 49.54 123.54 27.4902 150 27.4902 c 0
 176.46 27.4902 198.51 49.54 198.51 76 c 0
 198.51 102.46 176.46 124.51 150 124.51 c 0
 123.54 124.51 101.49 102.46 101.49 76 c 0x7fc0
77 91 m 1
 81 126 109.438 153 150 153 c 0
 193 153 229 119 229 77 c 0
 229 29 190 -1 150 -1 c 0x7fc0
 68 -1 33 91.123 33 187 c 0
 33 313.688 120.106 396 247 396 c 0
 338.787 396 423 344.765 423 257 c 0
 423 126 304 167 304 101 c 0
 304 76.333 319.667 64 351 64 c 0
 461.835 64 530 202 530 313 c 0
 530 458 442 561 292 561 c 0
 198 561 132.667 530 94 470 c 1
 64 470 l 1
 98.667 542 178.571 585 292 585 c 0
 470 585 575 465.143 575 284 c 0
 575 141.31 518.061 -2 381 -2 c 0xbfc0
 321.202 -2 273 34.5566 273 94 c 0
 273 186 388 156 388 237 c 0
 388 296 308.91 320 237 320 c 0
 146 320 64 267 64 162 c 0
 64 136 69 106 77 91 c 1
EndSplineSet
EndChar

StartChar: si_Bha
Encoding: 3511 3511 49
Width: 670
GlyphClass: 2
Flags: MW
HStem: -1.30371 27.5088 -0.762695 72.7627<186.829 257.218 186.829 264.267> 212.412 24.7578 278 25.3525 362 70.0098 383.056 48.9775
VStem: 48.9551 36.7949 222 33 255 22<182 192> 346.111 36.0518 573.147 47.8711
LayerCount: 2
Fore
SplineSet
140 278 m 1x3260
 69 277 22 273.667 6 271 c 1
 6 303 l 1
 212 303 l 1
 171 278 l 1
 140 278 l 1x3260
277 182 m 1x76e0
 255 192 l 1
 264 317 345.087 432.01 446.302 432.01 c 0
 558.174 432.01 621.019 328.65 621.019 210.962 c 0
 621.019 92.0049 532 -1.30371 409 -1.30371 c 0
 395.686 -1.30371 381.993 -0.266602 368 2 c 1
 368 29 l 1
 380.328 27.0869 392.354 26.2051 404 26.2051 c 0xbae0
 503 26.2051 573.147 93.4062 573.147 192.821 c 0
 573.147 288.169 520.794 362 430 362 c 0
 356.667 362 309 317.667 287 229 c 1
 296.835 234.532 306.634 237.17 316 237.17 c 0
 354 237.17 382.163 199.14 382.163 145.35 c 0
 382.163 52.9932 311.501 -0.762695 217.033 -0.762695 c 0
 119.482 -0.762695 48.9551 61.0615 48.9551 155.113 c 0
 48.9551 253 148 303.353 218 303.353 c 0
 221.958 303.353 217.959 303.224 222 303 c 1x7b60
 222 345.316 198 383.056 160.457 383.056 c 0
 139.505 383.056 127.798 370.856 122 355.692 c 0
 116 340 102.673 327.24 81.8027 327.24 c 0
 62 327.24 49.0234 341 49.0234 364 c 0
 49.0234 394.208 77.7021 432.033 134.455 432.033 c 0
 213.35 432.033 253.805 360.444 255 278 c 1
 243 280 233 280.021 229 280.021 c 0
 163 280.021 85.75 245.325 85.75 175.359 c 0
 85.75 105.729 149.657 72 224 72 c 0
 290.437 72 346.111 100.488 346.111 164.323 c 0
 346.111 194.87 331 212.412 311 212.412 c 0
 297.518 212.412 283.754 203.011 277 182 c 1x76e0
EndSplineSet
EndChar

StartChar: si_Ma
Encoding: 3512 3512 50
Width: 631
GlyphClass: 2
Flags: MW
HStem: 0 71<240.387 379.176 240.387 392.546> 186 32<272.5 330 272.5 338.5> 271 32<299.5 326.5 299.5 337> 405 27<130 164.784> 560 26<262.5 373.5>
VStem: 33 35<200.5 294.5> 173 31<274.5 314.5> 233 31<338.5 365.5 338.5 374> 362 27<338.5 347 324.5 365.5> 401 30<284.5 328> 550 35<236.5 373 201 375.358>
LayerCount: 2
Fore
SplineSet
264 352 m 0
 264 325 286 303 313 303 c 0
 340 303 362 325 362 352 c 0
 362 379 340 401 313 401 c 0
 286 401 264 379 264 352 c 0
110 469 m 1
 78 469 l 1
 127 544 209.295 586 302 586 c 0
 462 586 585 454 585 292 c 0
 585 110 475.092 0 310 0 c 0
 143 0 33 94 33 250 c 0
 33 339 79 432 156 432 c 0
 204.892 432 209 398 209 373 c 0
 209 346 204 338 204 302 c 0
 204 247 245 218 300 218 c 0
 360 218 401 255 401 314 c 0
 401 342 392 359 387 366 c 1
 389 356 389 351 389 343 c 0
 389 306 361 271 313 271 c 0
 262 271 233 315 233 351 c 0
 233 397 269.997 432 318 432 c 0
 387 432 431 382 431 306 c 0
 431 237 375 186 302 186 c 0
 242 186 173 216 173 295 c 0
 173 334 180 348 180 379 c 0
 180 391.165 175.568 405 154 405 c 0
 106 405 68 346 68 267 c 0
 68 134 172.773 71 308 71 c 0
 450.353 71 550 166 550 307 c 0
 550 443.716 444 560 303 560 c 0
 222 560 158 531 110 469 c 1
EndSplineSet
EndChar

StartChar: si_Mba
Encoding: 3513 3513 51
Width: 636
GlyphClass: 2
Flags: MW
HStem: 0 72<427 472.5 427 481> 171 29<306 335.5 300.5 336.72> 224 29<267.5 321.5 267.5 331.5> 289 27<308 334 308 338.328> 406 25.5<119.5 156.599> 556 23<248.5 378>
VStem: 30 31<201.833 278> 172 27<310.5 338.507 310.5 341.61> 229 30<102 129.5 87.729 143> 245 29<350 376 350 381> 378 29<104.5 125> 389 29<303.5 326.5> 554 36<233.937 342.557 190.25 359.74>
LayerCount: 2
Fore
SplineSet
438 72 m 0xffa8
 507 72 554 181.873 554 286 c 0
 554 433.479 458 556 298 556 c 0
 199 556 140 525 93 466 c 1
 62 466 l 1
 107 531 173 579 300 579 c 0
 488 579 590 431.114 590 254 c 0
 590 126.501 539 0 423 0 c 0
 399 0 380 4 359 17 c 1
 359 48 378 70 378 108 c 0
 378 142 354.44 171 319 171 c 0
 293 171 259 153 259 106 c 0xffa8
 259 69.458 275 44 275 17 c 1
 249 3 214.667 0 196 0 c 0
 78 0 30 127 30 224 c 0
 30 332 74 431.5 148 431.5 c 0
 167.007 431.5 173 428 180 423 c 0
 190.609 415.422 198.873 401 198.873 371 c 0
 198.873 357 199 340.015 199 337 c 0
 199 284 240 253 295 253 c 0
 348 253 389 281 389 326 c 0
 389 327 389 329 388 331 c 1
 382 318 358.656 289 318 289 c 0
 271.278 289 245 324.079 245 360 c 0
 245 402 277 434 322 434 c 0
 381 434 418 389 418 330 c 0xff58
 418 268 367 224 296 224 c 0
 225.255 224 172 267 172 339 c 0
 172 344.22 172.275 362.935 172.275 372 c 0
 172.275 392 168.198 406 145 406 c 0
 94 406 61 327 61 254 c 0
 61 149.666 116 70 199 70 c 0
 215 70 228.667 72.667 232 76 c 1
 230 86 229 98 229 106 c 0
 229 180 282 200 319 200 c 0
 352 200 407 180 407 108 c 0
 407 101 406 87 404 79 c 1
 408.424 75.668 416 72 438 72 c 0xffa8
274 363 m 0xff48
 274 337 295 316 321 316 c 0
 347 316 368 337 368 363 c 0
 368 389 347 410 321 410 c 0
 295 410 274 389 274 363 c 0xff48
EndSplineSet
EndChar

StartChar: si_Ya
Encoding: 3514 3514 52
Width: 636
GlyphClass: 2
Flags: MW
HStem: -1 72<155.643 215 406.5 475.777> 300 25<400.001 428.001 400.001 451> 362 27<174.668 224.333> 397 36<421.504 468.501>
VStem: 30 34<169 245> 295 27<146 147 147 176> 321 29 519 39 555 37<153 197.399 119 229>
LayerCount: 2
Fore
SplineSet
251 387 m 1xf880
 251.001 359 l 1
 240.334 361 229.667 362 219 362 c 0
 130.336 362 64 298 64 212 c 0
 64 126 118.286 71 193 71 c 0
 242 71 295 97 295 146 c 2
 295 176 l 1
 322 176 l 1
 322 147 l 2
 322 98.2715 378 71 435 71 c 0
 516.555 71 555 120 555 186 c 0
 555 272 494 300 408 300 c 0
 378 300 348.667 296.333 322 289 c 1xfc80
 321.333 296.333 321 303.333 321 310 c 0
 321 388.667 366.934 433 451 433 c 0
 511 433 558 409 558 357 c 0xfb
 558 338 548 312 521 303 c 1
 564.333 277 592 227.799 592 167 c 0
 592 71 528 -1 436 -1 c 0
 369.97 -1 327 25 307 71 c 1
 284.333 23 244 -1 186 -1 c 0
 85.4658 -1 30 82 30 185 c 0
 30 305 106.325 389 223 389 c 0
 233 389 242.333 388.333 251 387 c 1xf880
350.001 319 m 1xfb
 366.001 323 390.001 325 410.001 325 c 0
 446.001 325 475.001 321.333 497.001 314 c 1
 510.001 320 519.001 334 519.001 350 c 0
 519.001 381.86 486.001 397 451.001 397 c 0
 392.007 397 352.619 372.679 350.001 319 c 1xfb
EndSplineSet
EndChar

StartChar: si_Ra
Encoding: 3515 3515 53
Width: 528
GlyphClass: 2
Flags: MW
HStem: 0 73<185.991 292.5 185.991 315.762> 411 196<215.391 509.5>
VStem: 31 35<190.335 267.761> 430 52<201.5 253.002 163.5 305>
LayerCount: 2
Fore
SplineSet
169 415 m 0
 226 440 324 462 411 526 c 0
 461.773 563.351 474 607 503 607 c 0
 516 607 526 600.333 526 589 c 0
 526 564 503 535 442 500 c 0
 405.056 478.803 335 446 291 434 c 1
 340 431.5 390.811 409.851 429.5 366.5 c 0
 465.351 326.33 482 281.004 482 225 c 0
 482 102 383.523 0 248 0 c 0
 123.954 0 31 89.1826 31 213 c 0
 31 322.522 93.833 382.032 169 415 c 0
66 237 m 0
 66 143.671 131.981 73 240 73 c 0
 345 73 430 149 430 254 c 0
 430 356 355.595 411 264 411 c 0
 166.781 411 66 339.359 66 237 c 0
EndSplineSet
EndChar

StartChar: si_La
Encoding: 3517 3517 54
Width: 670
GlyphClass: 2
Flags: MW
HStem: -154 43<300.499 430.326> 171 45<461.999 513.499 461.999 519> 282 26<265 368 265 517.999 395.999 517.999 395.999 395.999> 404 28<294.999 425.83 266.696 429.499>
VStem: 31 76 368 27.7472 575 36 594 30.3352
LayerCount: 2
Fore
SplineSet
265 308 m 1xfe
 517.999 308 l 1
 517.999 282 l 1
 395.999 282 l 1
 395.838 280.659 395.746 279.325 395.746 278 c 0
 395.746 242 437.999 216 485.999 216 c 0
 540.999 216 574.999 245 574.999 294 c 0xfe
 574.999 373 488.999 404 369.999 404 c 0
 219.999 404 106.999 299.163 106.999 161 c 0
 106.999 -6 219.999 -111 380.999 -111 c 0
 487.999 -111 593.999 -50 593.999 66 c 0
 593.999 72 591.999 80 589.999 84 c 1
 623.999 84 l 1
 624.248 79.2744 624.335 74.6074 624.335 70 c 0xfd
 624.335 -72 499.652 -154 361 -154 c 0
 180 -154 31 -58 31 135 c 0
 31 322.924 169.393 432 364 432 c 0
 487.66 432 611 392.853 611 280 c 0
 611 210.441 553 171 485 171 c 0
 417 171 368 212 368 282 c 1
 265 282 l 1
 265 308 l 1xfe
EndSplineSet
EndChar

StartChar: si_Va
Encoding: 3520 3520 55
Width: 597
GlyphClass: 2
Flags: MW
HStem: 0 71 280 24 395 36.5 553 24
VStem: 33 35<136.999 207.499> 56 74.5 260.086 32.0601 514 34<228.999 358.499 193.999 370.999>
LayerCount: 2
Fore
SplineSet
292 280 m 1xf7
 202 279.999 l 2
 128 279.999 68 245.215 68 179.999 c 0
 68 93.999 180 70.999 270 70.999 c 0
 423 70.999 514 157.999 514 299.999 c 0
 514 441.999 410.498 552.999 276 552.999 c 0
 196.667 552.999 133.667 524.666 89 469.999 c 1
 57 469.999 l 1
 105.667 539.999 178 576.999 276 576.999 c 0
 436.151 576.999 548 442.999 548 273.999 c 0
 548 113.999 450 -0.000976562 267 -0.000976562 c 0
 146 -0.000976562 33 45.999 33 164.999 c 0xfb
 33 249.999 98 303.999 199 303.999 c 2
 260 303.999 l 1
 260.082 306.04 260.086 306.04 260.086 307.999 c 0
 260.086 361.999 226 394.999 189 394.999 c 0
 144 394.999 136 370.999 130.5 354.999 c 0
 123.951 335.947 113.871 322.999 92 322.999 c 0
 76 322.999 56 333.367 56 358.999 c 0
 56 405.999 106 431.499 161 431.499 c 0
 249 431.499 292.146 375.999 292.146 289.999 c 0
 292.146 286.721 292.101 283.388 292 280 c 1xf7
EndSplineSet
EndChar

StartChar: si_Sha
Encoding: 3521 3521 56
Width: 631
GlyphClass: 2
Flags: MW
HStem: -3 30<420.5 445.5 420.5 446> -1 71<157.095 228 157.095 243.5> 24 29<490 499.667> 158 26<457 492.5> 218 24<258.667 274.732> 370 62<345.092 429.297> 408.463 23.5372
VStem: 34 33<188 270> 208 25<192 192> 309 34<128.5 173 100 177> 367 31<65 102 65 106.542> 534 48<133 254.182 176 223.837>
LayerCount: 2
Fore
SplineSet
251 408 m 1x5bf0
 246.64 408.303 242.305 408.463 238 408.463 c 0
 140 408.463 67 339.925 67 230 c 0
 67 146 112.19 70 202 70 c 0x5bf0
 254 70 309 100 309 157 c 0
 309 197 290.465 218 259 218 c 0
 253 218 245 217 237 211 c 1
 235 206 234 197 233 192 c 1
 208 192 l 1
 222 328 276 432 399 432 c 0
 523.001 432 582 312.364 582 196 c 0
 582 128.199 558.073 36.9961 529 1 c 1
 502 1 l 1
 505.333 5.66699 507 10 507 14 c 0
 507 20.667 503.333 24 496 24 c 0x3df0
 475 24 465 -3 427 -3 c 0
 390.405 -3 367 36 367 75 c 0
 367 138.085 413 184 484 184 c 0
 501.333 184 523 180 534 176 c 1
 534 271.675 475.594 370 383 370 c 0x9df0
 307.184 370 252 314 240 238 c 1
 247 241 255.333 242 262 242 c 0
 310 242 343 208 343 138 c 0
 343 62 289 -1 198 -1 c 0
 90.9951 -1 34 92 34 206 c 0
 34 334 106.999 432 234 432 c 0
 238 432 248 431.5 251 431 c 1
 251 408 l 1x5bf0
519 42 m 1
 530.721 73.2559 534 119 534 147 c 1
 520 155 503 158 482 158 c 0
 432 158 398 125 398 79 c 0
 398 51 408 27 433 27 c 0x99f0
 458 27 480 53 500 53 c 0x39f0
 508 53 516 49 519 42 c 1
EndSplineSet
EndChar

StartChar: si_Ssa
Encoding: 3522 3522 57
Width: 598
GlyphClass: 2
Flags: MW
HStem: 0 71 135 26 232 22 301.718 25.2104 395.274 38.3514 404.638 28.4804
VStem: 31.3314 37.6686 55.3252 83.3285 172 30 244.682 30.1876 321.143 32.0411 402 30 505.479 35.54 540 34.0059
LayerCount: 2
Fore
SplineSet
438.845 433.118 m 0xf6f4
 505 433.118 541.017 392.965 541.017 353.999 c 0xf4f8
 541.017 333.999 532.546 316.666 513.998 302.999 c 1
 554.33 279.472 574.004 240.741 574.004 186.45 c 0
 574.004 55.5605 447.643 -0.000976562 306.998 -0.000976562 c 0
 158.588 -0.000976562 31.3301 45.9189 31.3301 183.553 c 0xf6f4
 31.3301 274.622 99.2285 326.927 206.999 326.927 c 0
 219.999 326.927 231.207 326.288 243.999 324.999 c 1
 244.46 328.823 244.682 332.49 244.682 336 c 0
 244.682 375 219.122 395.274 187.999 395.274 c 0
 155.969 395.274 143.56 378.803 138.652 360 c 0
 134.999 346 122.345 328.073 93.999 328.073 c 0
 74.999 328.073 55.3242 340 55.3242 365 c 0
 55.3242 409 102.999 433.626 158.188 433.626 c 0xf9f0
 230.547 433.626 274.869 401 274.869 334 c 0
 274.869 322.637 273.632 311.304 271 298 c 1
 253.181 300.376 218.23 301.718 217 301.718 c 0
 139.721 301.718 69 275.738 69 201 c 0
 69 106.584 193 71 307 71 c 0
 413.551 71 540 110 540 205 c 0
 540 277.999 472 303.612 394 303.612 c 0
 370.819 303.612 346.927 301.169 324 297 c 1
 322.072 307.924 321.144 318.267 321.144 328 c 0
 321.144 397 365.957 433.118 438.845 433.118 c 0xf6f4
488.998 314.999 m 1
 500.33 325.702 505.476 338.485 505.476 351 c 0
 505.476 380 478.997 404.638 431.997 404.638 c 0
 388.774 404.638 353.181 381 353.181 336 c 0
 353.181 332.228 353.46 328.864 353.997 325 c 1
 370.952 327.055 387.343 328.097 402.998 328.097 c 0
 435.998 328.097 464.458 323.764 488.998 314.999 c 1
500.997 288.999 m 1
 478.997 267.999 439.996 247.998 398.996 239.998 c 1
 418.329 231.331 431.996 216.331 431.996 196.998 c 0
 431.996 151.998 374.996 134.998 295.996 134.998 c 0
 240.322 134.998 171.996 148.998 171.996 197.998 c 0
 171.996 225.998 191.996 253.998 287.996 253.998 c 0
 310.996 253.998 358.09 255.451 388.997 260.999 c 0
 427.997 267.999 459.997 286.999 468.997 295.999 c 1
 500.997 288.999 l 1
297.996 231.998 m 0
 232.996 231.998 201.996 219.998 201.996 197.998 c 0
 201.996 174.998 234.329 160.998 298.996 160.998 c 0
 366.996 160.998 401.996 174.998 401.996 196.998 c 0
 401.996 221.674 367.996 231.998 297.996 231.998 c 0
EndSplineSet
EndChar

StartChar: si_Sa
Encoding: 3523 3523 58
Width: 677
GlyphClass: 2
Flags: MW
HStem: -1 72<177 237> 283 25<147 147 147 281 281 283 5 309 189.5 216 216 281 281 283 5 313> 291 25<434 462 433 493> 395 36.5<193.5 231 159.5 232.5>
VStem: 51 38<145.588 190> 82 74.5 283.086 30.0605 321 27<152 182> 540 39<340 362.5> 591 37<148 193.541 112 221.5>
LayerCount: 2
Fore
SplineSet
460 0 m 0xbbc0
 395.333 0 352 31 333 82 c 1
 312 30 271 -1 203 -1 c 0
 108 -1 51 76 51 154 c 0xbbc0
 51 226 92 269 144 285 c 1
 177.761 297.199 231.875 308 269 308 c 2
 283 308 l 1
 283.082 310.041 283.086 309.041 283.086 311 c 0
 283.086 357 251 395 214 395 c 0
 173 395 162 371 156.5 355 c 0
 149.951 335.948 139.871 323 118 323 c 0
 102 323 82 333.368 82 359 c 0
 82 406 132 431.5 187 431.5 c 0
 275 431.5 313.146 369 313.146 296 c 0
 313.146 292.722 313.101 286.388 313 283 c 1
 216 283 l 2xd7c0
 163 283 89 248 89 175 c 0
 89 116.177 142 71 212 71 c 0
 267.765 71 321 101.782 321 152 c 2
 321 182 l 1
 348 182 l 1
 348 152 l 2
 348 96.3262 409.229 71 471 71 c 0
 540 71 591 114 591 182 c 0
 591 261 536 291 450 291 c 0
 418 291 391 289 353 282 c 1
 352.814 285.706 352.717 287.374 352.717 291 c 0
 352.717 375 400.574 432 476 432 c 0
 530 432 579 408 579 350 c 0
 579 328.667 565 306 550 297 c 1
 597.333 273.667 628 221.082 628 166 c 0
 628 58 558 0 460 0 c 0xbbc0
147 283 m 1xd3c0
 76 282 21 278.667 5 276 c 1
 5 308 l 1
 281 308 l 1
 309 283 l 1
 147 283 l 1xd3c0
382 310 m 1
 393 313 421 316 445 316 c 0xb3c0
 479 316 503 313 525 306 c 1
 537 319 540 334 540 346 c 0
 540 379 506.478 393 470 393 c 0
 418 393 386.667 364.667 382 310 c 1
EndSplineSet
EndChar

StartChar: si_Ha
Encoding: 3524 3524 59
Width: 653
GlyphClass: 2
Flags: MW
HStem: -1.30331 27.5084 -0.762222 72.7622 212.412 24.7581 280.021 23.332 362 70.0093 383.056 48.9775
VStem: 32.9551 36.7952 206 33 239 22<182 192> 330.111 36.0512 557.148 47.8706
LayerCount: 2
Fore
SplineSet
261 182 m 1xbae0
 267.754 203.011 281.521 212.412 295.003 212.412 c 0
 315.003 212.412 330.114 194.87 330.114 164.323 c 0
 330.114 100.488 274.439 72 208.003 72 c 0
 133.66 72 69.7529 105.729 69.7529 175.359 c 0
 69.7529 245.325 125.003 280.021 205.003 280.021 c 0
 215.956 280.021 227.322 279.353 239.002 278 c 1x7ae0
 237.807 360.444 197.351 432.033 118.456 432.033 c 0
 61.7031 432.033 33.0244 394.208 33.0244 364 c 0
 33.0244 341 46.001 327.24 65.8037 327.24 c 0
 86.6738 327.24 100.001 340 106.001 355.692 c 0
 111.799 370.856 123.506 383.056 144.458 383.056 c 0
 182.001 383.056 206.001 345.316 206.001 303 c 1
 201.96 303.224 197.959 303.354 194.001 303.354 c 0
 100.001 303.354 32.9561 246.001 32.9561 155.114 c 0
 32.9561 61.0625 103.483 -0.760742 201.033 -0.760742 c 0x7760
 295.501 -0.760742 366.162 52.9941 366.162 145.352 c 0
 366.162 199.141 337.999 237.172 299.999 237.172 c 0
 290.633 237.172 280.833 234.533 270.998 229.001 c 1
 292.998 317.668 340.665 362.001 413.998 362.001 c 0
 504.792 362.001 557.146 288.17 557.146 192.822 c 0
 557.146 93.4072 486.998 26.2061 387.998 26.2061 c 0
 376.352 26.2061 364.327 27.0879 351.999 29.001 c 1
 351.999 2.00098 l 1
 365.992 -0.265625 379.685 -1.30273 392.999 -1.30273 c 0
 515.999 -1.30273 605.018 92.0049 605.018 210.962 c 0
 605.018 328.651 542.173 432.01 430.301 432.01 c 0
 329.087 432.01 248 317 239 192 c 1
 261 182 l 1xbae0
EndSplineSet
EndChar

StartChar: si_Lla
Encoding: 3525 3525 60
Width: 636
GlyphClass: 2
Flags: MW
HStem: -153 45<298.5 407.5> 43 61<288.414 375 288.414 385.5> 271 26<192 542> 404 28<231 278 223.523 280.5>
VStem: 31 65<65.0928 152.995> 126 31<220 319 220 323.5> 333 31<330 348> 542 34<297 316.5 271 324.5> 591 27<3 74>
LayerCount: 2
Fore
SplineSet
157 276 m 0
 157 362 203 404 259 404 c 0
 302 404 333 366 333 330 c 1
 364 330 l 1
 364 366 398 403 444 403 c 0
 510 403 542 352 542 297 c 1
 179 297 l 2
 80 297 31 191.989 31 114 c 0
 31 -57 168 -153 343 -153 c 0
 472 -153 618 -68 618 74 c 1
 591 74 l 1
 588.08 -29.6738 486 -108 373 -108 c 0
 224 -108 96 -11.8145 96 142 c 0
 96 234.04 150 271 192 271 c 2
 576 271 l 1
 576 362 532 432 445 432 c 0
 409 432 367 415 349 377 c 1
 333 415 296 432 260 432 c 0
 187.047 432 126 373 126 274 c 0
 126 138 217.771 43 334 43 c 0
 437 43 502 91 526 170 c 1
 497 170 l 1
 471 129.333 416 104 334 104 c 0
 242.827 104 157 164 157 276 c 0
EndSplineSet
EndChar

StartChar: si_Fa
Encoding: 3526 3526 61
Width: 607
GlyphClass: 2
Flags: MW
HStem: -1 27<151.5 188 404 440.5> 360 71<141 210 382 451>
VStem: 33 35<161 239 147.5 264> 280 32<222 263 222 263> 524 35<161 239>
CounterMasks: 1 38
LayerCount: 2
Fore
SplineSet
296 359 m 1
 280 398 246 431 186 431 c 0
 78 431 33 316 33 212 c 0
 33 110 80.8896 -1 182 -1 c 0
 194 -1 206.667 1.33301 220 6 c 1
 220 32 l 1
 209.333 28 198.333 26 187 26 c 0
 116 26 68 99 68 196 c 0
 68 282 98 360 184 360 c 0
 236 360 280 334 280 263 c 2
 280 222 l 1
 312 222 l 1
 312 263 l 2
 312 334 356 360 408 360 c 0
 494 360 524 282 524 196 c 0
 524 99 476 26 405 26 c 0
 393.667 26 382.667 28 372 32 c 1
 372 6 l 1
 385.333 1.33301 398 -1 410 -1 c 0
 511.11 -1 559 110 559 212 c 0
 559 316 514 431 406 431 c 0
 346 431 312 398 296 359 c 1
EndSplineSet
EndChar

StartChar: si_Halant
Encoding: 3530 3530 62
Width: 2
GlyphClass: 2
Flags: MW
HStem: 468 28<-75.3335 -61 -86.6665 -46.4043>
VStem: -140 27<348 478 331 503 503 638> -27 37<533 566>
LayerCount: 2
Fore
SplineSet
-140 348 m 1
 -140 681 l 1
 -86 639 10 634 10 542 c 0
 10 498 -24.8086 468 -68 468 c 0
 -82.667 468 -97.667 471.333 -113 478 c 1
 -113 331 l 1
 -140 348 l 1
-113 638 m 1
 -113 503 l 1
 -104.333 498.333 -93.333 496 -80 496 c 0
 -42 496 -27 521 -27 545 c 0
 -27 587 -66 607 -113 638 c 1
EndSplineSet
EndChar

StartChar: si_MatraAa
Encoding: 3535 3535 63
Width: 312
GlyphClass: 2
Flags: MW
HStem: -1 37.4004 365.6 37.4004
VStem: 22 27<92.9302 113.803 288.197 309.07> 204 66<145.77 256.23>
LayerCount: 2
Fore
SplineSet
204 201 m 0
 204 90.54 176.998 36.9258 118 36.4004 c 0
 73 36 49 68.6904 49 117.17 c 0
 49 122.557 49.333 127.606 50 132.32 c 1
 23 132.32 l 1
 22.333 124.914 22 117.507 22 110.1 c 0
 22 41.2715 65.5879 -1 133 -1 c 0
 224 -1 270 72.7305 270 201 c 0
 270 329.27 224 403 133 403 c 0
 74 403 22 360.729 22 291.9 c 0
 22 284.494 22.333 277.086 23 269.68 c 1
 50 269.68 l 1
 49.333 274.394 49 279.443 49 284.83 c 0
 49 333.31 80 365.6 118 365.6 c 0
 177 365.6 204 311.46 204 201 c 0
EndSplineSet
EndChar

StartChar: si_MatraAe
Encoding: 3536 3536 64
Width: 334
GlyphClass: 2
Flags: MW
HStem: -147 54<164.5 270.333> 313 26<3 211 3 248.999>
VStem: 84 69
LayerCount: 2
Fore
SplineSet
3 339 m 1
 248.999 339 l 1
 248.332 337 247.332 331.667 245.999 323 c 1
 177.999 223 152.999 129 152.999 50 c 0
 152.999 -54 205.999 -93 263.999 -93 c 0
 276.666 -93 289.333 -91.333 302 -88 c 1
 306 -106 l 1
 278.667 -136.667 248 -147 207 -147 c 0
 122 -147 84 -73 84 14 c 0
 84 133 158 254 211 313 c 1
 3 313 l 1
 3 339 l 1
EndSplineSet
EndChar

StartChar: si_MatraAae
Encoding: 3537 3537 65
Width: 336
GlyphClass: 2
Flags: MW
HStem: -148 42<183.704 306> 199 24<122 235> 315 24<4 205 4 249>
VStem: 90 69<-30.5 33>
LayerCount: 2
Fore
SplineSet
4 339 m 1
 249 339 l 1
 249 317 l 1
 122 223 l 1
 272 223 l 1
 272 201 l 1
 226 168 159 96 159 13 c 0
 159 -74 217.188 -106 306 -106 c 1
 306 -131 l 1
 280.667 -142.333 254.333 -148 229 -148 c 0
 138.408 -148 90 -91.2393 90 -12 c 0
 90 78 169.631 155.42 235 199 c 1
 72 199 l 1
 72 218 l 1
 205 315 l 1
 4 315 l 1
 4 339 l 1
EndSplineSet
EndChar

StartChar: si_MatraI
Encoding: 3538 3538 66
Width: 2
GlyphClass: 2
Flags: MW
HStem: 405 21<-402 -402> 598 73<-357.454 -268.546>
VStem: -545 34<481.5 544.544 481.5 572.146> -115 34<481.5 544.544>
LayerCount: 2
Fore
SplineSet
-313 671 m 0
 -432.379 671 -545 626.291 -545 518 c 0
 -545 443.457 -478.857 408.074 -402 405 c 1
 -402 426 l 1
 -455.676 428.825 -511 454 -511 509 c 0
 -511 580.089 -401.908 598 -313 598 c 0
 -224.092 598 -115 580.089 -115 509 c 0
 -115 454 -170.324 428.825 -224 426 c 1
 -224 405 l 1
 -147.143 408.074 -81 443.457 -81 518 c 0
 -81 626.291 -193.621 671 -313 671 c 0
EndSplineSet
EndChar

StartChar: si_MatraIi
Encoding: 3539 3539 67
Width: 2
GlyphClass: 2
Flags: MW
HStem: 406 20<-497 -490> 429 29<-202 -166 -202 -155.861> 600 71<-382.082 -308>
VStem: -587 37<486.5 538.5 479.667 570.605> -282 32<498.5 529.5 498.5 537.5> -118 35<498.5 529.5>
LayerCount: 2
Fore
SplineSet
-250 514 m 0
 -250 483 -220 458 -184 458 c 0
 -148 458 -118 483 -118 514 c 0
 -118 545 -148 570 -184 570 c 0
 -220 570 -250 545 -250 514 c 0
-497 406 m 1
 -550.245 410.733 -587 456 -587 517 c 0
 -587 624.211 -463.054 671 -336 671 c 0
 -219.286 671 -83 627.399 -83 524 c 0
 -83 468.769 -127.723 429 -184 429 c 0
 -242 429 -282 470 -282 515 c 0
 -282 560 -250 582 -231 591 c 1
 -242 594 -281 600 -335 600 c 0
 -429.164 600 -550 578 -550 499 c 0
 -550 460.333 -528 435 -490 426 c 1
 -497 406 l 1
EndSplineSet
EndChar

StartChar: si_MatraU
Encoding: 3540 3540 68
Width: 2
GlyphClass: 2
Flags: MW
HStem: -235 36<-515.5 -89 -479 -89 -479 -56> -81 30<-508.815 -474.5>
VStem: -594 35<-162.5 -123 -162.5 -119.5> -89 33<-199 128 128 128>
LayerCount: 2
Fore
SplineSet
-56 219 m 1
 -56 -235 l 1
 -482 -235 l 2
 -549 -235 -594 -203 -594 -149 c 0
 -594 -90 -549.819 -51 -495 -51 c 0
 -451 -51 -418.333 -68 -399 -110 c 1
 -429 -122 l 1
 -438 -99 -458 -81 -491 -81 c 0
 -526.63 -81 -559 -103 -559 -143 c 0
 -559 -182 -530 -199 -479 -199 c 2
 -89 -199 l 1
 -89 128 l 1
 -56 219 l 1
EndSplineSet
EndChar

StartChar: si_MatraUu
Encoding: 3542 3542 69
Width: 2
GlyphClass: 2
Flags: MW
HStem: -247 46<-493.5 -430 -493.5 -422> -154 27<-252.5 -188.5 -257.5 -173> -78 28<-494.5 -460.5>
VStem: -582 36<-157.683 -120.5 -157.683 -119> -91 33<-178 142 142 142> -81 23<-241 202>
LayerCount: 2
Fore
SplineSet
-58 202 m 1xf4
 -58 -241 l 1
 -81 -241 l 1xf4
 -96 -205 -139 -154 -207 -154 c 0
 -298 -154 -373 -247 -471 -247 c 0
 -526 -247 -582 -216 -582 -148 c 0
 -582 -90 -533 -50 -480 -50 c 0
 -438 -50 -405.667 -65 -383 -101 c 1
 -413 -112 l 1
 -425 -93 -446 -78 -475 -78 c 0
 -514 -78 -546 -102 -546 -139 c 0
 -546 -176.366 -515 -201 -472 -201 c 0
 -388 -201 -305 -127 -210 -127 c 0
 -167 -127 -118 -146 -91 -178 c 1
 -91 142 l 1xf8
 -58 202 l 1xf4
EndSplineSet
EndChar

StartChar: si_MatraR
Encoding: 3544 3544 70
Width: 313
GlyphClass: 2
Flags: MW
HStem: -1 29<112.41 146 112.41 148> 17 26<196.923 197.667 191.13 206.667> 195 27<195.5 203> 358 35<107.143 154.5>
VStem: 33 30<85.8252 128.772 85.8252 129.667> 202 45 203.157 60.8428
LayerCount: 2
Fore
SplineSet
58 242 m 1xbc
 33 242 l 1
 32.918 244.678 32.8818 246.345 32.8818 249 c 0
 32.8818 329 69.0088 393 143 393 c 0
 229.896 393 264 298 264 203 c 0xba
 264 144 247 52.4365 247 23 c 0
 247 15.667 247.333 9 248 3 c 1
 218 3 l 1
 215.333 12.333 210.333 17 203 17 c 0x7c
 190.847 17 165 -1 131 -1 c 0
 72 -1 33 49.2598 33 106 c 0
 33 153.333 55 186.333 99 205 c 0
 125 216.333 166 222 203 222 c 1
 203 312 176 358 133 358 c 0
 81.2852 358 57.9531 308 57.9531 246 c 0
 57.9531 244.333 57.9639 243.666 58 242 c 1xbc
203 195 m 1
 188 195 152 194 123 185 c 0
 87.3154 173.926 63 150.545 63 107 c 0
 63 64.6504 91.8193 28 133 28 c 0xba
 159 28 186.26 43 196 43 c 0
 199.333 43 202.333 42 205 40 c 1
 203 53.333 202 78.833 202 116.5 c 0x7c
 202 147.879 203.157 168 203.157 186 c 0
 203.157 188.996 203.111 192.663 203 195 c 1
EndSplineSet
EndChar

StartChar: si_MatraE
Encoding: 3545 3545 71
Width: 603
GlyphClass: 2
Flags: MW
HStem: 0 71<216.143 313.5 216.143 340.5> 166 32.0752<276 306 276 313.5> 291.925 30.0752 404 28<244.088 365.5>
VStem: 33 43<190 279.428> 203 33<232.249 257.751 232.249 265.794> 346 33<232.249 248 216 257.751> 455 36<146.958 216.456> 555 29<206 206>
LayerCount: 2
Fore
SplineSet
236 245 m 0
 236 219.497 261 198.075 291 198.075 c 0
 321 198.075 346 219.497 346 245 c 0
 346 270.503 321 291.925 291 291.925 c 0
 261 291.925 236 270.503 236 245 c 0
584 206 m 1
 555 206 l 1
 537 324 430 404 301 404 c 0
 187.176 404 76 340 76 238 c 0
 76 142 163.286 71 269 71 c 0
 358 71 455 104.917 455 189 c 0
 455 243.911 408.952 277.676 360 287 c 1
 372.667 273 379 256 379 240 c 0
 379 192 335 166 292 166 c 0
 246 166 203 198 203 242 c 0
 203 289.588 248 322 304 322 c 0
 406 322 491 268 491 168 c 0
 491 68 412 0 269 0 c 0
 134 0 33 83.6289 33 212 c 0
 33 346.856 160.55 432 301 432 c 0
 448.707 432 571.822 339.956 584 206 c 1
EndSplineSet
EndChar

StartChar: si_MatraLs
Encoding: 3551 3551 77
Width: 441
GlyphClass: 2
Flags: MW
HStem: -2 28 212 26 407 25
VStem: 33 29<299.145 345.333> 134 27<98.0078 126> 165.139 27.7229 186 43<275.729 298.667> 323 70<168.999 267.793 160.5 294.008>
LayerCount: 2
Fore
SplineSet
105 428 m 1xfb
 70 427.999 l 1
 49 403.999 33 369.666 33 320.999 c 0
 33 261.447 72 211.999 135 211.999 c 0
 185.493 211.999 229 237.915 229 287.999 c 0xfb
 229 311.999 217 330.332 193 342.999 c 1
 192.863 345.384 192.861 347.718 192.861 349.999 c 0
 192.861 388.999 214 406.999 248 406.999 c 0
 296 406.999 323 350.017 323 237.999 c 0
 323 99.999 300 25.999 241 25.999 c 0
 188.384 25.999 161 71.0166 161 124.999 c 0
 161 135.666 162 146.333 164 157 c 1
 138 157 l 1
 135.333 144.333 134 132 134 120 c 0
 134 53.9697 171 -2 245 -2 c 0
 350 -2 393 101 393 220 c 0
 393 315.587 362 432 259 432 c 0
 193.308 432 165.139 398 165.139 349 c 0xfd
 165.139 344.207 165.434 342.207 166 337 c 1
 179.333 323 186 307.333 186 290 c 0
 186 261.458 168 238 134 238 c 0
 88.3799 238 62 276.29 62 322 c 0
 62 374.667 83 410 105 428 c 1xfb
EndSplineSet
EndChar

StartChar: si_MatraLl
Encoding: 3571 3571 78
Width: 441
GlyphClass: 2
Flags: MW
HStem: -2 28 212 26 407 25
VStem: 33 29<299.145 345.333> 134 27<98.0078 126> 165.139 27.7229 186 43<275.729 298.667> 323 70<168.999 267.793 160.5 294.008>
LayerCount: 2
Fore
SplineSet
105 428 m 1xfb
 70 427.999 l 1
 49 403.999 33 369.666 33 320.999 c 0
 33 261.447 72 211.999 135 211.999 c 0
 185.493 211.999 229 237.915 229 287.999 c 0xfb
 229 311.999 217 330.332 193 342.999 c 1
 192.863 345.384 192.861 347.718 192.861 349.999 c 0
 192.861 388.999 214 406.999 248 406.999 c 0
 296 406.999 323 350.017 323 237.999 c 0
 323 99.999 300 25.999 241 25.999 c 0
 188.384 25.999 161 71.0166 161 124.999 c 0
 161 135.666 162 146.333 164 157 c 1
 138 157 l 1
 135.333 144.333 134 132 134 120 c 0
 134 53.9697 171 -2 245 -2 c 0
 350 -2 393 101 393 220 c 0
 393 315.587 362 432 259 432 c 0
 193.308 432 165.139 398 165.139 349 c 0xfd
 165.139 344.207 165.434 342.207 166 337 c 1
 179.333 323 186 307.333 186 290 c 0
 186 261.458 168 238 134 238 c 0
 88.3799 238 62 276.29 62 322 c 0
 62 374.667 83 410 105 428 c 1xfb
EndSplineSet
EndChar

StartChar: si_MatraRr
Encoding: 3570 3570 79
Width: 571
GlyphClass: 2
Flags: MW
HStem: -1 29<112.41 146 112.41 148 371.41 405> 17 26<196.923 197.667 191.13 206.667 455.923 456.667> 195 27<195.5 203 454.5 462> 358 35<107.143 154.5 366.143 413.5>
VStem: 33 30<85.8252 128.772 85.8252 129.667> 202 45 203.157 60.8428 292 30<85.8252 128.772 85.8252 129.667> 461 45 462.157 60.8428
LayerCount: 2
Fore
SplineSet
317 242 m 1xb980
 292 242 l 1
 291.918 244.678 291.882 246.345 291.882 249 c 0
 291.882 329 328.009 393 402 393 c 0
 488.896 393 523 298 523 203 c 0xb940
 523 144 506 52.4365 506 23 c 0
 506 15.667 506.333 9 507 3 c 1
 477 3 l 1
 474.333 12.333 469.333 17 462 17 c 0x7980
 449.847 17 424 -1 390 -1 c 0
 331 -1 292 49.2598 292 106 c 0
 292 153.333 314 186.333 358 205 c 0
 384 216.333 425 222 462 222 c 1
 462 312 435 358 392 358 c 0
 340.285 358 316.953 308 316.953 246 c 0
 316.953 244.333 316.964 243.666 317 242 c 1xb980
462 195 m 1
 447 195 411 194 382 185 c 0
 346.315 173.926 322 150.545 322 107 c 0
 322 64.6504 350.819 28 392 28 c 0xb940
 418 28 445.26 43 455 43 c 0
 458.333 43 461.333 42 464 40 c 1
 462 53.333 461 78.833 461 116.5 c 0x7980
 461 147.879 462.157 168 462.157 186 c 0
 462.157 188.996 462.111 192.663 462 195 c 1
58 242 m 1
 33 242 l 1
 32.918 244.678 32.8818 246.345 32.8818 249 c 0
 32.8818 329 69.0088 393 143 393 c 0
 229.896 393 264 298 264 203 c 0xbb
 264 144 247 52.4365 247 23 c 0
 247 15.667 247.333 9 248 3 c 1
 218 3 l 1
 215.333 12.333 210.333 17 203 17 c 0x7d
 190.847 17 165 -1 131 -1 c 0
 72 -1 33 49.2598 33 106 c 0
 33 153.333 55 186.333 99 205 c 0
 125 216.333 166 222 203 222 c 1
 203 312 176 358 133 358 c 0
 81.2852 358 57.9531 308 57.9531 246 c 0
 57.9531 244.333 57.9639 243.666 58 242 c 1
203 195 m 1
 188 195 152 194 123 185 c 0
 87.3154 173.926 63 150.545 63 107 c 0
 63 64.6504 91.8193 28 133 28 c 0xbb
 159 28 186.26 43 196 43 c 0
 199.333 43 202.333 42 205 40 c 1
 203 53.333 202 78.833 202 116.5 c 0x7d
 202 147.879 203.157 168 203.157 186 c 0
 203.157 188.996 203.111 192.663 203 195 c 1
EndSplineSet
EndChar

StartChar: si_MatraU.alt
Encoding: 65538 -1 85
Width: 2
GlyphClass: 2
Flags: MW
HStem: -192 59
VStem: -313 36<-88.501 -55.001> -66.3076 31.7421
LayerCount: 2
Fore
SplineSet
-37 -36 m 1
 -34.6455 -45.416 -34.5654 -54.791 -34.5654 -64.001 c 0
 -34.5654 -129.001 -88 -192.001 -173 -192.001 c 0
 -247 -192.001 -313 -159.001 -313 -80.001 c 0
 -313 -30.001 -284 3.99902 -245 20.999 c 1
 -236 1.99902 l 1
 -261 -12.001 -277 -34.001 -277 -63.001 c 0
 -277 -114.001 -224 -133.001 -170 -133.001 c 0
 -113 -133.001 -66.3076 -95.001 -66.3076 -45.001 c 0
 -66.3076 -42.04 -66.5811 -39.0381 -67 -36 c 1
 -37 -36 l 1
EndSplineSet
EndChar

StartChar: si_MatraUu.alt
Encoding: 65539 -1 86
Width: 2
GlyphClass: 2
Flags: MW
HStem: -205 50<-191.038 -143 -191.038 -131>
VStem: -294 40<-130.5 -111.174> -70.2715 31.5752
LayerCount: 2
Fore
SplineSet
-43 -59 m 1
 -39.4092 -71.1182 -38.6963 -82.833 -38.6963 -94 c 0
 -38.6963 -161 -90 -205 -172 -205 c 0
 -230 -205 -294 -187.466 -294 -129 c 0
 -294 -93.3486 -267 -72 -230 -67 c 1
 -285 -39 l 1
 -198 -14 l 1
 -240 2 l 1
 -215 11 l 1
 -148 -14 l 1
 -234 -42 l 1
 -169 -76 l 1
 -197 -83 -254 -84 -254 -115 c 0
 -254 -146 -212.076 -155 -170 -155 c 0
 -116 -155 -70.2715 -131 -70.2715 -82 c 0
 -70.2715 -77 -70.8066 -69.3867 -76 -59 c 1
 -43 -59 l 1
EndSplineSet
EndChar

StartChar: si_Reph
Encoding: 65548 -1 95
Width: 2
GlyphClass: 3
Flags: MW
HStem: 450 28.8066 553.193 23.8066 608.75 27.25<-347.389 -290.5>
VStem: -460 31.25<515.462 561.278 515.462 567> -385 27.0859 -276.086 27.0859 -209.25 30.25<510 549.621>
LayerCount: 2
Fore
SplineSet
-357.914 516 m 0
 -357.914 495.446 -339.316 478.807 -317 478.807 c 0
 -294.684 478.807 -276.086 495.446 -276.086 516 c 0
 -276.086 536.554 -294.684 553.193 -317 553.193 c 0
 -339.316 553.193 -357.914 536.554 -357.914 516 c 0
-364.5 475.25 m 1
 -372.5 481.25 -385 496 -385 517 c 0
 -385 552 -353.646 577 -318 577 c 0
 -277 577 -249 550 -249 515 c 0
 -249 476 -284 450 -342 450 c 0
 -401 450 -460 479 -460 535 c 0
 -460 599 -401.88 636 -320 636 c 0
 -243 636 -179 593 -179 522 c 0
 -179 498 -187.333 476.333 -204 457 c 1
 -237.75 457 l 1
 -224.58 469.387 -209.25 493.734 -209.25 521 c 0
 -209.25 578.241 -260 608.75 -321 608.75 c 0
 -373.778 608.75 -428.75 587.556 -428.75 535 c 0
 -428.75 495.925 -387.696 477.216 -364.5 475.25 c 1
EndSplineSet
Ligature2: "'rphf' Reph Form in Sinhala lookup 2 subtable" si_Ra si_Halant
EndChar

StartChar: si_Rakar
Encoding: 65554 -1 101
Width: 2
GlyphClass: 2
Flags: MW
HStem: -219 62
VStem: -89 26<-19.999 56.3335 -42.8647 60.501>
LayerCount: 2
Fore
SplineSet
-572 -44 m 1
 -536.667 -119.333 -466.333 -156.999 -361 -156.999 c 0
 -218 -156.999 -89 -89.999 -89 50.001 c 0
 -89 71.001 -94 93.001 -101 102.001 c 1
 -90 133.001 l 1
 -72 106.334 -63 74.667 -63 38 c 0
 -63 -123.729 -201 -219 -345 -219 c 0
 -478 -219 -561.667 -153.333 -599 -44 c 1
 -572 -44 l 1
EndSplineSet
EndChar

StartChar: si_K.halant
Encoding: 65556 -1 103
Width: 746
GlyphClass: 3
Flags: MW
HStem: -1 27<548 582 545 607.5> -1 72<170.5 224.591 170.5 225.011 374 423.044> 73 27<85.6665 103.5 85.6665 103.5> 291 25<288.333 349.439> 368 66<409.5 467.171> 392 41<151 160.856 107.682 170.704> 467 28<615.667 630 604.333 644.596>
VStem: 21 26<11 22> 29 77 193 27.0791<353.734 363> 281 26<162 163 129.463 163> 474 41<141 188.5 96.9238 200.5> 551 27<347 477 330 502 502 637> 649 52<151 219> 664 37<532 565>
LayerCount: 2
Fore
SplineSet
106 323 m 0x76f8
 99 305 84 297 69 297 c 0
 35 297 29 328 29 340 c 0
 29 394.099 79.3633 433 136 433 c 0x76f8
 185.712 433 220.079 402 220.079 356 c 0
 220.079 351.468 219.724 345.795 219 341 c 1
 281 401 366 434 453 434 c 0
 603 434 701 328 701 192 c 0
 701 110 659 -1 556 -1 c 0
 540 -1 518 2 506 11 c 1
 506 38 l 1
 516 31 533 26 557 26 c 0xbafc
 607 26 649 80 649 153 c 0
 649 285 534.342 368 400 368 c 0
 326.667 368 266 348 219 308 c 1
 243 314 274.667 316 302 316 c 0
 422 316 515 251 515 126 c 0
 515 67.8477 482 -1 397 -1 c 0
 351 -1 317.333 20.333 296 63 c 1
 278.667 21.667 246.021 -1 204 -1 c 0
 117 -1 120 73 87 73 c 0
 64.6748 73 50 51 47 11 c 1
 21 22 l 1x7b7c
 28.6963 91.2695 74.4521 184.165 109 232 c 0
 135 268 150 282 168 301 c 0
 180 314 193 330 193 352 c 0
 193 374 183.408 392 158 392 c 0
 144 392 122.479 384.287 116 363 c 0
 109 340 112.653 340.109 106 323 c 0x76f8
182 273 m 1
 164.667 258.333 145 234.667 129 212 c 0
 100.333 171.333 80.667 131.667 70 95 c 1
 76 98.333 82.333 100 89 100 c 0
 118 100 142 71 199 71 c 0
 250.183 71 281 101.864 281 162 c 2
 281 163 l 1
 307 163 l 1
 307 162 l 2
 307 96.9268 334 71 392 71 c 0
 454.089 71 474 123 474 159 c 0
 474 242 400.879 291 298 291 c 0
 241.333 291 203 282 182 273 c 1
551 347 m 1
 551 680 l 1
 605 638 701 633 701 541 c 0x327a
 701 497 666.191 467 623 467 c 0
 608.333 467 593.333 470.333 578 477 c 1
 578 330 l 1
 551 347 l 1
578 637 m 1
 578 502 l 1
 586.667 497.333 597.667 495 611 495 c 0
 649 495 664 520 664 544 c 0
 664 586 625 606 578 637 c 1
EndSplineSet
Ligature2: "'haln' Halant Forms in Sinhala lookup 3 subtable" si_Ka si_Halant
EndChar

StartChar: si_KI
Encoding: 65557 -1 104
Width: 746
GlyphClass: 3
Flags: MW
HStem: -1 27<548 582 545 607.5> -1 72<170.5 224.591 170.5 225.011 374 423.044> 73 27<85.6665 103.5 85.6665 103.5> 291 25<288.333 349.439> 368 66<409.5 467.171> 392 41<151 160.856 107.682 170.704> 598 73<404.5 514>
VStem: 21 26<11 22> 29 77 193 27.0791<353.734 363> 218 26<405.418 465.818 396.667 505.5> 281 26<162 163 129.463 163> 474 41<141 188.5 96.9238 200.5> 649 52<151 219> 656 32<474.5 530>
LayerCount: 2
Fore
SplineSet
106 323 m 0x76d8
 99 305 84 297 69 297 c 0
 35 297 29 328 29 340 c 0
 29 394.099 79.3633 433 136 433 c 0x76d8
 185.712 433 220.079 402 220.079 356 c 0
 220.079 351.468 219.724 345.795 219 341 c 1
 281 401 366 434 453 434 c 0
 603 434 701 328 701 192 c 0
 701 110 659 -1 556 -1 c 0
 540 -1 518 2 506 11 c 1
 506 38 l 1
 516 31 533 26 557 26 c 0xbadc
 607 26 649 80 649 153 c 0
 649 285 534.342 368 400 368 c 0
 326.667 368 266 348 219 308 c 1
 243 314 274.667 316 302 316 c 0
 422 316 515 251 515 126 c 0
 515 67.8477 482 -1 397 -1 c 0
 351 -1 317.333 20.333 296 63 c 1
 278.667 21.667 246.021 -1 204 -1 c 0
 117 -1 120 73 87 73 c 0
 64.6748 73 50 51 47 11 c 1
 21 22 l 1x7b5c
 28.6963 91.2695 74.4521 184.165 109 232 c 0
 135 268 150 282 168 301 c 0
 180 314 193 330 193 352 c 0
 193 374 183.408 392 158 392 c 0
 144 392 122.479 384.287 116 363 c 0
 109 340 112.653 340.109 106 323 c 0x76d8
182 273 m 1
 164.667 258.333 145 234.667 129 212 c 0
 100.333 171.333 80.667 131.667 70 95 c 1
 76 98.333 82.333 100 89 100 c 0
 118 100 142 71 199 71 c 0
 250.183 71 281 101.864 281 162 c 2
 281 163 l 1
 307 163 l 1
 307 162 l 2
 307 96.9268 334 71 392 71 c 0
 454.089 71 474 123 474 159 c 0
 474 242 400.879 291 298 291 c 0
 241.333 291 203 282 182 273 c 1
610 383 m 1
 578 403 l 1
 618 405 656 440 656 486 c 0
 656 574 555 598 473 598 c 0
 336 598 244 527.637 244 404 c 0
 244 389.333 245.667 376.333 249 365 c 1
 225 343 l 1
 220.903 360.752 218 389.837 218 421 c 0
 218 590 330 671 473 671 c 0
 603 671 688 610 688 505 c 0x323a
 688 444 658 402 610 383 c 1
EndSplineSet
Ligature2: "'abvs' Above Base Substitutions in Sinhala lookup 4 subtable" si_Ka si_MatraI
EndChar

StartChar: si_KIi
Encoding: 65558 -1 105
Width: 746
GlyphClass: 3
Flags: MW
HStem: -1 27<548 582 545 607.5> -1 72<170.5 224.591 170.5 225.011 374 423.044> 73 27<85.6665 103.5 85.6665 103.5> 291 25<288.333 349.439> 368 66<409.5 467.171> 392 41<151 160.856 107.682 170.704> 534.71 31.29 598 73<404.5 496.473>
VStem: 21 26<11 22> 29 77 193 27.0791<353.734 363> 218 26<405.418 465.818 396.667 505.5> 281 26<162 163 129.463 163> 474 41<141 188.5 96.9238 200.5> 500 31.1104 649 52<151 219> 650.89 38.1104
LayerCount: 2
Fore
SplineSet
106 323 m 0x7768
 99 305 84 297 69 297 c 0
 35 297 29 328 29 340 c 0
 29 394.099 79.3633 433 136 433 c 0x7768
 185.712 433 220.079 402 220.079 356 c 0
 220.079 351.468 219.724 345.795 219 341 c 1
 281 401 366 434 453 434 c 0
 603 434 701 328 701 192 c 0
 701 110 659 -1 556 -1 c 0
 540 -1 518 2 506 11 c 1
 506 38 l 1
 516 31 533 26 557 26 c 0xbb69
 607 26 649 80 649 153 c 0
 649 285 534.342 368 400 368 c 0
 326.667 368 266 348 219 308 c 1
 243 314 274.667 316 302 316 c 0
 422 316 515 251 515 126 c 0
 515 67.8477 482 -1 397 -1 c 0
 351 -1 317.333 20.333 296 63 c 1
 278.667 21.667 246.021 -1 204 -1 c 0
 117 -1 120 73 87 73 c 0
 64.6748 73 50 51 47 11 c 1
 21 22 l 1x7bad
 28.6963 91.2695 74.4521 184.165 109 232 c 0
 135 268 150 282 168 301 c 0
 180 314 193 330 193 352 c 0
 193 374 183.408 392 158 392 c 0
 144 392 122.479 384.287 116 363 c 0
 109 340 112.653 340.109 106 323 c 0x7768
182 273 m 1
 164.667 258.333 145 234.667 129 212 c 0
 100.333 171.333 80.667 131.667 70 95 c 1
 76 98.333 82.333 100 89 100 c 0
 118 100 142 71 199 71 c 0
 250.183 71 281 101.864 281 162 c 2
 281 163 l 1
 307 163 l 1
 307 162 l 2
 307 96.9268 334 71 392 71 c 0
 454.089 71 474 123 474 159 c 0x730c
 474 242 400.879 291 298 291 c 0
 241.333 291 203 282 182 273 c 1
531.11 476 m 0x330a80
 531.11 444.07 558.429 417.29 591 417.29 c 0
 623.571 417.29 650.89 444.07 650.89 476 c 0
 650.89 507.93 623.571 534.71 591 534.71 c 0
 558.429 534.71 531.11 507.93 531.11 476 c 0x330a80
593 388 m 0
 535 388 500 433 500 477 c 0
 500 529 541 566 591 566 c 0
 596.335 566 608 565 620 561.896 c 1
 581 590 519.945 598 473 598 c 0
 336 598 244 527.637 244 404 c 0
 244 389.333 245.667 376.333 249 365 c 1
 225 343 l 1
 220.903 360.752 218 389.837 218 421 c 0x331a80
 218 590 330 671 473 671 c 0
 603 671 689 600 689 495 c 0
 689 444 651 388 593 388 c 0
EndSplineSet
Ligature2: "'abvs' Above Base Substitutions in Sinhala lookup 5 subtable" si_Ka si_MatraIi
EndChar

StartChar: si_KU
Encoding: 65559 -1 106
Width: 746
GlyphClass: 3
Flags: MW
HStem: -191.5 59.5<557.774 614 557.774 629.351> -1 72<170.5 224.591 170.5 225.011 374 423.044> 0 27<556 581.5 550.5 610.5> 73 27<85.6665 103.5 85.6665 103.5> 291 25<288.333 349.439> 368 66<409.5 467.171> 392 41<151 160.856 107.682 170.704>
VStem: 21 26<11 22> 29 77 193 27.0791<353.734 363> 281 26<162 163 129.463 163> 444 37.5<-85.7085 -55.25> 474 41<141 188.5 96.9238 200.5> 649 52<152 219> 691.692 31.7422
LayerCount: 2
Fore
SplineSet
481.5 -63 m 0x9872
 481.5 -108.417 532.048 -132 583.5 -132 c 0
 644.5 -132 691.692 -93.7344 691.692 -45 c 0
 691.692 -42.0391 691.419 -39.0381 691 -36 c 1
 721 -36 l 1
 723.354 -45.416 723.435 -60.29 723.435 -69.5 c 0
 723.435 -122.146 679.701 -191.5 579 -191.5 c 0
 515.71 -191.5 444 -149.233 444 -80 c 0
 444 -30.5 474 9 517 21 c 1
 523 -6 l 1
 501 -14 481.5 -34 481.5 -63 c 0x9872
106 323 m 0xdae0
 99 305 84 297 69 297 c 0
 35 297 29 328 29 340 c 0
 29 394.099 79.3633 433 136 433 c 0xdae0
 185.712 433 220.079 402 220.079 356 c 0
 220.079 351.468 219.724 345.795 219 341 c 1
 281 401 366 434 453 434 c 0
 603 434 701 328 701 192 c 0
 701 112 656 0 565 0 c 0
 547 0 530 -3 520 -7 c 1
 512 19 l 1
 521 24 545 27 556 27 c 0xbce4
 607 27 649 74 649 153 c 0
 649 285 534.342 368 400 368 c 0
 326.667 368 266 348 219 308 c 1
 243 314 274.667 316 302 316 c 0
 422 316 515 251 515 126 c 0
 515 67.8477 482 -1 397 -1 c 0
 351 -1 317.333 20.333 296 63 c 1
 278.667 21.667 246.021 -1 204 -1 c 0
 117 -1 120 73 87 73 c 0
 64.6748 73 50 51 47 11 c 1
 21 22 l 1xdd6c
 28.6963 91.2695 74.4521 184.165 109 232 c 0
 135 268 150 282 168 301 c 0
 180 314 193 330 193 352 c 0
 193 374 183.408 392 158 392 c 0
 144 392 122.479 384.287 116 363 c 0
 109 340 112.653 340.109 106 323 c 0xdae0
182 273 m 1
 164.667 258.333 145 234.667 129 212 c 0
 100.333 171.333 80.667 131.667 70 95 c 1
 76 98.333 82.333 100 89 100 c 0
 118 100 142 71 199 71 c 0
 250.183 71 281 101.864 281 162 c 2
 281 163 l 1
 307 163 l 1
 307 162 l 2
 307 96.9268 334 71 392 71 c 0
 454.089 71 474 123 474 159 c 0xd868
 474 242 400.879 291 298 291 c 0
 241.333 291 203 282 182 273 c 1
EndSplineSet
Ligature2: "'blws' Below Base Substitutions in Sinhala lookup 11 subtable" si_Ka si_MatraU
EndChar

StartChar: si_KUu
Encoding: 65560 -1 107
Width: 746
GlyphClass: 3
Flags: MW
HStem: -205 50<548.962 597 548.962 609> -1 72<170.5 224.591 170.5 225.011 374 423.044> 73 27<85.6665 103.5 85.6665 103.5> 291 25<288.333 349.439> 368 66<409.5 467.171> 392 41<151 160.856 107.682 170.704>
VStem: 21 26<11 22> 29 77 193 27.0791<353.734 363> 281 26<162 163 129.463 163> 446 40<-130.5 -111.174> 474 41<141 188.5 96.9238 200.5> 649 52<151 219> 669.729 31.5752
LayerCount: 2
Fore
SplineSet
106 323 m 0xf5c0
 99 305 84 297 69 297 c 0
 35 297 29 328 29 340 c 0
 29 394.099 79.3633 433 136 433 c 0xf5c0
 185.712 433 220.079 402 220.079 356 c 0
 220.079 351.468 219.724 345.795 219 341 c 1
 281 401 366 434 453 434 c 0
 603 434 701 328 701 192 c 0
 701 110 659 -1 556 -1 c 0
 540 -1 518 2 506 11 c 1
 506 38 l 1
 516 31 533 26 557 26 c 0
 607 26 649 80 649 153 c 0
 649 285 534.342 368 400 368 c 0
 326.667 368 266 348 219 308 c 1
 243 314 274.667 316 302 316 c 0
 422 316 515 251 515 126 c 0
 515 67.8477 482 -1 397 -1 c 0
 351 -1 317.333 20.333 296 63 c 1
 278.667 21.667 246.021 -1 204 -1 c 0
 117 -1 120 73 87 73 c 0
 64.6748 73 50 51 47 11 c 1
 21 22 l 1xfad8
 28.6963 91.2695 74.4521 184.165 109 232 c 0
 135 268 150 282 168 301 c 0
 180 314 193 330 193 352 c 0
 193 374 183.408 392 158 392 c 0
 144 392 122.479 384.287 116 363 c 0
 109 340 112.653 340.109 106 323 c 0xf5c0
182 273 m 1
 164.667 258.333 145 234.667 129 212 c 0
 100.333 171.333 80.667 131.667 70 95 c 1
 76 98.333 82.333 100 89 100 c 0
 118 100 142 71 199 71 c 0
 250.183 71 281 101.864 281 162 c 2
 281 163 l 1
 307 163 l 1
 307 162 l 2
 307 96.9268 334 71 392 71 c 0
 454.089 71 474 123 474 159 c 0xf0d0
 474 242 400.879 291 298 291 c 0
 241.333 291 203 282 182 273 c 1
697 -59 m 1
 700.591 -71.1182 701.304 -82.833 701.304 -94 c 0
 701.304 -161 650 -205 568 -205 c 0
 510 -205 446 -187.466 446 -129 c 0
 446 -93.3486 477.344 -71.125 510 -67 c 1
 455 -39 l 1
 542 -14 l 1
 506 0 l 1
 506 21 l 1
 600.5 -14.5 l 1
 514 -43 l 1
 574 -75.5 l 1
 546 -82.5 486 -84.5742 486 -115 c 0
 486 -146 527.924 -155 570 -155 c 0
 624 -155 669.729 -131 669.729 -82 c 0xf0e4
 669.729 -77 669.193 -69.3867 664 -59 c 1
 697 -59 l 1
EndSplineSet
Ligature2: "'blws' Below Base Substitutions in Sinhala lookup 13 subtable" si_Ka si_MatraUu
EndChar

StartChar: si_Ka.reph
Encoding: 65561 -1 108
Width: 746
GlyphClass: 3
Flags: MW
HStem: -1 27<548 582 545 607.5> -1 72<170.5 224.591 170.5 225.011 374 423.044> 73 27<85.6665 103.5 85.6665 103.5> 291 25<288.333 349.439> 368 85.8066 392 41<151 160.856 107.682 170.704> 425 9<409.5 435> 528.193 23.8066 583.75 27.25<400.611 457.5>
VStem: 21 26<11 22> 29 77 193 27.0791<353.734 363> 281 26<162 163 129.463 163> 288 31.25<490.462 536.278 490.462 542> 363 27.0859 471.914 27.0859 474 41<141 188.5 96.9238 200.5> 538.75 30.25<485 524.621> 649 52<151 219>
LayerCount: 2
Fore
SplineSet
390.086 491 m 0x399360
 390.086 470.446 408.684 453.807 431 453.807 c 0
 453.316 453.807 471.914 470.446 471.914 491 c 0
 471.914 511.554 453.316 528.193 431 528.193 c 0
 408.684 528.193 390.086 511.554 390.086 491 c 0x399360
383.5 450.25 m 1
 375.5 456.25 363 471 363 492 c 0
 363 527 394.354 552 430 552 c 0
 471 552 499 525 499 490 c 0
 499 451 464 425 406 425 c 0
 347 425 288 454 288 510 c 0
 288 574 346.12 611 428 611 c 0
 505 611 569 568 569 497 c 0
 569 473 560.667 451.333 544 432 c 1
 510.25 432 l 1
 523.42 444.387 538.75 468.734 538.75 496 c 0
 538.75 553.241 488 583.75 427 583.75 c 0
 374.222 583.75 319.25 562.556 319.25 510 c 0x339760
 319.25 470.925 360.304 452.216 383.5 450.25 c 1
106 323 m 0x75b260
 99 305 84 297 69 297 c 0
 35 297 29 328 29 340 c 0
 29 394.099 79.3633 433 136 433 c 0x75b260
 185.712 433 220.079 402 220.079 356 c 0
 220.079 351.468 219.724 345.795 219 341 c 1
 281 401 366 434 453 434 c 0
 603 434 701 328 701 192 c 0
 701 110 659 -1 556 -1 c 0
 540 -1 518 2 506 11 c 1
 506 38 l 1
 516 31 533 26 557 26 c 0xb3b260
 607 26 649 80 649 153 c 0
 649 285 534.342 368 400 368 c 0
 326.667 368 266 348 219 308 c 1
 243 314 274.667 316 302 316 c 0
 422 316 515 251 515 126 c 0
 515 67.8477 482 -1 397 -1 c 0
 351 -1 317.333 20.333 296 63 c 1
 278.667 21.667 246.021 -1 204 -1 c 0
 117 -1 120 73 87 73 c 0
 64.6748 73 50 51 47 11 c 1
 21 22 l 1x79d2e0
 28.6963 91.2695 74.4521 184.165 109 232 c 0
 135 268 150 282 168 301 c 0
 180 314 193 330 193 352 c 0
 193 374 183.408 392 158 392 c 0
 144 392 122.479 384.287 116 363 c 0
 109 340 112.653 340.109 106 323 c 0x75b260
182 273 m 1
 164.667 258.333 145 234.667 129 212 c 0
 100.333 171.333 80.667 131.667 70 95 c 1
 76 98.333 82.333 100 89 100 c 0
 118 100 142 71 199 71 c 0
 250.183 71 281 101.864 281 162 c 2
 281 163 l 1
 307 163 l 1
 307 162 l 2
 307 96.9268 334 71 392 71 c 0
 454.089 71 474 123 474 159 c 0x719ae0
 474 242 400.879 291 298 291 c 0
 241.333 291 203 282 182 273 c 1
EndSplineSet
Ligature2: "'abvs' Above Base Substitutions in Sinhala lookup 10 subtable" si_Ka si_Reph
EndChar

StartChar: si_KU.reph
Encoding: 65562 -1 109
Width: 997
GlyphClass: 2
Flags: MW
HStem: -1 27<548 582 545 607.5> -1 37.4004 -1 72<170.5 224.591 170.5 225.011 374 423.044> 73 27<85.6665 103.5 85.6665 103.5> 291 25<288.333 349.439> 365.6 37.4004 368 85.8066 392 41<151 160.856 107.682 170.704> 425 9<409.5 435> 528.193 23.8066 583.75 27.25<400.611 457.5>
VStem: 21 26<11 22> 29 77 193 27.0791<353.734 363> 281 26<162 163 129.463 163> 288 31.25<490.462 536.278 490.462 542> 363 27.0859 471.914 27.0859 474 41<141 188.5 96.9238 200.5> 538.75 30.25<485 524.621> 649 52<151 219> 707 27<92.9302 113.803 288.197 309.07> 889 66<145.77 256.23>
LayerCount: 2
Fore
SplineSet
390.086 491 m 0x1a64de
 390.086 470.446 408.684 453.807 431 453.807 c 0
 453.316 453.807 471.914 470.446 471.914 491 c 0
 471.914 511.554 453.316 528.193 431 528.193 c 0
 408.684 528.193 390.086 511.554 390.086 491 c 0x1a64de
383.5 450.25 m 1
 375.5 456.25 363 471 363 492 c 0
 363 527 394.354 552 430 552 c 0
 471 552 499 525 499 490 c 0
 499 451 464 425 406 425 c 0
 347 425 288 454 288 510 c 0
 288 574 346.12 611 428 611 c 0
 505 611 569 568 569 497 c 0
 569 473 560.667 451.333 544 432 c 1
 510.25 432 l 1
 523.42 444.387 538.75 468.734 538.75 496 c 0
 538.75 553.241 488 583.75 427 583.75 c 0
 374.222 583.75 319.25 562.556 319.25 510 c 0x18e5de
 319.25 470.925 360.304 452.216 383.5 450.25 c 1
889 201 m 0
 889 90.54 861.998 36.9258 803 36.4004 c 0
 758 36 734 68.6904 734 117.17 c 0
 734 122.557 734.333 127.606 735 132.32 c 1
 708 132.32 l 1
 707.333 124.914 707 117.507 707 110.1 c 0
 707 41.2715 750.588 -1 818 -1 c 0
 909 -1 955 72.7305 955 201 c 0
 955 329.27 909 403 818 403 c 0
 759 403 707 360.729 707 291.9 c 0
 707 284.494 707.333 277.086 708 269.68 c 1
 735 269.68 l 1
 734.333 274.394 734 279.443 734 284.83 c 0
 734 333.31 765 365.6 803 365.6 c 0x5c649e
 862 365.6 889 311.46 889 201 c 0
106 323 m 0x396c9e
 99 305 84 297 69 297 c 0
 35 297 29 328 29 340 c 0
 29 394.099 79.3633 433 136 433 c 0x396c9e
 185.712 433 220.079 402 220.079 356 c 0
 220.079 351.468 219.724 345.795 219 341 c 1
 281 401 366 434 453 434 c 0
 603 434 701 328 701 192 c 0
 701 110 659 -1 556 -1 c 0
 540 -1 518 2 506 11 c 1
 506 38 l 1
 516 31 533 26 557 26 c 0x98ec9e
 607 26 649 80 649 153 c 0
 649 285 534.342 368 400 368 c 0
 326.667 368 266 348 219 308 c 1
 243 314 274.667 316 302 316 c 0
 422 316 515 251 515 126 c 0
 515 67.8477 482 -1 397 -1 c 0
 351 -1 317.333 20.333 296 63 c 1
 278.667 21.667 246.021 -1 204 -1 c 0
 117 -1 120 73 87 73 c 0
 64.6748 73 50 51 47 11 c 1
 21 22 l 1x3a74be
 28.6963 91.2695 74.4521 184.165 109 232 c 0
 135 268 150 282 168 301 c 0
 180 314 193 330 193 352 c 0
 193 374 183.408 392 158 392 c 0
 144 392 122.479 384.287 116 363 c 0
 109 340 112.653 340.109 106 323 c 0x396c9e
182 273 m 1
 164.667 258.333 145 234.667 129 212 c 0
 100.333 171.333 80.667 131.667 70 95 c 1
 76 98.333 82.333 100 89 100 c 0
 118 100 142 71 199 71 c 0
 250.183 71 281 101.864 281 162 c 2
 281 163 l 1
 307 163 l 1
 307 162 l 2
 307 96.9268 334 71 392 71 c 0
 454.089 71 474 123 474 159 c 0x3866be
 474 242 400.879 291 298 291 c 0
 241.333 291 203 282 182 273 c 1
EndSplineSet
EndChar

StartChar: si_KRa
Encoding: 65563 -1 110
Width: 746
GlyphClass: 3
Flags: MW
HStem: -219 62<316.333 440.5 316.333 460.5> -1 27<548 582 545 607.5> -1 72<170.5 224.591 170.5 225.011 374 423.044> 73 27<85.6665 103.5 85.6665 103.5> 291 25<288.333 349.439> 368 66<409.5 467.171> 392 41<151 160.856 107.682 170.704>
VStem: 21 26<11 22> 29 77 193 27.0791<353.734 363> 281 26<162 163 129.463 163> 474 41<141 188.5 96.9238 200.5> 649 52<151 219> 660 26<-20 56.3335 -42.8647 60.5>
LayerCount: 2
Fore
SplineSet
141 -44 m 1x9874
 176.333 -119.333 263.667 -157 369 -157 c 0
 512 -157 660 -90 660 50 c 0
 660 71 655 93 648 102 c 1
 659 133 l 1
 677 106.333 686 74.667 686 38 c 0
 686 -123.729 536 -219 385 -219 c 0
 244 -219 151.333 -153.333 114 -44 c 1
 141 -44 l 1x9874
106 323 m 0xbaf0
 99 305 84 297 69 297 c 0
 35 297 29 328 29 340 c 0
 29 394.099 79.3633 433 136 433 c 0xbaf0
 185.712 433 220.079 402 220.079 356 c 0
 220.079 351.468 219.724 345.795 219 341 c 1
 281 401 366 434 453 434 c 0
 603 434 701 328 701 192 c 0
 701 110 659 -1 556 -1 c 0
 540 -1 518 2 506 11 c 1
 506 38 l 1
 516 31 533 26 557 26 c 0xdcf8
 607 26 649 80 649 153 c 0
 649 285 534.342 368 400 368 c 0
 326.667 368 266 348 219 308 c 1
 243 314 274.667 316 302 316 c 0
 422 316 515 251 515 126 c 0
 515 67.8477 482 -1 397 -1 c 0
 351 -1 317.333 20.333 296 63 c 1
 278.667 21.667 246.021 -1 204 -1 c 0
 117 -1 120 73 87 73 c 0
 64.6748 73 50 51 47 11 c 1
 21 22 l 1xbd78
 28.6963 91.2695 74.4521 184.165 109 232 c 0
 135 268 150 282 168 301 c 0
 180 314 193 330 193 352 c 0
 193 374 183.408 392 158 392 c 0
 144 392 122.479 384.287 116 363 c 0
 109 340 112.653 340.109 106 323 c 0xbaf0
182 273 m 1
 164.667 258.333 145 234.667 129 212 c 0
 100.333 171.333 80.667 131.667 70 95 c 1
 76 98.333 82.333 100 89 100 c 0
 118 100 142 71 199 71 c 0
 250.183 71 281 101.864 281 162 c 2
 281 163 l 1
 307 163 l 1
 307 162 l 2
 307 96.9268 334 71 392 71 c 0
 454.089 71 474 123 474 159 c 0
 474 242 400.879 291 298 291 c 0
 241.333 291 203 282 182 273 c 1
EndSplineSet
Ligature2: "'rkrf' Rakar Forms in Sinhala lookup 17 subtable" si_Ka si_Halant si_Ra
EndChar

StartChar: si_KRI
Encoding: 65564 -1 111
Width: 746
GlyphClass: 3
Flags: MW
HStem: -219 62<316.333 440.5 316.333 460.5> -1 27<548 582 545 607.5> -1 72<170.5 224.591 170.5 225.011 374 423.044> 73 27<85.6665 103.5 85.6665 103.5> 291 25<288.333 349.439> 368 66<409.5 467.171> 392 41<151 160.856 107.682 170.704> 598 73<404.5 514>
VStem: 21 26<11 22> 29 77 193 27.0791<353.734 363> 218 26<405.418 465.818 396.667 505.5> 281 26<162 163 129.463 163> 474 41<141 188.5 96.9238 200.5> 649 52<151 219> 660 26<-20 56.3335 -42.8647 60.5>
LayerCount: 2
Fore
SplineSet
610 383 m 1x991c
 578 403 l 1
 618 405 656 440 656 486 c 0
 656 574 555 598 473 598 c 0
 336 598 244 527.637 244 404 c 0
 244 389.333 245.667 376.333 249 365 c 1
 225 343 l 1
 220.903 360.752 218 389.837 218 421 c 0
 218 590 330 671 473 671 c 0
 603 671 688 610 688 505 c 0
 688 444 658 402 610 383 c 1x991c
141 -44 m 1
 176.333 -119.333 263.667 -157 369 -157 c 0
 512 -157 660 -90 660 50 c 0
 660 71 655 93 648 102 c 1
 659 133 l 1
 677 106.333 686 74.667 686 38 c 0x990d
 686 -123.729 536 -219 385 -219 c 0
 244 -219 151.333 -153.333 114 -44 c 1
 141 -44 l 1
106 323 m 0xbb6c
 99 305 84 297 69 297 c 0
 35 297 29 328 29 340 c 0
 29 394.099 79.3633 433 136 433 c 0xbb6c
 185.712 433 220.079 402 220.079 356 c 0
 220.079 351.468 219.724 345.795 219 341 c 1
 281 401 366 434 453 434 c 0
 603 434 701 328 701 192 c 0
 701 110 659 -1 556 -1 c 0
 540 -1 518 2 506 11 c 1
 506 38 l 1
 516 31 533 26 557 26 c 0xdd6e
 607 26 649 80 649 153 c 0
 649 285 534.342 368 400 368 c 0
 326.667 368 266 348 219 308 c 1
 243 314 274.667 316 302 316 c 0
 422 316 515 251 515 126 c 0
 515 67.8477 482 -1 397 -1 c 0
 351 -1 317.333 20.333 296 63 c 1
 278.667 21.667 246.021 -1 204 -1 c 0
 117 -1 120 73 87 73 c 0
 64.6748 73 50 51 47 11 c 1
 21 22 l 1xbdae
 28.6963 91.2695 74.4521 184.165 109 232 c 0
 135 268 150 282 168 301 c 0
 180 314 193 330 193 352 c 0
 193 374 183.408 392 158 392 c 0
 144 392 122.479 384.287 116 363 c 0
 109 340 112.653 340.109 106 323 c 0xbb6c
182 273 m 1
 164.667 258.333 145 234.667 129 212 c 0
 100.333 171.333 80.667 131.667 70 95 c 1
 76 98.333 82.333 100 89 100 c 0
 118 100 142 71 199 71 c 0
 250.183 71 281 101.864 281 162 c 2
 281 163 l 1
 307 163 l 1
 307 162 l 2
 307 96.9268 334 71 392 71 c 0
 454.089 71 474 123 474 159 c 0
 474 242 400.879 291 298 291 c 0
 241.333 291 203 282 182 273 c 1
EndSplineSet
Ligature2: "'abvs' Above Base Substitutions in Sinhala lookup 6 subtable" si_KRa si_MatraI
EndChar

StartChar: si_KRIi
Encoding: 65565 -1 112
Width: 746
GlyphClass: 3
Flags: MW
HStem: -219 62<316.333 440.5 316.333 460.5> -1 27<548 582 545 607.5> -1 72<170.5 224.591 170.5 225.011 374 423.044> 73 27<85.6665 103.5 85.6665 103.5> 291 25<288.333 349.439> 368 66<409.5 467.171> 392 41<151 160.856 107.682 170.704> 534.71 31.29 598 73<404.5 496.473>
VStem: 21 26<11 22> 29 77 193 27.0791<353.734 363> 218 26<405.418 465.818 396.667 505.5> 281 26<162 163 129.463 163> 474 41<141 188.5 96.9238 200.5> 500 31.1104 649 52<151 219> 650.89 38.1104 660 26<-20 56.3335 -42.8647 60.5>
LayerCount: 2
Fore
SplineSet
531.11 476 m 0x998540
 531.11 444.07 558.429 417.29 591 417.29 c 0
 623.571 417.29 650.89 444.07 650.89 476 c 0
 650.89 507.93 623.571 534.71 591 534.71 c 0
 558.429 534.71 531.11 507.93 531.11 476 c 0x998540
593 388 m 0
 535 388 500 433 500 477 c 0
 500 529 541 566 591 566 c 0
 596.335 566 608 565 620 561.896 c 1
 581 590 519.945 598 473 598 c 0
 336 598 244 527.637 244 404 c 0
 244 389.333 245.667 376.333 249 365 c 1
 225 343 l 1
 220.903 360.752 218 389.837 218 421 c 0x998d40
 218 590 330 671 473 671 c 0
 603 671 689 600 689 495 c 0
 689 444 651 388 593 388 c 0
141 -44 m 1
 176.333 -119.333 263.667 -157 369 -157 c 0
 512 -157 660 -90 660 50 c 0
 660 71 655 93 648 102 c 1
 659 133 l 1
 677 106.333 686 74.667 686 38 c 0x998420
 686 -123.729 536 -219 385 -219 c 0
 244 -219 151.333 -153.333 114 -44 c 1
 141 -44 l 1
106 323 m 0xbbb4
 99 305 84 297 69 297 c 0
 35 297 29 328 29 340 c 0
 29 394.099 79.3633 433 136 433 c 0xbbb4
 185.712 433 220.079 402 220.079 356 c 0
 220.079 351.468 219.724 345.795 219 341 c 1
 281 401 366 434 453 434 c 0
 603 434 701 328 701 192 c 0
 701 110 659 -1 556 -1 c 0
 540 -1 518 2 506 11 c 1
 506 38 l 1
 516 31 533 26 557 26 c 0xddb480
 607 26 649 80 649 153 c 0
 649 285 534.342 368 400 368 c 0
 326.667 368 266 348 219 308 c 1
 243 314 274.667 316 302 316 c 0
 422 316 515 251 515 126 c 0
 515 67.8477 482 -1 397 -1 c 0
 351 -1 317.333 20.333 296 63 c 1
 278.667 21.667 246.021 -1 204 -1 c 0
 117 -1 120 73 87 73 c 0
 64.6748 73 50 51 47 11 c 1
 21 22 l 1xbdd680
 28.6963 91.2695 74.4521 184.165 109 232 c 0
 135 268 150 282 168 301 c 0
 180 314 193 330 193 352 c 0
 193 374 183.408 392 158 392 c 0
 144 392 122.479 384.287 116 363 c 0
 109 340 112.653 340.109 106 323 c 0xbbb4
182 273 m 1
 164.667 258.333 145 234.667 129 212 c 0
 100.333 171.333 80.667 131.667 70 95 c 1
 76 98.333 82.333 100 89 100 c 0
 118 100 142 71 199 71 c 0
 250.183 71 281 101.864 281 162 c 2
 281 163 l 1
 307 163 l 1
 307 162 l 2
 307 96.9268 334 71 392 71 c 0
 454.089 71 474 123 474 159 c 0xb986
 474 242 400.879 291 298 291 c 0
 241.333 291 203 282 182 273 c 1
EndSplineSet
Ligature2: "'abvs' Above Base Substitutions in Sinhala lookup 7 subtable" si_KRa si_MatraIi
EndChar

StartChar: si_Kh.halant
Encoding: 65566 -1 113
Width: 630
GlyphClass: 3
Flags: MW
HStem: -1 29.7402 0 71<409 457 409 466> 54 62<314.5 369.5> 115.26 29.7402 320 76<195.934 282> 493.75 25.25<255.837 333 255.837 360.5> 590 39<248 342>
VStem: 32 31<150 214 150 252.5> 98 41<537 555 537 564.5> 126 37<503.5 520.5> 179.26 30.7402 367 46<229.5 259> 543 39<233.5 272 272 280 275 279>
LayerCount: 2
Fore
SplineSet
160 508 m 1x0f78
 193 514 232.675 519 279 519 c 0
 387 519 469 490 527 422 c 1
 494 537 400 590 284 590 c 0
 212 590 139 567 139 543 c 0x0fb8
 139 531 163 526 163 515 c 0
 163 513 162 510 160 508 c 1x0f78
42 442 m 1
 42 473 l 1
 74 485 126 499 126 508 c 0x0f78
 126 520 98 524 98 546 c 0
 98 583 163 629 278 629 c 0
 486 629 557 490 569 356 c 1
 575 338 582 301 582 267 c 1
 543 275 l 1
 543 283 542.826 279 542.826 283 c 0
 542.826 409 445 493.75 276 493.75 c 0
 200 493.75 123 480 42 442 c 1
92.7402 72 m 0
 92.7402 48.3096 112.31 28.7402 136 28.7402 c 0
 159.69 28.7402 179.26 48.3096 179.26 72 c 0
 179.26 95.6904 159.69 115.26 136 115.26 c 0x9f38
 112.31 115.26 92.7402 95.6904 92.7402 72 c 0
72 101 m 1
 80 129 108 145 135 145 c 0x1f38
 180.809 145 210 116 210 72 c 0
 210 37 180 -1 141 -1 c 0
 56 -1 32 108 32 183 c 0
 32 322 123.839 396 240 396 c 0
 333 396 413 343.145 413 258 c 0
 413 201 385 153 346 115 c 1
 349.333 115.667 352.333 116 355 116 c 0xaf38
 384 116 387 71 431 71 c 0
 483 71 543 187 543 280 c 1
 582 272 l 1
 582 139 516 0 416 0 c 0x4f38
 352 0 348 54 321 54 c 0x2f38
 308 54 282 34 240 -21 c 1
 204 -18 l 1
 217.333 -4.66699 246.086 34.0254 288 84 c 0
 340 146 367 194 367 232 c 0
 367 286 328 320 236 320 c 0
 155.868 320 63 272 63 156 c 0
 63 144 66 118 72 101 c 1
EndSplineSet
Ligature2: "'haln' Halant Forms in Sinhala lookup 3 subtable" si_Kha si_Halant
Ligature2: "'abvs' Above Base Substitutions in Sinhala lookup 0 subtable" si_Kha si_Halant
EndChar

StartChar: si_KhI
Encoding: 65567 -1 114
Width: 630
GlyphClass: 3
Flags: MW
HStem: -1 29.7402 0 71<412 463.5 412 470> 54 62<314.5 369.5> 115.26 29.7402 320 76<195.934 282> 474 16 611 59<268.172 360>
VStem: 32 31<150 214 150 252.5> 75 42<531 579.943 531 607> 179.26 30.7402 367 46<229.5 259> 505 47<528 572.137> 544 39<239.5 276 276 291 286 310>
LayerCount: 2
Fore
SplineSet
583 274 m 1x0fe8
 544 286 l 1x0fe8
 544 334 532.813 383.562 505 414 c 0
 452 472 386.019 472.325 285 478 c 0
 196 483 75 476 75 562 c 0
 75 652 206 670 306 670 c 0
 442 670 552 639 552 554 c 0
 552 502 498 480 464 474 c 1
 414 490 l 1
 450 491 505 506 505 544 c 0x0ff0
 505 600.273 414 611 306 611 c 0
 230.344 611 117 605.886 117 554 c 0
 117 508 182 508 284 504 c 0
 348.869 501.456 443 499 498 459 c 0
 547.146 423.257 583 356 583 274 c 1x0fe8
92.7402 72 m 0
 92.7402 48.3096 112.31 28.7402 136 28.7402 c 0
 159.69 28.7402 179.26 48.3096 179.26 72 c 0
 179.26 95.6904 159.69 115.26 136 115.26 c 0x9fe0
 112.31 115.26 92.7402 95.6904 92.7402 72 c 0
72 101 m 1
 80 129 108 145 135 145 c 0x1fe8
 180.809 145 210 116 210 72 c 0
 210 37 180 -1 141 -1 c 0
 56 -1 32 108 32 183 c 0
 32 322 123.839 396 240 396 c 0
 333 396 413 343.145 413 258 c 0
 413 201 385 153 346 115 c 1
 349.333 115.667 352.333 116 355 116 c 0xafe8
 384 116 390 71 434 71 c 0
 493 71 544 188 544 291 c 1
 583 276 l 1
 583 143 524 0 416 0 c 0x4fe8
 352 0 348 54 321 54 c 0x2fe8
 308 54 282 34 240 -21 c 1
 204 -18 l 1
 217.333 -4.66699 246.086 34.0254 288 84 c 0
 340 146 367 194 367 232 c 0
 367 286 328 320 236 320 c 0
 155.868 320 63 272 63 156 c 0
 63 144 66 118 72 101 c 1
EndSplineSet
Ligature2: "'abvs' Above Base Substitutions in Sinhala lookup 4 subtable" si_Kha si_MatraI
EndChar

StartChar: si_KhIi
Encoding: 65568 -1 115
Width: 630
GlyphClass: 3
Flags: MW
HStem: -1 29.7402 0 71<412 463.5 412 470> 54 62<314.5 369.5> 115.26 29.7402 320 76<195.934 282> 474 30 609.457 60.543
VStem: 32 31<150 214 150 252.5> 75 42<531 579.943 531 607> 179.26 30.7402 367 46<229.5 259> 368 31.6973 520.303 31.6973 544 39
LayerCount: 2
Fore
SplineSet
399.697 555 m 0x0fd8
 399.697 524.818 426.867 500.543 460 500.543 c 0
 493.133 500.543 520.303 524.818 520.303 555 c 0
 520.303 585.182 493.133 609.457 460 609.457 c 0
 426.867 609.457 399.697 585.182 399.697 555 c 0x0fd8
583 274 m 1x0fd4
 544 286 l 1x0fd4
 544 334 532.813 383.562 505 414 c 0
 452 472 386.019 472.325 285 478 c 0
 196 483 75 476 75 562 c 0
 75 652 206 670 306 670 c 0
 442 670 552 639 552 558 c 0x0fc8
 552 505 504 474 460 474 c 0
 416 474 368 505 368 558 c 0
 368 583 381 600 387 608 c 1
 380 609 348.212 611 306 611 c 0
 230.344 611 117 605.886 117 554 c 0
 117 508 182 508 284 504 c 0
 348.869 501.456 443 499 498 459 c 0
 547.146 423.257 583 356 583 274 c 1x0fd4
92.7402 72 m 0
 92.7402 48.3096 112.31 28.7402 136 28.7402 c 0
 159.69 28.7402 179.26 48.3096 179.26 72 c 0
 179.26 95.6904 159.69 115.26 136 115.26 c 0x9fc0
 112.31 115.26 92.7402 95.6904 92.7402 72 c 0
72 101 m 1
 80 129 108 145 135 145 c 0x1fe4
 180.809 145 210 116 210 72 c 0
 210 37 180 -1 141 -1 c 0
 56 -1 32 108 32 183 c 0
 32 322 123.839 396 240 396 c 0
 333 396 413 343.145 413 258 c 0
 413 201 385 153 346 115 c 1
 349.333 115.667 352.333 116 355 116 c 0xafe4
 384 116 390 71 434 71 c 0
 493 71 544 188 544 291 c 1
 583 276 l 1
 583 143 524 0 416 0 c 0x4fe4
 352 0 348 54 321 54 c 0
 308 54 282 34 240 -21 c 1
 204 -18 l 1
 217.333 -4.66699 246.086 34.0254 288 84 c 0
 340 146 367 194 367 232 c 0x2fe4
 367 286 328 320 236 320 c 0
 155.868 320 63 272 63 156 c 0
 63 144 66 118 72 101 c 1
EndSplineSet
Ligature2: "'abvs' Above Base Substitutions in Sinhala lookup 5 subtable" si_Kha si_MatraIi
EndChar

StartChar: si_KhU
Encoding: 65569 -1 116
Width: 630
GlyphClass: 3
Flags: MW
HStem: -235 36<122.42 542 174 542 174 575> -80 29.5<134.648 169.5> -1 29.7402 0 67<412 467 412 470> 54 62<314.5 369.5> 115.26 29.7402 320 76<195.934 282> 576 25<249.5 369.5>
VStem: 32 31<150 214 150 252.5> 51.5 33.5<-157.082 -124.607 -157.082 -116.496> 179.26 30.7402 367 46<229.5 259> 542 33<-199 128 128 128> 542 42
LayerCount: 2
Fore
SplineSet
575 219 m 1xc378
 575 -235 l 1
 157 -235 l 2
 87.8398 -235 51.5 -186.092 51.5 -142.5 c 0
 51.5 -90.4912 97.793 -50.5 153 -50.5 c 0
 194.906 -50.5 232.25 -74.1416 247 -110 c 1
 217 -121.5 l 1
 209.982 -101.896 186 -80 153 -80 c 0
 116.296 -80 85 -106.714 85 -142.5 c 0
 85 -171.663 108.384 -199 174 -199 c 2
 542 -199 l 1
 542 128 l 1
 575 219 l 1xc378
92.7402 72 m 0
 92.7402 48.3096 112.31 28.7402 136 28.7402 c 0
 159.69 28.7402 179.26 48.3096 179.26 72 c 0
 179.26 95.6904 159.69 115.26 136 115.26 c 0xe730
 112.31 115.26 92.7402 95.6904 92.7402 72 c 0
72 101 m 1
 80 129 108 145 135 145 c 0xc7b4
 180.809 145 210 116 210 72 c 0
 210 37 180 -1 141 -1 c 0
 56 -1 32 108 32 183 c 0
 32 322 123.839 396 240 396 c 0
 333 396 413 343.145 413 258 c 0
 413 201 385 153 346 115 c 1
 349.333 115.667 352.333 116 355 116 c 0xebb4
 384 116 390 67 434 67 c 0
 500 67 546 198 546 301 c 0
 546 467 445 576 294 576 c 0
 205 576 139 542.667 97 470 c 1
 64 470 l 1
 108.667 553.333 186 601 298 601 c 0
 464 601 584 473 584 286 c 0
 584 150 524 0 416 0 c 0xd3b4
 352 0 348 54 321 54 c 0
 308 54 282 34 240 -21 c 1
 204 -18 l 1
 217.333 -4.66699 246.086 34.0254 288 84 c 0
 340 146 367 194 367 232 c 0
 367 286 328 320 236 320 c 0
 155.868 320 63 272 63 156 c 0xcbb4
 63 144 66 118 72 101 c 1
EndSplineSet
Ligature2: "'blws' Below Base Substitutions in Sinhala lookup 11 subtable" si_Kha si_MatraU
EndChar

StartChar: si_KhUu
Encoding: 65570 -1 117
Width: 630
GlyphClass: 3
Flags: MW
HStem: -237 46<139.5 203 139.5 211> -144 27<380.5 444.5 375.5 460> -68 28<138.5 172.5> -1 29.7402 0 67<412 467 412 470> 54 62<314.5 369.5> 115.26 29.7402 320 76<195.934 282> 576 25<249.5 369.5>
VStem: 32 31<150 214 150 252.5> 51 36<-147.683 -110.5 -147.683 -109> 179.26 30.7402 367 46<229.5 259> 542 33<-168 152 152 152> 542 42 552 23<-231 212>
LayerCount: 2
Fore
SplineSet
575 212 m 1xe1bc
 575 -231 l 1
 552 -231 l 1xe199
 537 -195 494 -144 426 -144 c 0
 335 -144 260 -237 162 -237 c 0
 107 -237 51 -206 51 -138 c 0
 51 -80 100 -40 153 -40 c 0
 195 -40 227.333 -55 250 -91 c 1
 220 -102 l 1
 208 -83 187 -68 158 -68 c 0
 119 -68 87 -92 87 -129 c 0
 87 -166.366 118 -191 161 -191 c 0
 245 -191 328 -117 423 -117 c 0
 466 -117 515 -136 542 -168 c 1
 542 152 l 1
 575 212 l 1xe1bc
92.7402 72 m 0
 92.7402 48.3096 112.31 28.7402 136 28.7402 c 0
 159.69 28.7402 179.26 48.3096 179.26 72 c 0
 179.26 95.6904 159.69 115.26 136 115.26 c 0xf398
 112.31 115.26 92.7402 95.6904 92.7402 72 c 0
72 101 m 1
 80 129 108 145 135 145 c 0xe3da
 180.809 145 210 116 210 72 c 0
 210 37 180 -1 141 -1 c 0
 56 -1 32 108 32 183 c 0
 32 322 123.839 396 240 396 c 0
 333 396 413 343.145 413 258 c 0
 413 201 385 153 346 115 c 1
 349.333 115.667 352.333 116 355 116 c 0xf5da
 384 116 390 67 434 67 c 0
 500 67 546 198 546 301 c 0
 546 467 445 576 294 576 c 0
 205 576 139 542.667 97 470 c 1
 64 470 l 1
 108.667 553.333 186 601 298 601 c 0
 464 601 584 473 584 286 c 0
 584 150 524 0 416 0 c 0xe9da
 352 0 348 54 321 54 c 0
 308 54 282 34 240 -21 c 1
 204 -18 l 1
 217.333 -4.66699 246.086 34.0254 288 84 c 0
 340 146 367 194 367 232 c 0
 367 286 328 320 236 320 c 0
 155.868 320 63 272 63 156 c 0xe5da
 63 144 66 118 72 101 c 1
EndSplineSet
Ligature2: "'blws' Below Base Substitutions in Sinhala lookup 13 subtable" si_Kha si_MatraUu
EndChar

StartChar: si_KhRa
Encoding: 65571 -1 118
Width: 630
GlyphClass: 3
Flags: MW
HStem: -219 62<242.5 364.5 240.333 381> -1 29.7402 0 67<412 467 412 470> 54 62<314.5 369.5> 115.26 29.7402 320 76<195.934 282> 576 25<249.5 369.5>
VStem: 32 31<150 214 150 252.5> 179.26 30.7402 367 46<229.5 259> 546 38<249.5 379.5 218 384> 554 28<-20 56.3335 -42.8647 60.5>
LayerCount: 2
Fore
SplineSet
83 -44 m 1x87d0
 118.333 -119.333 187.667 -157 293 -157 c 0
 436 -157 554 -90 554 50 c 0
 554 71 549 93 542 102 c 1
 555 133 l 1
 573 106.333 582 74.667 582 38 c 0
 582 -123.729 453 -219 309 -219 c 0
 176 -219 93.333 -153.333 56 -44 c 1
 83 -44 l 1x87d0
92.7402 72 m 0
 92.7402 48.3096 112.31 28.7402 136 28.7402 c 0
 159.69 28.7402 179.26 48.3096 179.26 72 c 0
 179.26 95.6904 159.69 115.26 136 115.26 c 0xcfc0
 112.31 115.26 92.7402 95.6904 92.7402 72 c 0
72 101 m 1
 80 129 108 145 135 145 c 0x8fe0
 180.809 145 210 116 210 72 c 0
 210 37 180 -1 141 -1 c 0
 56 -1 32 108 32 183 c 0
 32 322 123.839 396 240 396 c 0
 333 396 413 343.145 413 258 c 0
 413 201 385 153 346 115 c 1
 349.333 115.667 352.333 116 355 116 c 0xd7e0
 384 116 390 67 434 67 c 0
 500 67 546 198 546 301 c 0
 546 467 445 576 294 576 c 0
 205 576 139 542.667 97 470 c 1
 64 470 l 1
 108.667 553.333 186 601 298 601 c 0
 464 601 584 473 584 286 c 0
 584 150 524 0 416 0 c 0xa7e0
 352 0 348 54 321 54 c 0x97e0
 308 54 282 34 240 -21 c 1
 204 -18 l 1
 217.333 -4.66699 246.086 34.0254 288 84 c 0
 340 146 367 194 367 232 c 0
 367 286 328 320 236 320 c 0
 155.868 320 63 272 63 156 c 0
 63 144 66 118 72 101 c 1
EndSplineSet
Ligature2: "'rkrf' Rakar Forms in Sinhala lookup 17 subtable" si_Kha si_Halant si_Ra
EndChar

StartChar: si_KhR.halant
Encoding: 65572 -1 119
Width: 630
GlyphClass: 2
Flags: MW
HStem: -219 62<242.5 364.5 240.333 381> -1 29.7402 0 71<409 457 409 466> 54 62<314.5 369.5> 115.26 29.7402 320 76<195.934 282> 493.75 25.25<255.837 333 255.837 360.5> 590 39<248 342>
VStem: 32 31<150 214 150 252.5> 98 41<537 555 537 564.5> 126 37<503.5 520.5> 179.26 30.7402 367 46<229.5 259> 543 39<233.5 272 272 280 275 279> 554 28<-20 56.3335 -42.8647 60.5>
LayerCount: 2
Fore
SplineSet
160 508 m 1x87b8
 193 514 232.675 519 279 519 c 0
 387 519 469 490 527 422 c 1
 494 537 400 590 284 590 c 0
 212 590 139 567 139 543 c 0x87d8
 139 531 163 526 163 515 c 0
 163 513 162 510 160 508 c 1x87b8
42 442 m 1
 42 473 l 1
 74 485 126 499 126 508 c 0x87bc
 126 520 98 524 98 546 c 0
 98 583 163 629 278 629 c 0
 486 629 557 490 569 356 c 1
 575 338 582 301 582 267 c 1
 543 275 l 1x87dc
 543 283 542.826 279 542.826 283 c 0
 542.826 409 445 493.75 276 493.75 c 0
 200 493.75 123 480 42 442 c 1
92.7402 72 m 0
 92.7402 48.3096 112.31 28.7402 136 28.7402 c 0
 159.69 28.7402 179.26 48.3096 179.26 72 c 0
 179.26 95.6904 159.69 115.26 136 115.26 c 0xcf98
 112.31 115.26 92.7402 95.6904 92.7402 72 c 0
72 101 m 1
 80 129 108 145 135 145 c 0x8f9c
 180.809 145 210 116 210 72 c 0
 210 37 180 -1 141 -1 c 0
 56 -1 32 108 32 183 c 0
 32 322 123.839 396 240 396 c 0
 333 396 413 343.145 413 258 c 0
 413 201 385 153 346 115 c 1
 349.333 115.667 352.333 116 355 116 c 0xd79c
 384 116 387 71 431 71 c 0
 483 71 543 187 543 280 c 1
 582 272 l 1
 582 139 516 0 416 0 c 0xa79c
 352 0 348 54 321 54 c 0x979c
 308 54 282 34 240 -21 c 1
 204 -18 l 1
 217.333 -4.66699 246.086 34.0254 288 84 c 0
 340 146 367 194 367 232 c 0
 367 286 328 320 236 320 c 0
 155.868 320 63 272 63 156 c 0
 63 144 66 118 72 101 c 1
83 -44 m 1
 118.333 -119.333 187.667 -157 293 -157 c 0
 436 -157 554 -90 554 50 c 0
 554 71 549 93 542 102 c 1
 555 133 l 1
 573 106.333 582 74.667 582 38 c 0x879a
 582 -123.729 453 -219 309 -219 c 0
 176 -219 93.333 -153.333 56 -44 c 1
 83 -44 l 1
EndSplineSet
EndChar

StartChar: si_KhRI
Encoding: 65573 -1 120
Width: 630
GlyphClass: 3
Flags: MW
HStem: -219 62<242.5 364.5 240.333 381> -1 29.7402 0 71<412 463.5 412 470> 54 62<314.5 369.5> 115.26 29.7402 320 76<195.934 282> 474 16 611 59<268.172 360>
VStem: 32 31<150 214 150 252.5> 75 42<531 579.943 531 607> 179.26 30.7402 367 46<229.5 259> 505 47<528 572.137> 544 39<239.5 276 276 291 286 310> 554 28<-20 56.3335 -42.8647 60.5>
LayerCount: 2
Fore
SplineSet
83 -44 m 1x87f2
 118.333 -119.333 187.667 -157 293 -157 c 0
 436 -157 554 -90 554 50 c 0
 554 71 549 93 542 102 c 1
 555 133 l 1
 573 106.333 582 74.667 582 38 c 0
 582 -123.729 453 -219 309 -219 c 0
 176 -219 93.333 -153.333 56 -44 c 1
 83 -44 l 1x87f2
583 274 m 1x87f4
 544 286 l 1x87f4
 544 334 532.813 383.562 505 414 c 0
 452 472 386.019 472.325 285 478 c 0
 196 483 75 476 75 562 c 0
 75 652 206 670 306 670 c 0
 442 670 552 639 552 554 c 0
 552 502 498 480 464 474 c 1
 414 490 l 1
 450 491 505 506 505 544 c 0x87f8
 505 600.273 414 611 306 611 c 0
 230.344 611 117 605.886 117 554 c 0
 117 508 182 508 284 504 c 0
 348.869 501.456 443 499 498 459 c 0
 547.146 423.257 583 356 583 274 c 1x87f4
92.7402 72 m 0
 92.7402 48.3096 112.31 28.7402 136 28.7402 c 0
 159.69 28.7402 179.26 48.3096 179.26 72 c 0
 179.26 95.6904 159.69 115.26 136 115.26 c 0xcff0
 112.31 115.26 92.7402 95.6904 92.7402 72 c 0
72 101 m 1
 80 129 108 145 135 145 c 0x8ff4
 180.809 145 210 116 210 72 c 0
 210 37 180 -1 141 -1 c 0
 56 -1 32 108 32 183 c 0
 32 322 123.839 396 240 396 c 0
 333 396 413 343.145 413 258 c 0
 413 201 385 153 346 115 c 1
 349.333 115.667 352.333 116 355 116 c 0xd7f4
 384 116 390 71 434 71 c 0
 493 71 544 188 544 291 c 1
 583 276 l 1
 583 143 524 0 416 0 c 0xa7f4
 352 0 348 54 321 54 c 0x97f4
 308 54 282 34 240 -21 c 1
 204 -18 l 1
 217.333 -4.66699 246.086 34.0254 288 84 c 0
 340 146 367 194 367 232 c 0
 367 286 328 320 236 320 c 0
 155.868 320 63 272 63 156 c 0
 63 144 66 118 72 101 c 1
EndSplineSet
Ligature2: "'abvs' Above Base Substitutions in Sinhala lookup 6 subtable" si_KhRa si_MatraI
EndChar

StartChar: si_KhRIi
Encoding: 65574 -1 121
Width: 630
GlyphClass: 3
Flags: MW
HStem: -219 62<242.5 364.5 240.333 381> -1 29.7402 0 71<412 463.5 412 470> 54 62<314.5 369.5> 115.26 29.7402 320 76<195.934 282> 474 30 609.457 60.543
VStem: 32 31<150 214 150 252.5> 75 42<531 579.943 531 607> 179.26 30.7402 367 46<229.5 259> 368 31.6973 520.303 31.6973 544 39 554 28
LayerCount: 2
Fore
SplineSet
83 -44 m 1x87e1
 118.333 -119.333 187.667 -157 293 -157 c 0
 436 -157 554 -90 554 50 c 0
 554 71 549 93 542 102 c 1
 555 133 l 1
 573 106.333 582 74.667 582 38 c 0
 582 -123.729 453 -219 309 -219 c 0
 176 -219 93.333 -153.333 56 -44 c 1
 83 -44 l 1x87e1
399.697 555 m 0x87ec
 399.697 524.818 426.867 500.543 460 500.543 c 0
 493.133 500.543 520.303 524.818 520.303 555 c 0
 520.303 585.182 493.133 609.457 460 609.457 c 0
 426.867 609.457 399.697 585.182 399.697 555 c 0x87ec
583 274 m 1x87ea
 544 286 l 1x87ea
 544 334 532.813 383.562 505 414 c 0
 452 472 386.019 472.325 285 478 c 0
 196 483 75 476 75 562 c 0
 75 652 206 670 306 670 c 0
 442 670 552 639 552 558 c 0x87e4
 552 505 504 474 460 474 c 0
 416 474 368 505 368 558 c 0
 368 583 381 600 387 608 c 1
 380 609 348.212 611 306 611 c 0
 230.344 611 117 605.886 117 554 c 0
 117 508 182 508 284 504 c 0
 348.869 501.456 443 499 498 459 c 0
 547.146 423.257 583 356 583 274 c 1x87ea
92.7402 72 m 0
 92.7402 48.3096 112.31 28.7402 136 28.7402 c 0
 159.69 28.7402 179.26 48.3096 179.26 72 c 0
 179.26 95.6904 159.69 115.26 136 115.26 c 0xcfe0
 112.31 115.26 92.7402 95.6904 92.7402 72 c 0
72 101 m 1
 80 129 108 145 135 145 c 0x8ff2
 180.809 145 210 116 210 72 c 0
 210 37 180 -1 141 -1 c 0
 56 -1 32 108 32 183 c 0
 32 322 123.839 396 240 396 c 0
 333 396 413 343.145 413 258 c 0
 413 201 385 153 346 115 c 1
 349.333 115.667 352.333 116 355 116 c 0xd7f2
 384 116 390 71 434 71 c 0
 493 71 544 188 544 291 c 1
 583 276 l 1
 583 143 524 0 416 0 c 0xa7f2
 352 0 348 54 321 54 c 0
 308 54 282 34 240 -21 c 1
 204 -18 l 1
 217.333 -4.66699 246.086 34.0254 288 84 c 0
 340 146 367 194 367 232 c 0x97f2
 367 286 328 320 236 320 c 0
 155.868 320 63 272 63 156 c 0
 63 144 66 118 72 101 c 1
EndSplineSet
Ligature2: "'abvs' Above Base Substitutions in Sinhala lookup 7 subtable" si_KhRa si_MatraIi
EndChar

StartChar: si_G.halant
Encoding: 65575 -1 122
Width: 636
GlyphClass: 3
Flags: MW
HStem: -2 73<161.655 235.5 161.655 251.5> -1 25<364 415.5 358 434.526> 217 24<266.667 282.727> 371 60.5<354.675 438.5> 408.45 23.0498 468 28<500.667 515 489.333 529.596>
VStem: 34 35<188.5 268.5> 216 25<192 193.667> 318 34<128.321 169 96 177> 436 27<387 478 370 503 503 638> 543 43<156 250.5>
LayerCount: 2
Fore
SplineSet
436 387 m 1x27e0
 436 681 l 1
 490 639 586 634 586 542 c 0
 586 498 551.191 468 508 468 c 0
 493.333 468 478.333 471.333 463 478 c 1
 463 370 l 1
 436 387 l 1x27e0
463 638 m 1
 463 503 l 1
 471.667 498.333 482.667 496 496 496 c 0
 534 496 549 521 549 545 c 0
 549 587 510 607 463 638 c 1
233 408 m 1
 229.645 408.284 225.311 408.45 222 408.45 c 0
 136 408.45 69 332 69 230 c 0
 69 147 117.31 71 206 71 c 0xafe0
 265 71 318 98.6416 318 158 c 0
 318 196 298.453 217 267 217 c 0
 259.667 217 250 215 243 210 c 1
 242 204 241 195.333 241 192 c 1
 216 192 l 1
 226.196 316.901 288 431.5 410 431.5 c 0
 522 431.5 586 332 586 217 c 0
 586 95 500.053 -1 369 -1 c 0
 359 -1 348.667 -0.333008 338 1 c 1
 338 26 l 1
 346 25 354 24 362 24 c 0
 469 24 543 100 543 200 c 0
 543 301 484 371 393 371 c 0x77e0
 316.35 371 263 313 247 236 c 1
 255 240 263.333 241 270 241 c 0
 318 241 352 202 352 136 c 0
 352 56 295 -2 208 -2 c 0
 97 -2 34 96 34 207 c 0
 34 330 109 431.5 220 431.5 c 0xafe0
 223.953 431.5 228.954 431.25 233 431 c 1
 233 408 l 1
EndSplineSet
Ligature2: "'haln' Halant Forms in Sinhala lookup 3 subtable" si_Ga si_Halant
EndChar

StartChar: si_GI
Encoding: 65576 -1 123
Width: 636
GlyphClass: 3
Flags: MW
HStem: -2 73<161.655 235.5 161.655 251.5> -1 25<364 415.5 358 434.526> 217 24<266.667 282.727> 371 60.5<354.675 438.5> 408.45 23.0498
VStem: 34 35<188.5 268.5> 216 25<192 193.667> 318 34<128.321 169 96 177> 543 43<156 250.5>
LayerCount: 2
Fore
SplineSet
212 408 m 1xaf80
 208.645 408.284 211.311 408.45 208 408.45 c 0
 136 408.45 69 332 69 230 c 0
 69 147 117.31 71 206 71 c 0
 265 71 318 98.6416 318 158 c 0
 318 196 298.453 217 267 217 c 0
 259.667 217 250 215 243 210 c 1
 242 204 241 195.333 241 192 c 1
 216 192 l 1
 226.196 316.901 288 431.5 410 431.5 c 0x7780
 522 431.5 586 332 586 217 c 0
 586 95 500.053 -1 369 -1 c 0
 359 -1 348.667 -0.333008 338 1 c 1
 338 26 l 1
 346 25 354 24 362 24 c 0
 469 24 543 100 543 200 c 0
 543 301 484 371 393 371 c 0
 316.35 371 263 313 247 236 c 1
 255 240 263.333 241 270 241 c 0
 318 241 352 202 352 136 c 0
 352 56 295 -2 208 -2 c 0
 97 -2 34 96 34 207 c 0
 34 330 110 431.5 207 431.5 c 0
 210.953 431.5 207.954 431.25 212 431 c 1
 212 408 l 1xaf80
397 412 m 1
 237 415.333 149.999 462.001 149.999 537.001 c 0
 149.999 628.001 248.983 667.001 350.999 667.001 c 0
 456.344 667.001 558.999 618.001 558.999 523.001 c 0
 558.999 461.001 519.999 415.001 438.999 409.001 c 1
 420.999 431.001 l 1
 423.692 430.868 426.36 430.807 429 430.807 c 0
 487 430.807 530 462.296 530 512 c 0
 530 576.843 430.674 598 351 598 c 0
 269.527 598 191 568 191 516 c 0
 191 455.697 325 431.5 411 431.492 c 0
 412.006 431.492 412.006 431.494 413 431.5 c 2
 397 412 l 1
EndSplineSet
Ligature2: "'abvs' Above Base Substitutions in Sinhala lookup 4 subtable" si_Ga si_MatraI
EndChar

StartChar: si_GIi
Encoding: 65577 -1 124
Width: 636
GlyphClass: 3
Flags: MW
HStem: -2 73<161.655 235.5 161.655 251.5> -1 25<364 415.5 358 434.526> 217 24<266.667 282.727> 371 60.5<354.675 438.5> 408.45 23.0498 431 25.5322 598 69<310.264 362.82>
VStem: 34 35<188.5 268.5> 150 41<499.5 542 485.849 582.5> 216 25<192 193.667> 318 34<128.321 169 96 177> 361 28.4004<502.528 537.472 502.528 541.802> 530.6 28.4004 543 43
LayerCount: 2
Fore
SplineSet
389.4 520 m 0x27f8
 389.4 485.057 420.778 456.532 460 456.532 c 0
 499.222 456.532 530.6 485.057 530.6 520 c 0
 530.6 554.943 499.222 583.468 460 583.468 c 0
 420.778 583.468 389.4 554.943 389.4 520 c 0x27f8
212 408 m 1
 208.645 408.284 211.311 408.45 208 408.45 c 0
 136 408.45 69 332 69 230 c 0
 69 147 117.31 71 206 71 c 0xabf4
 265 71 318 98.6416 318 158 c 0
 318 196 298.453 217 267 217 c 0
 259.667 217 250 215 243 210 c 1
 242 204 241 195.333 241 192 c 1
 216 192 l 1
 226.196 316.901 288 431.5 410 431.5 c 0
 522 431.5 586 332 586 217 c 0
 586 95 500.053 -1 369 -1 c 0
 359 -1 348.667 -0.333008 338 1 c 1
 338 26 l 1
 346 25 354 24 362 24 c 0
 469 24 543 100 543 200 c 0
 543 301 484 371 393 371 c 0x73f4
 316.35 371 263 313 247 236 c 1
 255 240 263.333 241 270 241 c 0
 318 241 352 202 352 136 c 0
 352 56 295 -2 208 -2 c 0
 97 -2 34 96 34 207 c 0
 34 330 110 431.5 207 431.5 c 0xabf4
 210.953 431.5 207.954 431.25 212 431 c 1
 212 408 l 1
397 412 m 1
 237 415.333 150 462 150 537 c 0
 150 628 248.984 667 351 667 c 0
 456.345 667 559 618 559 525 c 0
 559 456 501 431 458 431 c 0x27f8
 414 431 361 464 361 519 c 0
 361 564.604 395 591 411 593.824 c 1
 389 597 374.64 598 351 598 c 0
 269.527 598 191 568 191 516 c 0
 191 455.697 325 431.5 411 431.492 c 0
 412.006 431.492 412.006 431.494 413 431.5 c 2x33f8
 397 412 l 1
EndSplineSet
Ligature2: "'abvs' Above Base Substitutions in Sinhala lookup 5 subtable" si_Ga si_MatraIi
EndChar

StartChar: si_GU
Encoding: 65578 -1 125
Width: 636
GlyphClass: 3
Flags: MW
HStem: -2 73<161.655 235.5 161.655 251.5> -1 25 217 24<266.667 282.727> 371 60.5<354.675 438.5> 408.45 23.0498
VStem: 34 35<188.5 268.5> 216 25<192 193.667> 318 34<128.321 169 96 177> 543 43<156 250.5>
LayerCount: 2
Fore
SplineSet
583 -36 m 1x2780
 585.354 -45.416 585.435 -60.29 585.435 -69.5 c 0
 585.435 -122.146 541.701 -191.5 441 -191.5 c 0
 377.71 -191.5 306 -149.233 306 -80 c 0
 306 -30 336 9 379 21 c 1
 385 -6 l 1
 363 -14 344 -34 344 -63 c 0
 344 -109.283 394.048 -132 445.5 -132 c 0
 506.5 -132 553.692 -93.7344 553.692 -45 c 0
 553.692 -42.0391 553.419 -39.0381 553 -36 c 1
 583 -36 l 1x2780
233 408 m 1
 229.645 408.284 225.311 408.45 222 408.45 c 0
 136 408.45 69 332 69 230 c 0
 69 147 117.31 71 206 71 c 0
 265 71 318 98.6416 318 158 c 0
 318 196 298.453 217 267 217 c 0
 259.667 217 250 215 243 210 c 1
 242 204 241 195.333 241 192 c 1
 216 192 l 1
 226.196 316.901 288 431.5 410 431.5 c 0
 522 431.5 586 332 586 217 c 0
 586 95 506 0 426 0 c 0
 416 0 394 -2 380 -8 c 1
 370 18 l 1
 389 26 407 27 415 27 c 0
 478 27 543 100 543 200 c 0
 543 301 484 371 393 371 c 0
 316.35 371 263 313 247 236 c 1
 255 240 263.333 241 270 241 c 0
 318 241 352 202 352 136 c 0
 352 56 295 -2 208 -2 c 0
 97 -2 34 96 34 207 c 0
 34 330 109 431.5 220 431.5 c 0xb780
 223.953 431.5 228.954 431.25 233 431 c 1
 233 408 l 1
EndSplineSet
Ligature2: "'blws' Below Base Substitutions in Sinhala lookup 11 subtable" si_Ga si_MatraU
EndChar

StartChar: si_GUu
Encoding: 65579 -1 126
Width: 636
GlyphClass: 3
Flags: MW
HStem: -205 50<438.962 487 438.962 499> -2 73<161.655 235.5 161.655 251.5> 1 25<338 338 338 338.5> 217 24<266.667 282.727> 371 60.5<354.675 438.5> 408.45 23.0498
VStem: 34 35<188.5 268.5> 216 25<192 193.667> 318 34<128.321 169 96 177> 336 40<-130.5 -111.174> 543 43<156 250.5> 559.729 31.5752
LayerCount: 2
Fore
SplineSet
233 408 m 1xd7a0
 229.645 408.284 225.311 408.45 222 408.45 c 0
 136 408.45 69 332 69 230 c 0
 69 147 117.31 71 206 71 c 0xd7a0
 265 71 318 98.6416 318 158 c 0
 318 196 298.453 217 267 217 c 0
 259.667 217 250 215 243 210 c 1
 242 204 241 195.333 241 192 c 1
 216 192 l 1
 226.196 316.901 288 431.5 410 431.5 c 0
 522 431.5 586 332 586 217 c 0
 586 95 500.053 -1 369 -1 c 0
 359 -1 348.667 -0.333008 338 1 c 1
 338 26 l 1
 346 25 354 24 362 24 c 0
 469 24 543 100 543 200 c 0
 543 301 484 371 393 371 c 0xbba0
 316.35 371 263 313 247 236 c 1
 255 240 263.333 241 270 241 c 0
 318 241 352 202 352 136 c 0
 352 56 295 -2 208 -2 c 0
 97 -2 34 96 34 207 c 0
 34 330 109 431.5 220 431.5 c 0
 223.953 431.5 228.954 431.25 233 431 c 1
 233 408 l 1xd7a0
587 -59 m 1
 590.591 -71.1182 591.304 -82.833 591.304 -94 c 0
 591.304 -161 540 -205 458 -205 c 0
 400 -205 336 -187.466 336 -129 c 0
 336 -93.3486 367.562 -72 400 -67 c 1
 345 -39 l 1
 432 -14 l 1
 338.5 1 l 1
 387 13 l 1
 506.5 -7 l 1
 401.5 -44 l 1
 461 -76 l 1
 433 -83 376 -85.5 376 -115 c 0
 376 -146 417.924 -155 460 -155 c 0
 514 -155 559.729 -131 559.729 -82 c 0xb350
 559.729 -77 559.193 -69.3867 554 -59 c 1
 587 -59 l 1
EndSplineSet
Ligature2: "'blws' Below Base Substitutions in Sinhala lookup 13 subtable" si_Ga si_MatraUu
EndChar

StartChar: si_Ga.reph
Encoding: 65580 -1 127
Width: 636
GlyphClass: 3
Flags: MW
HStem: -2 73<161.655 235.5 161.655 251.5> -1 25<364 415.5 358 434.526> 217 24<266.667 282.727> 371 60.5<354.675 438.5> 408.45 23.0498
VStem: 34 35<188.5 268.5> 216 25<192 193.667> 318 34<128.321 169 96 177> 543 43<156 250.5>
LayerCount: 2
Fore
SplineSet
340.586 491 m 0x2780
 340.586 470.446 359.184 453.807 381.5 453.807 c 0
 403.816 453.807 422.414 470.446 422.414 491 c 0
 422.414 511.554 403.816 528.193 381.5 528.193 c 0
 359.184 528.193 340.586 511.554 340.586 491 c 0x2780
334 450.25 m 1
 326 456.25 313.5 471 313.5 492 c 0
 313.5 527 344.854 552 380.5 552 c 0
 421.5 552 449.5 525 449.5 490 c 0
 449.5 451 414.5 425 356.5 425 c 0
 297.5 425 238.5 454 238.5 510 c 0
 238.5 574 296.62 611 378.5 611 c 0
 455.5 611 519.5 568 519.5 497 c 0
 519.5 473 511.167 451.333 494.5 432 c 1
 460.75 432 l 1
 473.92 444.387 489.25 468.734 489.25 496 c 0
 489.25 553.241 438.5 583.75 377.5 583.75 c 0
 324.722 583.75 269.75 562.556 269.75 510 c 0
 269.75 470.925 310.804 452.216 334 450.25 c 1
233 408 m 1
 229.645 408.284 225.311 408.45 222 408.45 c 0
 136 408.45 69 332 69 230 c 0
 69 147 117.31 71 206 71 c 0xb780
 265 71 318 98.6416 318 158 c 0
 318 196 298.453 217 267 217 c 0
 259.667 217 250 215 243 210 c 1
 242 204 241 195.333 241 192 c 1
 216 192 l 1
 226.196 316.901 288 431.5 410 431.5 c 0
 522 431.5 586 332 586 217 c 0
 586 95 500.053 -1 369 -1 c 0
 359 -1 348.667 -0.333008 338 1 c 1
 338 26 l 1
 346 25 354 24 362 24 c 0x7780
 469 24 543 100 543 200 c 0
 543 301 484 371 393 371 c 0
 316.35 371 263 313 247 236 c 1
 255 240 263.333 241 270 241 c 0
 318 241 352 202 352 136 c 0
 352 56 295 -2 208 -2 c 0
 97 -2 34 96 34 207 c 0
 34 330 109 431.5 220 431.5 c 0xb780
 223.953 431.5 228.954 431.25 233 431 c 1
 233 408 l 1
EndSplineSet
Ligature2: "'abvs' Above Base Substitutions in Sinhala lookup 10 subtable" si_Ga si_Reph
EndChar

StartChar: si_GA.reph
Encoding: 65581 -1 128
Width: 889
GlyphClass: 2
Flags: MW
HStem: -2 73<161.655 235.5 161.655 251.5> -1 25<364 415.5 358 434.526> -1 37.4004 217 24<266.667 282.727> 365.6 37.4004 371 60.5<354.675 438.5> 408.45 23.0498 425 28.8066 528.193 23.8066 583.75 27.25<351.111 408>
VStem: 34 35<188.5 268.5> 216 25<192 193.667> 238.5 31.25<490.462 536.278 490.462 542> 313.5 27.0859 318 34<128.321 169 96 177> 422.414 27.0859 489.25 30.25<485 524.621> 543 43<156 250.5> 599 27<92.9302 113.803 288.197 309.07> 781 66<145.77 256.23>
LayerCount: 2
Fore
SplineSet
340.586 491 m 0x11e5f0
 340.586 470.446 359.184 453.807 381.5 453.807 c 0
 403.816 453.807 422.414 470.446 422.414 491 c 0
 422.414 511.554 403.816 528.193 381.5 528.193 c 0
 359.184 528.193 340.586 511.554 340.586 491 c 0x11e5f0
334 450.25 m 1
 326 456.25 313.5 471 313.5 492 c 0
 313.5 527 344.854 552 380.5 552 c 0
 421.5 552 449.5 525 449.5 490 c 0
 449.5 451 414.5 425 356.5 425 c 0
 297.5 425 238.5 454 238.5 510 c 0
 238.5 574 296.62 611 378.5 611 c 0
 455.5 611 519.5 568 519.5 497 c 0
 519.5 473 511.167 451.333 494.5 432 c 1
 460.75 432 l 1
 473.92 444.387 489.25 468.734 489.25 496 c 0
 489.25 553.241 438.5 583.75 377.5 583.75 c 0
 324.722 583.75 269.75 562.556 269.75 510 c 0x11edf0
 269.75 470.925 310.804 452.216 334 450.25 c 1
781 201 m 0
 781 90.54 753.998 36.9258 695 36.4004 c 0
 650 36 626 68.6904 626 117.17 c 0
 626 122.557 626.333 127.606 627 132.32 c 1
 600 132.32 l 1
 599.333 124.914 599 117.507 599 110.1 c 0
 599 41.2715 642.588 -1 710 -1 c 0
 801 -1 847 72.7305 847 201 c 0
 847 329.27 801 403 710 403 c 0
 651 403 599 360.729 599 291.9 c 0
 599 284.494 599.333 277.086 600 269.68 c 1
 627 269.68 l 1
 626.333 274.394 626 279.443 626 284.83 c 0
 626 333.31 657 365.6 695 365.6 c 0x38e1f0
 754 365.6 781 311.46 781 201 c 0
233 408 m 1
 229.645 408.284 225.311 408.45 222 408.45 c 0
 136 408.45 69 332 69 230 c 0
 69 147 117.31 71 206 71 c 0x92f3f0
 265 71 318 98.6416 318 158 c 0
 318 196 298.453 217 267 217 c 0
 259.667 217 250 215 243 210 c 1
 242 204 241 195.333 241 192 c 1
 216 192 l 1
 226.196 316.901 288 431.5 410 431.5 c 0
 522 431.5 586 332 586 217 c 0
 586 95 500.053 -1 369 -1 c 0
 359 -1 348.667 -0.333008 338 1 c 1
 338 26 l 1
 346 25 354 24 362 24 c 0
 469 24 543 100 543 200 c 0
 543 301 484 371 393 371 c 0x54f3f0
 316.35 371 263 313 247 236 c 1
 255 240 263.333 241 270 241 c 0
 318 241 352 202 352 136 c 0
 352 56 295 -2 208 -2 c 0
 97 -2 34 96 34 207 c 0
 34 330 109 431.5 220 431.5 c 0x92f3f0
 223.953 431.5 228.954 431.25 233 431 c 1
 233 408 l 1
EndSplineSet
EndChar

StartChar: si_GRa
Encoding: 65582 -1 129
Width: 636
GlyphClass: 3
Flags: MW
HStem: -2 73<161.655 235.5 161.655 251.5> -1 25<364 415.5 358 434.526> 217 24<266.667 282.727> 371 60.5<354.675 438.5> 408.45 23.0498
VStem: 34 35<188.5 268.5> 216 25<192 193.667> 318 34<128.321 169 96 177> 543 43<156 250.5>
LayerCount: 2
Fore
SplineSet
83 -44 m 1x2780
 118.333 -119.333 187.667 -157 293 -157 c 0
 436 -157 554 -90 554 50 c 0
 554 71 549 93 542 102 c 1
 555 133 l 1
 573 106.333 582 74.667 582 38 c 0
 582 -123.729 453 -219 309 -219 c 0
 176 -219 93.333 -153.333 56 -44 c 1
 83 -44 l 1x2780
233 408 m 1
 229.645 408.284 225.311 408.45 222 408.45 c 0
 136 408.45 69 332 69 230 c 0
 69 147 117.31 71 206 71 c 0xb780
 265 71 318 98.6416 318 158 c 0
 318 196 298.453 217 267 217 c 0
 259.667 217 250 215 243 210 c 1
 242 204 241 195.333 241 192 c 1
 216 192 l 1
 226.196 316.901 288 431.5 410 431.5 c 0
 522 431.5 586 332 586 217 c 0
 586 95 500.053 -1 369 -1 c 0
 359 -1 348.667 -0.333008 338 1 c 1
 338 26 l 1
 346 25 354 24 362 24 c 0x7780
 469 24 543 100 543 200 c 0
 543 301 484 371 393 371 c 0
 316.35 371 263 313 247 236 c 1
 255 240 263.333 241 270 241 c 0
 318 241 352 202 352 136 c 0
 352 56 295 -2 208 -2 c 0
 97 -2 34 96 34 207 c 0
 34 330 109 431.5 220 431.5 c 0xb780
 223.953 431.5 228.954 431.25 233 431 c 1
 233 408 l 1
EndSplineSet
Ligature2: "'rkrf' Rakar Forms in Sinhala lookup 17 subtable" si_Ga si_Halant si_Ra
EndChar

StartChar: si_GR.halant
Encoding: 65583 -1 130
Width: 636
GlyphClass: 2
Flags: MW
HStem: -219 62<242.5 364.5 240.333 381> -2 73<161.655 235.5 161.655 251.5> -1 25<364 415.5 358 434.526> 217 24<266.667 282.727> 371 60.5<354.675 438.5> 408.45 23.0498 468 28<500.667 515 489.333 529.596>
VStem: 34 35<188.5 268.5> 216 25<192 193.667> 318 34<128.321 169 96 177> 436 27<387 478 370 503 503 638> 543 43<156 250.5> 549 37<533 566>
LayerCount: 2
Fore
SplineSet
83 -44 m 1x93e0
 118.333 -119.333 187.667 -157 293 -157 c 0
 436 -157 554 -90 554 50 c 0
 554 71 549 93 542 102 c 1
 555 133 l 1
 573 106.333 582 74.667 582 38 c 0
 582 -123.729 453 -219 309 -219 c 0
 176 -219 93.333 -153.333 56 -44 c 1
 83 -44 l 1x93e0
436 387 m 1
 436 681 l 1
 490 639 586 634 586 542 c 0x93e8
 586 498 551.191 468 508 468 c 0
 493.333 468 478.333 471.333 463 478 c 1
 463 370 l 1
 436 387 l 1
463 638 m 1
 463 503 l 1
 471.667 498.333 482.667 496 496 496 c 0
 534 496 549 521 549 545 c 0
 549 587 510 607 463 638 c 1
233 408 m 1
 229.645 408.284 225.311 408.45 222 408.45 c 0
 136 408.45 69 332 69 230 c 0
 69 147 117.31 71 206 71 c 0xd7f0
 265 71 318 98.6416 318 158 c 0
 318 196 298.453 217 267 217 c 0
 259.667 217 250 215 243 210 c 1
 242 204 241 195.333 241 192 c 1
 216 192 l 1
 226.196 316.901 288 431.5 410 431.5 c 0
 522 431.5 586 332 586 217 c 0
 586 95 500.053 -1 369 -1 c 0
 359 -1 348.667 -0.333008 338 1 c 1
 338 26 l 1
 346 25 354 24 362 24 c 0
 469 24 543 100 543 200 c 0
 543 301 484 371 393 371 c 0xbbf0
 316.35 371 263 313 247 236 c 1
 255 240 263.333 241 270 241 c 0
 318 241 352 202 352 136 c 0
 352 56 295 -2 208 -2 c 0
 97 -2 34 96 34 207 c 0
 34 330 109 431.5 220 431.5 c 0xd7f0
 223.953 431.5 228.954 431.25 233 431 c 1
 233 408 l 1
EndSplineSet
EndChar

StartChar: si_GRI
Encoding: 65584 -1 131
Width: 636
GlyphClass: 3
Flags: MW
HStem: -2 73<161.655 235.5 161.655 251.5> -1 25<364 415.5 358 434.526> 217 24<266.667 282.727> 371 60.5<354.675 438.5> 408.45 23.0498
VStem: 34 35<188.5 268.5> 216 25<192 193.667> 318 34<128.321 169 96 177> 543 43<156 250.5>
LayerCount: 2
Fore
SplineSet
83 -44 m 1x2780
 118.333 -119.333 187.667 -157 293 -157 c 0
 436 -157 554 -90 554 50 c 0
 554 71 549 93 542 102 c 1
 555 133 l 1
 573 106.333 582 74.667 582 38 c 0
 582 -123.729 453 -219 309 -219 c 0
 176 -219 93.333 -153.333 56 -44 c 1
 83 -44 l 1x2780
212 408 m 1
 208.645 408.284 211.311 408.45 208 408.45 c 0
 136 408.45 69 332 69 230 c 0
 69 147 117.31 71 206 71 c 0xb780
 265 71 318 98.6416 318 158 c 0
 318 196 298.453 217 267 217 c 0
 259.667 217 250 215 243 210 c 1
 242 204 241 195.333 241 192 c 1
 216 192 l 1
 226.196 316.901 288 431.5 410 431.5 c 0
 522 431.5 586 332 586 217 c 0
 586 95 500.053 -1 369 -1 c 0
 359 -1 348.667 -0.333008 338 1 c 1
 338 26 l 1
 346 25 354 24 362 24 c 0x7780
 469 24 543 100 543 200 c 0
 543 301 484 371 393 371 c 0
 316.35 371 263 313 247 236 c 1
 255 240 263.333 241 270 241 c 0
 318 241 352 202 352 136 c 0
 352 56 295 -2 208 -2 c 0
 97 -2 34 96 34 207 c 0
 34 330 110 431.5 207 431.5 c 0xb780
 210.953 431.5 207.954 431.25 212 431 c 1
 212 408 l 1
397 412 m 1
 237 415.333 149.999 462.001 149.999 537.001 c 0
 149.999 628.001 248.983 667.001 350.999 667.001 c 0
 456.344 667.001 558.999 618.001 558.999 523.001 c 0
 558.999 461.001 519.999 415.001 438.999 409.001 c 1
 420.999 431.001 l 1
 423.692 430.868 426.36 430.807 429 430.807 c 0
 487 430.807 530 462.296 530 512 c 0
 530 576.843 430.674 598 351 598 c 0
 269.527 598 191 568 191 516 c 0
 191 455.697 325 431.5 411 431.492 c 0
 412.006 431.492 412.006 431.494 413 431.5 c 2
 397 412 l 1
EndSplineSet
Ligature2: "'abvs' Above Base Substitutions in Sinhala lookup 6 subtable" si_GRa si_MatraI
EndChar

StartChar: si_GRIi
Encoding: 65585 -1 132
Width: 636
GlyphClass: 3
Flags: MW
HStem: -219 62<242.5 364.5 240.333 381> -2 73<161.655 235.5 161.655 251.5> -1 25<364 415.5 358 434.526> 217 24<266.667 282.727> 371 60.5<354.675 438.5> 408.45 23.0498 431 25.5322 598 69<310.264 362.82>
VStem: 34 35<188.5 268.5> 150 41<499.5 542 485.849 582.5> 216 25<192 193.667> 318 34<128.321 169 96 177> 361 28.4004<502.528 537.472 502.528 541.802> 530.6 28.4004 543 43 554 28
LayerCount: 2
Fore
SplineSet
83 -44 m 1x91f9
 118.333 -119.333 187.667 -157 293 -157 c 0
 436 -157 554 -90 554 50 c 0
 554 71 549 93 542 102 c 1
 555 133 l 1
 573 106.333 582 74.667 582 38 c 0
 582 -123.729 453 -219 309 -219 c 0
 176 -219 93.333 -153.333 56 -44 c 1
 83 -44 l 1x91f9
389.4 520 m 0
 389.4 485.057 420.778 456.532 460 456.532 c 0
 499.222 456.532 530.6 485.057 530.6 520 c 0x93fc
 530.6 554.943 499.222 583.468 460 583.468 c 0
 420.778 583.468 389.4 554.943 389.4 520 c 0
212 408 m 1
 208.645 408.284 211.311 408.45 208 408.45 c 0
 136 408.45 69 332 69 230 c 0
 69 147 117.31 71 206 71 c 0xd5fa
 265 71 318 98.6416 318 158 c 0
 318 196 298.453 217 267 217 c 0
 259.667 217 250 215 243 210 c 1
 242 204 241 195.333 241 192 c 1
 216 192 l 1
 226.196 316.901 288 431.5 410 431.5 c 0
 522 431.5 586 332 586 217 c 0
 586 95 500.053 -1 369 -1 c 0
 359 -1 348.667 -0.333008 338 1 c 1
 338 26 l 1
 346 25 354 24 362 24 c 0
 469 24 543 100 543 200 c 0
 543 301 484 371 393 371 c 0xb9fa
 316.35 371 263 313 247 236 c 1
 255 240 263.333 241 270 241 c 0
 318 241 352 202 352 136 c 0
 352 56 295 -2 208 -2 c 0
 97 -2 34 96 34 207 c 0
 34 330 110 431.5 207 431.5 c 0xd5fa
 210.953 431.5 207.954 431.25 212 431 c 1
 212 408 l 1
397 412 m 1
 237 415.333 150 462 150 537 c 0
 150 628 248.984 667 351 667 c 0
 456.345 667 559 618 559 525 c 0
 559 456 501 431 458 431 c 0x93fc
 414 431 361 464 361 519 c 0
 361 564.604 395 591 411 593.824 c 1
 389 597 374.64 598 351 598 c 0
 269.527 598 191 568 191 516 c 0
 191 455.697 325 431.5 411 431.492 c 0
 412.006 431.492 412.006 431.494 413 431.5 c 2x99fc
 397 412 l 1
EndSplineSet
Ligature2: "'abvs' Above Base Substitutions in Sinhala lookup 7 subtable" si_GRa si_MatraIi
EndChar

StartChar: si_Gh.halant
Encoding: 65586 -1 133
Width: 677
GlyphClass: 3
Flags: MW
HStem: -1 72<177 208.333> 171 29<319 348.5 313.5 349.72> 276 32<5 279> 283 25<147 147 147 279 279 281 5 309 189.5 216 216 279 279 281 5 313> 291 25<432 462 432 494.5> 393 39<444 488.239>
VStem: 51 38<145.588 190> 242 30<102 129.5 88.5 143> 281.086 32.0605 391 29<104.5 125> 540 39<340 362.5> 593 35<145.5 193.541 112 213>
LayerCount: 2
Fore
SplineSet
216 283 m 2xd7f0
 163 283 89 248 89 175 c 0
 89 116.177 142 71 212 71 c 0
 228 71 241.667 72.667 245 76 c 1
 243 86 242 98 242 106 c 0
 242 180 295 200 332 200 c 0
 365 200 420 180 420 108 c 0
 420 101 419 87 417 79 c 1
 421.424 75.668 439.705 71 471 71 c 0
 540 71 593 113 593 178 c 0
 593 248 541 291 448 291 c 0xcff0
 412 291 386 289 353 282 c 1
 352.814 285.706 352.717 287.374 352.717 291 c 0
 352.717 375 400.574 432 476 432 c 0
 530 432 579 408 579 350 c 0
 579 328.667 565 306 550 297 c 1
 597.333 273.667 628 221.082 628 166 c 0
 628 58 555.929 0 464 0 c 0
 440 0 412.667 4 382 12 c 1
 379.333 17.333 378 23.333 378 30 c 0
 378 64 391 78 391 108 c 0
 391 142 367.44 171 332 171 c 0
 306 171 272 153 272 106 c 0
 272 71 281 69 281 35 c 0
 281 27.667 280 17 277 11 c 1
 246 2 217.667 -1 199 -1 c 0
 108.174 -1 51 76 51 154 c 0
 51 226 92 269 144 285 c 1
 177.761 297.199 231.875 308 269 308 c 2
 281 308 l 1
 281.082 310.041 281.086 310.041 281.086 312 c 0
 281.086 360 249 395 212 395 c 0
 173 395 162 371 156.5 355 c 0
 149.951 335.948 139.871 323 118 323 c 0
 102 323 82 333.368 82 359 c 0
 82 406 132 431.5 187 431.5 c 0
 275 431.5 313.146 369 313.146 296 c 0
 313.146 292.722 313.101 286.388 313 283 c 1
 216 283 l 2xd7f0
147 283 m 1xd7f0
 76 282 21 278.667 5 276 c 1
 5 308 l 1xe7f0
 279 308 l 1
 309 283 l 1
 147 283 l 1xd7f0
382 310 m 1
 395 314 419 316 445 316 c 0xcff0
 479 316 511.998 310.734 525 306 c 1
 537 319 540 334 540 346 c 0
 540 379 506.478 393 470 393 c 0
 418 393 386.667 364.667 382 310 c 1
478 413 m 1
 478 680 l 1
 532 638 628 633 628 541 c 0
 628 497 593.191 467 550 467 c 0
 535.333 467 520.333 470.333 505 477 c 1
 505 396 l 1
 478 413 l 1
505 637 m 1
 505 502 l 1
 513.667 497.333 524.667 495 538 495 c 0
 576 495 591 520 591 544 c 0
 591 586 552 606 505 637 c 1
EndSplineSet
Ligature2: "'haln' Halant Forms in Sinhala lookup 3 subtable" si_Gha si_Halant
EndChar

StartChar: si_GhI
Encoding: 65587 -1 134
Width: 677
GlyphClass: 3
Flags: MW
HStem: -1 72<177 208.333> 171 29<319 348.5 313.5 349.72> 283 25<147 147 147 279 279 281 5 309 189.5 216 216 279 279 281 5 313> 291 25<432 462 432 494.5> 404 27.5<159.5 245.5> 597 73<290.046 378.954>
VStem: 51 38<145.588 190> 102.5 34<480.5 543.544 480.5 571.146> 242 30<102 129.5 88.5 143> 281.086 32.0605 391 29<104.5 125> 532.5 34<480.5 543.544> 540 39<340 362.5> 593 35<145.5 193.541 112 213>
LayerCount: 2
Fore
SplineSet
216 283 m 2xefec
 163 283 89 248 89 175 c 0
 89 116.177 142 71 212 71 c 0
 228 71 241.667 72.667 245 76 c 1
 243 86 242 98 242 106 c 0
 242 180 295 200 332 200 c 0
 365 200 420 180 420 108 c 0
 420 101 419 87 417 79 c 1
 421.424 75.668 439.705 71 471 71 c 0
 540 71 593 113 593 178 c 0
 593 248 541 291 448 291 c 0xdfec
 412 291 386 289 353 282 c 1
 352.814 285.706 352.717 287.374 352.717 291 c 0
 352.717 375 400.574 432 476 432 c 0
 530 432 579 408 579 350 c 0
 579 328.667 565 306 550 297 c 1
 597.333 273.667 628 221.082 628 166 c 0
 628 58 555.929 0 464 0 c 0
 440 0 412.667 4 382 12 c 1
 379.333 17.333 378 23.333 378 30 c 0
 378 64 391 78 391 108 c 0
 391 142 367.44 171 332 171 c 0
 306 171 272 153 272 106 c 0
 272 71 281 69 281 35 c 0
 281 27.667 280 17 277 11 c 1
 246 2 217.667 -1 199 -1 c 0
 108.174 -1 51 76 51 154 c 0
 51 226 92 269 144 285 c 1
 177.761 297.199 231.875 308 269 308 c 2
 281 308 l 1
 281.082 310.041 281.086 310.041 281.086 312 c 0
 281.086 360 249 395 212 395 c 0
 173 395 162 371 156.5 355 c 0
 149.951 335.948 139.871 323 118 323 c 0
 102 323 82 333.368 82 359 c 0
 82 406 132 431.5 187 431.5 c 0
 275 431.5 313.146 369 313.146 296 c 0
 313.146 292.722 313.101 286.388 313 283 c 1
 216 283 l 2xefec
147 283 m 1xefe4
 76 282 21 278.667 5 276 c 1
 5 308 l 1
 279 308 l 1
 309 283 l 1
 147 283 l 1xefe4
382 310 m 1
 395 314 419 316 445 316 c 0
 479 316 511.998 310.734 525 306 c 1
 537 319 540 334 540 346 c 0xdfec
 540 379 506.478 393 470 393 c 0
 418 393 386.667 364.667 382 310 c 1
334.5 670 m 0
 453.879 670 566.5 625.291 566.5 517 c 0
 566.5 442.457 500.357 407.074 423.5 404 c 1
 452 430 l 1
 476.387 432.386 532.5 453 532.5 508 c 0xcff4
 532.5 579.089 423.408 597 334.5 597 c 0
 245.592 597 136.5 579.089 136.5 508 c 0
 136.5 453 190.271 433.938 216 429 c 1
 245.5 404 l 1
 168.643 407.074 102.5 442.457 102.5 517 c 0
 102.5 625.291 215.121 670 334.5 670 c 0
EndSplineSet
Ligature2: "'abvs' Above Base Substitutions in Sinhala lookup 4 subtable" si_Gha si_MatraI
EndChar

StartChar: si_GhIi
Encoding: 65588 -1 135
Width: 677
GlyphClass: 3
Flags: MW
HStem: -1 72<177 208.333> 171 29<319 348.5 313.5 349.72> 283 25<147 147 147 279 279 281 5 309 189.5 216 216 279 279 281 5 313> 291 25<432 462 432 494.5> 393 65<470.5 488.239> 395 36.5<192.5 230.5> 429 3<459.5 503 438.287 516.639> 600 71<290.418 364.5>
VStem: 51 38<145.588 190> 85.5 37<486.5 538.5 479.667 570.605> 242 30<102 129.5 88.5 143> 281.086 32.0605 391 29<104.5 125> 540 39<340 362.5> 554.5 35<498.5 529.5> 593 35<145.5 193.541 112 213>
LayerCount: 2
Fore
SplineSet
216 283 m 2xe5bd
 163 283 89 248 89 175 c 0
 89 116.177 142 71 212 71 c 0
 228 71 241.667 72.667 245 76 c 1
 243 86 242 98 242 106 c 0
 242 180 295 200 332 200 c 0
 365 200 420 180 420 108 c 0
 420 101 419 87 417 79 c 1
 421.424 75.668 439.705 71 471 71 c 0
 540 71 593 113 593 178 c 0
 593 248 541 291 448 291 c 0
 412 291 386 289 353 282 c 1
 352.814 285.706 352.717 287.374 352.717 291 c 0
 352.717 375 400.574 432 476 432 c 0xd3bd
 530 432 579 408 579 350 c 0
 579 328.667 565 306 550 297 c 1
 597.333 273.667 628 221.082 628 166 c 0
 628 58 555.929 0 464 0 c 0
 440 0 412.667 4 382 12 c 1
 379.333 17.333 378 23.333 378 30 c 0
 378 64 391 78 391 108 c 0
 391 142 367.44 171 332 171 c 0
 306 171 272 153 272 106 c 0
 272 71 281 69 281 35 c 0
 281 27.667 280 17 277 11 c 1
 246 2 217.667 -1 199 -1 c 0
 108.174 -1 51 76 51 154 c 0
 51 226 92 269 144 285 c 1
 177.761 297.199 231.875 308 269 308 c 2
 281 308 l 1
 281.082 310.041 281.086 310.041 281.086 312 c 0
 281.086 360 249 395 212 395 c 0
 173 395 162 371 156.5 355 c 0
 149.951 335.948 139.871 323 118 323 c 0
 102 323 82 333.368 82 359 c 0
 82 406 132 431.5 187 431.5 c 0
 275 431.5 313.146 369 313.146 296 c 0
 313.146 292.722 313.101 286.388 313 283 c 1
 216 283 l 2xe5bd
147 283 m 1xe139
 76 282 21 278.667 5 276 c 1
 5 308 l 1
 279 308 l 1
 309 283 l 1
 147 283 l 1xe139
382 310 m 1
 395 314 419 316 445 316 c 0
 479 316 511.998 310.734 525 306 c 1
 537 319 540 334 540 346 c 0
 540 379 506.478 393 470 393 c 0xd93d
 418 393 386.667 364.667 382 310 c 1
422.5 514 m 0
 422.5 483 452.5 458 488.5 458 c 0
 524.5 458 554.5 483 554.5 514 c 0xc93b
 554.5 545 524.5 570 488.5 570 c 0
 452.5 570 422.5 545 422.5 514 c 0
175.5 406 m 1
 122.255 410.733 85.5 456 85.5 517 c 0
 85.5 624.211 209.446 671 336.5 671 c 0
 453.214 671 589.5 627.399 589.5 524 c 0
 589.5 468.769 544.777 429 488.5 429 c 0
 430.5 429 390.5 470 390.5 515 c 0
 390.5 560 422.5 582 441.5 591 c 1
 430.5 594 391.5 600 337.5 600 c 0
 243.336 600 122.5 578 122.5 499 c 0xc37b
 122.5 460.333 144.5 435 182.5 426 c 1
 175.5 406 l 1
EndSplineSet
Ligature2: "'abvs' Above Base Substitutions in Sinhala lookup 5 subtable" si_Gha si_MatraIi
EndChar

StartChar: si_GhU
Encoding: 65589 -1 136
Width: 677
GlyphClass: 3
Flags: MW
HStem: -1 72<177 208.333> 171 29<319 348.5 313.5 349.72> 276 32<5 279> 283 25<147 147 147 279 279 281 5 309 189.5 216 216 279 279 281 5 313> 291 25<432 462 432 494.5> 393 39<444 488.239>
VStem: 51 38<145.588 190> 242 30<102 129.5 88.5 143> 281.086 32.0605 391 29<104.5 125> 540 39<340 362.5> 593 35<145.5 193.541 112 213>
LayerCount: 2
Fore
SplineSet
216 283 m 2xd7f0
 163 283 89 248 89 175 c 0
 89 116.177 142 71 212 71 c 0
 228 71 241.667 72.667 245 76 c 1
 243 86 242 98 242 106 c 0
 242 180 295 200 332 200 c 0
 365 200 420 180 420 108 c 0
 420 101 419 87 417 79 c 1
 421.424 75.668 439.705 71 471 71 c 0
 540 71 593 113 593 178 c 0
 593 248 541 291 448 291 c 0xcff0
 412 291 386 289 353 282 c 1
 352.814 285.706 352.717 287.374 352.717 291 c 0
 352.717 375 400.574 432 476 432 c 0
 530 432 579 408 579 350 c 0
 579 328.667 565 306 550 297 c 1
 597.333 273.667 628 221.082 628 166 c 0
 628 58 555.929 0 464 0 c 0
 440 0 412.667 4 382 12 c 1
 379.333 17.333 378 23.333 378 30 c 0
 378 64 391 78 391 108 c 0
 391 142 367.44 171 332 171 c 0
 306 171 272 153 272 106 c 0
 272 71 281 69 281 35 c 0
 281 27.667 280 17 277 11 c 1
 246 2 217.667 -1 199 -1 c 0
 108.174 -1 51 76 51 154 c 0
 51 226 92 269 144 285 c 1
 177.761 297.199 231.875 308 269 308 c 2
 281 308 l 1
 281.082 310.041 281.086 310.041 281.086 312 c 0
 281.086 360 249 395 212 395 c 0
 173 395 162 371 156.5 355 c 0
 149.951 335.948 139.871 323 118 323 c 0
 102 323 82 333.368 82 359 c 0
 82 406 132 431.5 187 431.5 c 0
 275 431.5 313.146 369 313.146 296 c 0
 313.146 292.722 313.101 286.388 313 283 c 1
 216 283 l 2xd7f0
147 283 m 1xd7f0
 76 282 21 278.667 5 276 c 1
 5 308 l 1xe7f0
 279 308 l 1
 309 283 l 1
 147 283 l 1xd7f0
382 310 m 1
 395 314 419 316 445 316 c 0xcff0
 479 316 511.998 310.734 525 306 c 1
 537 319 540 334 540 346 c 0
 540 379 506.478 393 470 393 c 0
 418 393 386.667 364.667 382 310 c 1
616 219 m 1
 616 -235 l 1
 172 -235 l 2
 102.84 -235 66.5 -186.092 66.5 -142.5 c 0
 66.5 -90.4912 112.793 -50.5 168 -50.5 c 0
 209.906 -50.5 247.25 -74.1416 262 -110 c 1
 232 -121.5 l 1
 224.982 -101.896 201 -80 168 -80 c 0
 131.296 -80 100 -106.714 100 -142.5 c 0
 100 -171.663 123.384 -199 189 -199 c 2
 583 -199 l 1
 583 128 l 1
 616 219 l 1
EndSplineSet
Ligature2: "'blws' Below Base Substitutions in Sinhala lookup 11 subtable" si_Gha si_MatraU
EndChar

StartChar: si_GhUu
Encoding: 65590 -1 137
Width: 677
GlyphClass: 3
Flags: MW
HStem: -237 46<156 219.5 156 227.5> -144 27<412.5 476.5 407.5 492> -68 28<155 189> -1 72<177 208.333> 171 29<319 348.5 313.5 349.72> 283 25<147 147 147 279 279 281 5 309 189.5 216 216 279 279 281 5 313> 291 25<432 462 432 494.5> 393 39<444 488.239>
VStem: 51 38<145.588 190> 67.5 36<-147.683 -110.5 -147.683 -109> 242 30<102 129.5 88.5 143> 281.086 32.0605 391 29<104.5 125> 540 39<340 362.5> 583.5 33<-168 121.5 121.5 121.5> 593 35<145.5 193.541 112 213> 593.5 23<-231 212>
LayerCount: 2
Fore
SplineSet
616.5 212 m 1xf93c80
 616.5 -231 l 1
 593.5 -231 l 1xf93c80
 578.5 -195 526 -144 458 -144 c 0
 367 -144 276.5 -237 178.5 -237 c 0
 123.5 -237 67.5 -206 67.5 -138 c 0
 67.5 -80 116.5 -40 169.5 -40 c 0
 211.5 -40 243.833 -55 266.5 -91 c 1
 236.5 -102 l 1
 224.5 -83 203.5 -68 174.5 -68 c 0
 135.5 -68 103.5 -92 103.5 -129 c 0
 103.5 -166.366 134.5 -191 177.5 -191 c 0
 261.5 -191 360 -117 455 -117 c 0
 498 -117 556.5 -136 583.5 -168 c 1
 583.5 121.5 l 1xf97e
 616.5 212 l 1xf93c80
216 283 m 2xfdbd
 163 283 89 248 89 175 c 0
 89 116.177 142 71 212 71 c 0
 228 71 241.667 72.667 245 76 c 1
 243 86 242 98 242 106 c 0
 242 180 295 200 332 200 c 0
 365 200 420 180 420 108 c 0
 420 101 419 87 417 79 c 1
 421.424 75.668 439.705 71 471 71 c 0
 540 71 593 113 593 178 c 0
 593 248 541 291 448 291 c 0xfbbd
 412 291 386 289 353 282 c 1
 352.814 285.706 352.717 287.374 352.717 291 c 0
 352.717 375 400.574 432 476 432 c 0
 530 432 579 408 579 350 c 0
 579 328.667 565 306 550 297 c 1
 597.333 273.667 628 221.082 628 166 c 0
 628 58 555.929 0 464 0 c 0
 440 0 412.667 4 382 12 c 1
 379.333 17.333 378 23.333 378 30 c 0
 378 64 391 78 391 108 c 0
 391 142 367.44 171 332 171 c 0
 306 171 272 153 272 106 c 0
 272 71 281 69 281 35 c 0
 281 27.667 280 17 277 11 c 1
 246 2 217.667 -1 199 -1 c 0
 108.174 -1 51 76 51 154 c 0
 51 226 92 269 144 285 c 1
 177.761 297.199 231.875 308 269 308 c 2
 281 308 l 1
 281.082 310.041 281.086 310.041 281.086 312 c 0
 281.086 360 249 395 212 395 c 0
 173 395 162 371 156.5 355 c 0
 149.951 335.948 139.871 323 118 323 c 0
 102 323 82 333.368 82 359 c 0
 82 406 132 431.5 187 431.5 c 0
 275 431.5 313.146 369 313.146 296 c 0
 313.146 292.722 313.101 286.388 313 283 c 1
 216 283 l 2xfdbd
147 283 m 1xfd3c
 76 282 21 278.667 5 276 c 1
 5 308 l 1
 279 308 l 1
 309 283 l 1
 147 283 l 1xfd3c
382 310 m 1
 395 314 419 316 445 316 c 0xfb3c
 479 316 511.998 310.734 525 306 c 1
 537 319 540 334 540 346 c 0
 540 379 506.478 393 470 393 c 0
 418 393 386.667 364.667 382 310 c 1
EndSplineSet
Ligature2: "'blws' Below Base Substitutions in Sinhala lookup 13 subtable" si_Gha si_MatraUu
EndChar

StartChar: si_Gha.reph
Encoding: 65591 -1 138
Width: 677
GlyphClass: 3
Flags: MW
HStem: -1 72<177 208.333> 171 29<319 348.5 313.5 349.72> 283 25<147 147 147 279 279 281 5 309 189.5 216 216 279 279 281 5 313> 291 25<432 462 432 494.5> 393 39<444 450 450 488.239> 425 28.8066 528.193 23.8066 583.75 27.25<306.611 363.5>
VStem: 51 38<145.588 190> 194 31.25<490.462 536.278 490.462 542> 242 30<102 129.5 88.5 143> 269 27.0859 281.086 32.0605 377.914 27.0859 391 29<104.5 125> 444.75 30.25<485 524.621> 540 39<340 362.5> 593 35<145.5 193.541 112 213>
LayerCount: 2
Fore
SplineSet
296.086 491 m 0xc7d5c0
 296.086 470.446 314.684 453.807 337 453.807 c 0
 359.316 453.807 377.914 470.446 377.914 491 c 0
 377.914 511.554 359.316 528.193 337 528.193 c 0
 314.684 528.193 296.086 511.554 296.086 491 c 0xc7d5c0
289.5 450.25 m 1
 281.5 456.25 269 471 269 492 c 0
 269 527 300.354 552 336 552 c 0
 377 552 405 525 405 490 c 0
 405 451 370 425 312 425 c 0xc7d5c0
 253 425 194 454 194 510 c 0
 194 574 252.12 611 334 611 c 0
 411 611 475 568 475 497 c 0
 475 473 466.667 451.333 450 432 c 1
 416.25 432 l 1xcbd5c0
 429.42 444.387 444.75 468.734 444.75 496 c 0
 444.75 553.241 394 583.75 333 583.75 c 0
 280.222 583.75 225.25 562.556 225.25 510 c 0
 225.25 470.925 266.304 452.216 289.5 450.25 c 1
216 283 m 2xebc9c0
 163 283 89 248 89 175 c 0
 89 116.177 142 71 212 71 c 0
 228 71 241.667 72.667 245 76 c 1
 243 86 242 98 242 106 c 0
 242 180 295 200 332 200 c 0
 365 200 420 180 420 108 c 0
 420 101 419 87 417 79 c 1
 421.424 75.668 439.705 71 471 71 c 0
 540 71 593 113 593 178 c 0
 593 248 541 291 448 291 c 0
 412 291 386 289 353 282 c 1
 352.814 285.706 352.717 287.374 352.717 291 c 0
 352.717 375 400.574 432 476 432 c 0
 530 432 579 408 579 350 c 0
 579 328.667 565 306 550 297 c 1
 597.333 273.667 628 221.082 628 166 c 0
 628 58 555.929 0 464 0 c 0
 440 0 412.667 4 382 12 c 1
 379.333 17.333 378 23.333 378 30 c 0
 378 64 391 78 391 108 c 0
 391 142 367.44 171 332 171 c 0
 306 171 272 153 272 106 c 0xdbebc0
 272 71 281 69 281 35 c 0
 281 27.667 280 17 277 11 c 1
 246 2 217.667 -1 199 -1 c 0
 108.174 -1 51 76 51 154 c 0
 51 226 92 269 144 285 c 1
 177.761 297.199 231.875 308 269 308 c 2xebd1c0
 281 308 l 1
 281.082 310.041 281.086 310.041 281.086 312 c 0
 281.086 360 249 395 212 395 c 0
 173 395 162 371 156.5 355 c 0
 149.951 335.948 139.871 323 118 323 c 0
 102 323 82 333.368 82 359 c 0
 82 406 132 431.5 187 431.5 c 0
 275 431.5 313.146 369 313.146 296 c 0
 313.146 292.722 313.101 286.388 313 283 c 1
 216 283 l 2xebc9c0
147 283 m 1xe3c1c0
 76 282 21 278.667 5 276 c 1
 5 308 l 1
 279 308 l 1
 309 283 l 1
 147 283 l 1xe3c1c0
382 310 m 1
 395 314 419 316 445 316 c 0
 479 316 511.998 310.734 525 306 c 1
 537 319 540 334 540 346 c 0
 540 379 506.478 393 470 393 c 0xdbc1c0
 418 393 386.667 364.667 382 310 c 1
EndSplineSet
Ligature2: "'abvs' Above Base Substitutions in Sinhala lookup 10 subtable" si_Gha si_Reph
EndChar

StartChar: si_GhAa.reph
Encoding: 65592 -1 139
Width: 938
GlyphClass: 2
Flags: MW
HStem: -2 37.4004 -1 72<177 208.333> 171 29<319 348.5 313.5 349.72> 283 25<147 147 147 279 279 281 5 309 189.5 216 216 279 279 281 5 313> 291 25<432 462 432 494.5> 364.6 37.4004 393 39<444 450 450 488.239> 425 28.8066 528.193 23.8066 583.75 27.25<306.611 363.5>
VStem: 51 38<145.588 190> 194 31.25<490.462 536.278 490.462 542> 242 30<102 129.5 88.5 143> 269 27.0859 281.086 32.0605 377.914 27.0859 391 29<104.5 125> 444.75 30.25<485 524.621> 540 39<340 362.5> 593 35<145.5 193.541 112 213> 640.5 27<91.9302 112.803 287.197 308.07> 822.5 66<144.77 255.23>
LayerCount: 2
Fore
SplineSet
296.086 491 m 0x21f57c
 296.086 470.446 314.684 453.807 337 453.807 c 0
 359.316 453.807 377.914 470.446 377.914 491 c 0
 377.914 511.554 359.316 528.193 337 528.193 c 0
 314.684 528.193 296.086 511.554 296.086 491 c 0x21f57c
289.5 450.25 m 1
 281.5 456.25 269 471 269 492 c 0
 269 527 300.354 552 336 552 c 0
 377 552 405 525 405 490 c 0
 405 451 370 425 312 425 c 0x21f57c
 253 425 194 454 194 510 c 0
 194 574 252.12 611 334 611 c 0
 411 611 475 568 475 497 c 0
 475 473 466.667 451.333 450 432 c 1
 416.25 432 l 1x22f57c
 429.42 444.387 444.75 468.734 444.75 496 c 0
 444.75 553.241 394 583.75 333 583.75 c 0
 280.222 583.75 225.25 562.556 225.25 510 c 0
 225.25 470.925 266.304 452.216 289.5 450.25 c 1
822.5 200 m 0
 822.5 89.54 795.498 35.9258 736.5 35.4004 c 0
 691.5 35 667.5 67.6904 667.5 116.17 c 0
 667.5 121.557 667.833 126.606 668.5 131.32 c 1
 641.5 131.32 l 1
 640.833 123.914 640.5 116.507 640.5 109.1 c 0
 640.5 40.2715 684.088 -2 751.5 -2 c 0
 842.5 -2 888.5 71.7305 888.5 200 c 0
 888.5 328.27 842.5 402 751.5 402 c 0
 692.5 402 640.5 359.729 640.5 290.9 c 0
 640.5 283.494 640.833 276.086 641.5 268.68 c 1
 668.5 268.68 l 1
 667.833 273.394 667.5 278.443 667.5 283.83 c 0
 667.5 332.31 698.5 364.6 736.5 364.6 c 0xa4f07c
 795.5 364.6 822.5 310.46 822.5 200 c 0
216 283 m 2x72f27c
 163 283 89 248 89 175 c 0
 89 116.177 142 71 212 71 c 0
 228 71 241.667 72.667 245 76 c 1
 243 86 242 98 242 106 c 0
 242 180 295 200 332 200 c 0
 365 200 420 180 420 108 c 0
 420 101 419 87 417 79 c 1
 421.424 75.668 439.705 71 471 71 c 0
 540 71 593 113 593 178 c 0
 593 248 541 291 448 291 c 0
 412 291 386 289 353 282 c 1
 352.814 285.706 352.717 287.374 352.717 291 c 0
 352.717 375 400.574 432 476 432 c 0
 530 432 579 408 579 350 c 0
 579 328.667 565 306 550 297 c 1
 597.333 273.667 628 221.082 628 166 c 0
 628 58 555.929 0 464 0 c 0
 440 0 412.667 4 382 12 c 1
 379.333 17.333 378 23.333 378 30 c 0
 378 64 391 78 391 108 c 0
 391 142 367.44 171 332 171 c 0
 306 171 272 153 272 106 c 0x6afafc
 272 71 281 69 281 35 c 0
 281 27.667 280 17 277 11 c 1
 246 2 217.667 -1 199 -1 c 0
 108.174 -1 51 76 51 154 c 0
 51 226 92 269 144 285 c 1
 177.761 297.199 231.875 308 269 308 c 2x72f47c
 281 308 l 1
 281.082 310.041 281.086 310.041 281.086 312 c 0
 281.086 360 249 395 212 395 c 0
 173 395 162 371 156.5 355 c 0
 149.951 335.948 139.871 323 118 323 c 0
 102 323 82 333.368 82 359 c 0
 82 406 132 431.5 187 431.5 c 0
 275 431.5 313.146 369 313.146 296 c 0
 313.146 292.722 313.101 286.388 313 283 c 1
 216 283 l 2x72f27c
147 283 m 1x30f07c
 76 282 21 278.667 5 276 c 1
 5 308 l 1
 279 308 l 1
 309 283 l 1
 147 283 l 1x30f07c
382 310 m 1
 395 314 419 316 445 316 c 0
 479 316 511.998 310.734 525 306 c 1
 537 319 540 334 540 346 c 0
 540 379 506.478 393 470 393 c 0x2af07c
 418 393 386.667 364.667 382 310 c 1
EndSplineSet
EndChar

StartChar: si_GhRIi
Encoding: 65594 -1 141
Width: 677
GlyphClass: 3
Flags: MW
HStem: -219 62<264.333 388.5 264.333 408.5> -1 72<177 208.333> 171 29<319 348.5 313.5 349.72> 283 25<147 147 147 279 279 281 5 309 189.5 216 216 279 279 281 5 313> 291 25<432 462 432 494.5> 393 65<470.5 488.239> 395 36.5<192.5 230.5> 429 3<459.5 503 438.287 516.639> 600 71<290.418 364.5>
VStem: 51 38<145.588 190> 85.5 37<486.5 538.5 479.667 570.605> 242 30<102 129.5 88.5 143> 281.086 32.0605 391 29<104.5 125> 540 39<340 362.5> 554.5 35<498.5 529.5> 593 35<145.5 193.541 112 213> 601.5 26<-20 56.3335 -42.8647 60.5>
LayerCount: 2
Fore
SplineSet
90.5 -44 m 1xe09d40
 125.833 -119.333 211.667 -157 317 -157 c 0
 460 -157 601.5 -90 601.5 50 c 0
 601.5 71 596.5 93 589.5 102 c 1
 600.5 133 l 1
 618.5 106.333 627.5 74.667 627.5 38 c 0
 627.5 -123.729 484 -219 333 -219 c 0
 192 -219 100.833 -153.333 63.5 -44 c 1
 90.5 -44 l 1xe09d40
216 283 m 2xf2de80
 163 283 89 248 89 175 c 0
 89 116.177 142 71 212 71 c 0
 228 71 241.667 72.667 245 76 c 1
 243 86 242 98 242 106 c 0
 242 180 295 200 332 200 c 0
 365 200 420 180 420 108 c 0
 420 101 419 87 417 79 c 1
 421.424 75.668 439.705 71 471 71 c 0
 540 71 593 113 593 178 c 0
 593 248 541 291 448 291 c 0
 412 291 386 289 353 282 c 1
 352.814 285.706 352.717 287.374 352.717 291 c 0
 352.717 375 400.574 432 476 432 c 0xe9de80
 530 432 579 408 579 350 c 0
 579 328.667 565 306 550 297 c 1
 597.333 273.667 628 221.082 628 166 c 0
 628 58 555.929 0 464 0 c 0
 440 0 412.667 4 382 12 c 1
 379.333 17.333 378 23.333 378 30 c 0
 378 64 391 78 391 108 c 0
 391 142 367.44 171 332 171 c 0
 306 171 272 153 272 106 c 0
 272 71 281 69 281 35 c 0
 281 27.667 280 17 277 11 c 1
 246 2 217.667 -1 199 -1 c 0
 108.174 -1 51 76 51 154 c 0
 51 226 92 269 144 285 c 1
 177.761 297.199 231.875 308 269 308 c 2
 281 308 l 1
 281.082 310.041 281.086 310.041 281.086 312 c 0
 281.086 360 249 395 212 395 c 0
 173 395 162 371 156.5 355 c 0
 149.951 335.948 139.871 323 118 323 c 0
 102 323 82 333.368 82 359 c 0
 82 406 132 431.5 187 431.5 c 0
 275 431.5 313.146 369 313.146 296 c 0
 313.146 292.722 313.101 286.388 313 283 c 1
 216 283 l 2xf2de80
147 283 m 1xf09c
 76 282 21 278.667 5 276 c 1
 5 308 l 1
 279 308 l 1
 309 283 l 1
 147 283 l 1xf09c
382 310 m 1
 395 314 419 316 445 316 c 0
 479 316 511.998 310.734 525 306 c 1
 537 319 540 334 540 346 c 0
 540 379 506.478 393 470 393 c 0xec9e
 418 393 386.667 364.667 382 310 c 1
422.5 514 m 0
 422.5 483 452.5 458 488.5 458 c 0
 524.5 458 554.5 483 554.5 514 c 0xe49d
 554.5 545 524.5 570 488.5 570 c 0
 452.5 570 422.5 545 422.5 514 c 0
175.5 406 m 1
 122.255 410.733 85.5 456 85.5 517 c 0
 85.5 624.211 209.446 671 336.5 671 c 0
 453.214 671 589.5 627.399 589.5 524 c 0
 589.5 468.769 544.777 429 488.5 429 c 0
 430.5 429 390.5 470 390.5 515 c 0
 390.5 560 422.5 582 441.5 591 c 1
 430.5 594 391.5 600 337.5 600 c 0
 243.336 600 122.5 578 122.5 499 c 0xe1bd
 122.5 460.333 144.5 435 182.5 426 c 1
 175.5 406 l 1
EndSplineSet
Ligature2: "'abvs' Above Base Substitutions in Sinhala lookup 7 subtable" si_GhRa si_MatraIi
EndChar

StartChar: si_GhRa
Encoding: 65595 -1 142
Width: 677
GlyphClass: 3
Flags: MW
HStem: -219 62<264.333 388.5 264.333 408.5> -1 72<177 208.333> 171 29<319 348.5 313.5 349.72> 283 25<147 147 147 279 279 281 5 309 189.5 216 216 279 279 281 5 313> 291 25<432 462 432 494.5> 393 39<444 488.239>
VStem: 51 38<145.588 190> 242 30<102 129.5 88.5 143> 281.086 32.0605 391 29<104.5 125> 540 39<340 362.5> 593 35<145.5 193.541 112 213> 601.5 26<-20 56.3335 -42.8647 60.5>
LayerCount: 2
Fore
SplineSet
90.5 -44 m 1xe7e8
 125.833 -119.333 211.667 -157 317 -157 c 0
 460 -157 601.5 -90 601.5 50 c 0
 601.5 71 596.5 93 589.5 102 c 1
 600.5 133 l 1
 618.5 106.333 627.5 74.667 627.5 38 c 0
 627.5 -123.729 484 -219 333 -219 c 0
 192 -219 100.833 -153.333 63.5 -44 c 1
 90.5 -44 l 1xe7e8
216 283 m 2xf7f0
 163 283 89 248 89 175 c 0
 89 116.177 142 71 212 71 c 0
 228 71 241.667 72.667 245 76 c 1
 243 86 242 98 242 106 c 0
 242 180 295 200 332 200 c 0
 365 200 420 180 420 108 c 0
 420 101 419 87 417 79 c 1
 421.424 75.668 439.705 71 471 71 c 0
 540 71 593 113 593 178 c 0
 593 248 541 291 448 291 c 0xeff0
 412 291 386 289 353 282 c 1
 352.814 285.706 352.717 287.374 352.717 291 c 0
 352.717 375 400.574 432 476 432 c 0
 530 432 579 408 579 350 c 0
 579 328.667 565 306 550 297 c 1
 597.333 273.667 628 221.082 628 166 c 0
 628 58 555.929 0 464 0 c 0
 440 0 412.667 4 382 12 c 1
 379.333 17.333 378 23.333 378 30 c 0
 378 64 391 78 391 108 c 0
 391 142 367.44 171 332 171 c 0
 306 171 272 153 272 106 c 0
 272 71 281 69 281 35 c 0
 281 27.667 280 17 277 11 c 1
 246 2 217.667 -1 199 -1 c 0
 108.174 -1 51 76 51 154 c 0
 51 226 92 269 144 285 c 1
 177.761 297.199 231.875 308 269 308 c 2
 281 308 l 1
 281.082 310.041 281.086 310.041 281.086 312 c 0
 281.086 360 249 395 212 395 c 0
 173 395 162 371 156.5 355 c 0
 149.951 335.948 139.871 323 118 323 c 0
 102 323 82 333.368 82 359 c 0
 82 406 132 431.5 187 431.5 c 0
 275 431.5 313.146 369 313.146 296 c 0
 313.146 292.722 313.101 286.388 313 283 c 1
 216 283 l 2xf7f0
147 283 m 1xf7e0
 76 282 21 278.667 5 276 c 1
 5 308 l 1
 279 308 l 1
 309 283 l 1
 147 283 l 1xf7e0
382 310 m 1
 395 314 419 316 445 316 c 0xefe0
 479 316 511.998 310.734 525 306 c 1
 537 319 540 334 540 346 c 0
 540 379 506.478 393 470 393 c 0
 418 393 386.667 364.667 382 310 c 1
EndSplineSet
Ligature2: "'rkrf' Rakar Forms in Sinhala lookup 17 subtable" si_Gha si_Halant si_Ra
EndChar

StartChar: si_C.halant
Encoding: 65603 -1 150
Width: 621
GlyphClass: 3
Flags: MW
HStem: 0 71<253 374.5 253 386.5> 277 25<148 148 148 285 285 287 14 315 227.78 250 250 285 285 287 14 319> 395 36.5<191.973 232 160.5 234.562> 493.75 25.25<255.837 333 255.837 358.5> 590 39<248 342>
VStem: 64 37<137 180.36> 83 74.5 98 41<537 555 537 564.5> 126 37<503.5 520.5> 287.086 32.0605 539 38<230 274 274 284 194 304 279 283>
LayerCount: 2
Fore
SplineSet
160 508 m 1xf8e0
 193 514 232.675 519 279 519 c 0
 387 519 479 485 527 422 c 1
 494 537 400 590 284 590 c 0
 212 590 139 567 139 543 c 0xf960
 139 531 163 526 163 515 c 0
 163 513 162 510 160 508 c 1xf8e0
42 442 m 1
 42 473 l 1
 74 485 126 499 126 508 c 0xf8e0
 126 520 98 524 98 546 c 0
 98 583 163 629 278 629 c 0
 486 629 557 490 569 356 c 1
 572 343 577 301 577 267 c 1
 539 279 l 1
 539 287 538.826 294 538.826 298 c 0
 538.826 413 446 493.75 271 493.75 c 0
 195 493.75 123 480 42 442 c 1
319 277 m 1
 250 277 l 2
 205.56 277 166.117 264.814 141 249 c 0
 114 232 101 206.051 101 180 c 0
 101 94 208 71 298 71 c 0
 451 71 539 156 539 304 c 1
 577 274 l 1
 577 114 478 0 295 0 c 0
 174 0 64 46 64 165 c 0xfc60
 64 195.721 73.7754 227.831 97 248 c 0
 113.127 262.005 132 273 158 278 c 1
 191.761 290.199 232.875 302 270 302 c 2
 287 302 l 1
 287.082 304.041 287.086 306.041 287.086 308 c 0
 287.086 362 254.125 395 215 395 c 0
 168.945 395 162.453 371 157.5 355 c 0
 151.542 335.755 141.371 323 119.5 323 c 0
 103.5 323 83 333.868 83 359.5 c 0xfa60
 83 404.312 133 431.5 188 431.5 c 0
 276 431.5 319.146 376 319.146 290 c 0
 319.146 286.722 319.101 280.388 319 277 c 1
148 277 m 1
 77 276 30 272.667 14 270 c 1
 14 302 l 1
 285 302 l 1
 315 277 l 1
 148 277 l 1
EndSplineSet
Ligature2: "'haln' Halant Forms in Sinhala lookup 3 subtable" si_Ca si_Halant
EndChar

StartChar: si_CI
Encoding: 65604 -1 151
Width: 621
GlyphClass: 3
Flags: MW
HStem: 0 71<253 374.5 253 386.5> 277 25<148 148 148 285 285 287 14 315 227.78 250 250 285 285 287 14 319> 395 36.5<191.973 232 160.5 234.562> 474 16 611 59<262.172 354>
VStem: 64 37<137 180.36> 69 42<531 579.943 531 607> 83 74.5 287.086 32.0605 499 47<528 572.137> 538 39<230 274 274 304 297 315>
LayerCount: 2
Fore
SplineSet
577 274 m 1xfaa0
 538 297 l 1xfaa0
 538 338.152 526.813 383.562 499 414 c 0
 446 472 380.019 472.325 279 478 c 0
 190 483 69 476 69 562 c 0
 69 652 200 670 300 670 c 0
 436 670 546 639 546 554 c 0
 546 502 492 480 458 474 c 1
 408 490 l 1
 444 491 499 506 499 544 c 0xfac0
 499 600.273 408 611 300 611 c 0
 224.344 611 111 605.886 111 554 c 0
 111 508 176 508 278 504 c 0
 342.869 501.456 437 499 492 459 c 0
 541.146 423.257 577 356 577 274 c 1xfaa0
319 277 m 1
 250 277 l 2
 205.56 277 166.117 264.814 141 249 c 0
 114 232 101 206.051 101 180 c 0
 101 94 208 71 298 71 c 0
 451 71 538 156 538 304 c 1
 577 274 l 1
 577 114 478 0 295 0 c 0
 174 0 64 46 64 165 c 0xfca0
 64 195.721 73.7754 227.831 97 248 c 0
 113.127 262.005 132 273 158 278 c 1
 191.761 290.199 232.875 302 270 302 c 2
 287 302 l 1
 287.082 304.041 287.086 306.041 287.086 308 c 0
 287.086 362 254.125 395 215 395 c 0
 168.945 395 162.453 371 157.5 355 c 0
 151.542 335.755 141.371 323 119.5 323 c 0
 103.5 323 83 333.868 83 359.5 c 0xf980
 83 404.312 133 431.5 188 431.5 c 0
 276 431.5 319.146 376 319.146 290 c 0
 319.146 286.722 319.101 280.388 319 277 c 1
148 277 m 1
 77 276 30 272.667 14 270 c 1
 14 302 l 1
 285 302 l 1
 315 277 l 1
 148 277 l 1
EndSplineSet
Ligature2: "'abvs' Above Base Substitutions in Sinhala lookup 4 subtable" si_Ca si_MatraI
EndChar

